<?xml version="1.0" encoding="UTF-8"?>
<svg version="1.1" xmlns="http://www.w3.org/2000/svg" width="500" height="500">
<path d="M0 0 C165 0 330 0 500 0 C500 165 500 330 500 500 C335 500 170 500 0 500 C0 335 0 170 0 0 Z " fill="#FEFEFE" transform="translate(0,0)"/>
<path d="M0 0 C2.49166759 1.40997173 3.95554941 2.90687201 6 5 C6.61875 5.598125 7.2375 6.19625 7.875 6.8125 C8.24625 7.204375 8.6175 7.59625 9 8 C10.485 7.01 10.485 7.01 12 6 C16.25515489 3.57955764 19.14552368 3.45191396 24 4 C26.875 5 26.875 5 29 7 C30.00878996 9.67778278 30.48789878 12.16016598 31 15 C31.66 14.67 32.32 14.34 33 14 C37.94428485 12.35190505 42.17549725 12.14597744 46.9375 14.375 C49 16 49 16 50 18 C50.13415472 20.6723621 50.04318541 23.32250488 50 26 C50.78375 25.505 51.5675 25.01 52.375 24.5 C57.03700147 22.57089594 61.01620774 22.2275122 66 23 C68.93423195 24.79646854 70.47205355 25.9441071 72 29 C72.35492542 36.21681678 72.35492542 36.21681678 70.95898438 39.29711914 C69.86352141 42.38466253 69.97024069 44.19106357 70.42578125 47.4140625 C70.56306641 48.42210937 70.70035156 49.43015625 70.84179688 50.46875 C71.07479492 52.03109375 71.07479492 52.03109375 71.3125 53.625 C71.45623047 54.67429688 71.59996094 55.72359375 71.74804688 56.8046875 C72.52779338 62.48021313 72.52779338 62.48021313 74 68 C75.20077326 75.30841012 75.16112036 82.79945638 75.25 90.1875 C75.28202515 91.5947937 75.28202515 91.5947937 75.31469727 93.03051758 C75.34257273 98.76526119 75.07495906 104.01036055 72 109 C67.48224448 113.0632666 62.39483883 114.21529706 56.625 115.5625 C50.57005409 117.01857033 44.74244419 118.55654463 39 121 C38.67 121.66 38.34 122.32 38 123 C37.01 123 36.02 123 35 123 C35.59748047 124.41539062 35.59748047 124.41539062 36.20703125 125.859375 C36.74262278 127.15607029 37.27775374 128.45295589 37.8125 129.75 C38.07353516 130.36488281 38.33457031 130.97976562 38.60351562 131.61328125 C42.54618794 141.25092468 44.48191718 150.59834144 44.25 161 C44.22921387 162.59569824 44.22921387 162.59569824 44.20800781 164.22363281 C44.1719835 166.68891904 44.12810053 169.15409775 44.078125 171.61914062 C43.99700422 175.77609758 43.96341403 179.93286734 43.93145752 184.0904541 C43.89741643 187.99850337 43.84472453 191.90617862 43.78845215 195.81396484 C43.76309965 197.74976894 43.74351674 199.6856584 43.73010254 201.62158203 C43.64004954 213.11453357 42.94733635 223.09756287 39 234 C38.68957764 234.91990723 38.37915527 235.83981445 38.05932617 236.78759766 C29.68082909 260.9854049 5.61134233 279.86727074 -16.5324707 290.90698242 C-43.67957579 304 -43.67957579 304 -53 304 C-55.30142992 301.17780856 -57.06569516 298.09488775 -59 295 C-59.33 301.6 -59.66 308.2 -60 315 C-67.49337809 317.09814586 -74.86579354 318.5317295 -82.5625 319.625 C-83.85450317 319.80929565 -83.85450317 319.80929565 -85.17260742 319.99731445 C-141.39341196 327.71285284 -210.42819854 318.70221614 -256.84106445 283.60791016 C-272.81875673 270.38551588 -284.3869064 251.75532481 -287 231 C-287.10574671 228.61280411 -287.16764816 226.22338815 -287.19287109 223.83398438 C-287.20104858 223.1547995 -287.20922607 222.47561462 -287.21765137 221.77584839 C-287.24227226 219.54849064 -287.2589661 217.32119585 -287.2734375 215.09375 C-287.27876118 214.32454727 -287.28408485 213.55534454 -287.28956985 212.76283264 C-287.31620792 208.68662519 -287.33560735 204.61044727 -287.35009766 200.53417969 C-287.36338882 197.19210146 -287.3911648 193.85064075 -287.43212891 190.50878906 C-287.48195414 186.44166935 -287.50627855 182.3751052 -287.51332474 178.30769348 C-287.51995689 176.7737672 -287.53496321 175.23984935 -287.55921555 173.70610046 C-287.86313405 153.3137991 -280.30522142 136.44260639 -267 121 C-266.48179687 120.33742188 -265.96359375 119.67484375 -265.4296875 118.9921875 C-245.91302704 94.76799085 -212.32754599 82.13756877 -183 75.25 C-182.17161621 75.05132324 -181.34323242 74.85264648 -180.48974609 74.64794922 C-165.3174492 71.26052422 -150.0018279 70.64892541 -134.51464844 70.68432617 C-131.63438098 70.6874897 -128.75514202 70.66389761 -125.875 70.63867188 C-115.55424954 70.60623328 -105.65338946 71.16864676 -95.48721313 73.0365448 C-91.05312883 73.83075395 -87.43003132 74.26625406 -83 73 C-80.14445983 70.56272118 -80.14445983 70.56272118 -78 68 C-76.8553125 68.4640625 -76.8553125 68.4640625 -75.6875 68.9375 C-58.44142234 75.75571675 -37.59517169 67.95971611 -21.53125 61.078125 C-14.16329985 57.7784056 -6.14432387 54.06219398 -1.7421875 46.9609375 C-0.23964721 42.9910679 -0.25433132 39.140995 -1 35 C-2.22435155 32.35762154 -2.22435155 32.35762154 -5 31 C-6.66453835 30.61566307 -8.33148312 30.24167996 -10 29.875 C-13.30940517 29.0074387 -14.6103913 28.59706268 -16.50390625 25.6953125 C-17.50422933 23.14836443 -18.30807747 20.64584214 -19 18 C-19.33 17.01 -19.66 16.02 -20 15 C-18.515 14.01 -18.515 14.01 -17 13 C-16.17159758 10.94845264 -16.17159758 10.94845264 -15.625 8.625 C-14.65367417 5.54748294 -13.97643451 3.97158279 -11.875 1.4375 C-7.83765425 -0.58117287 -4.42447259 -0.92078971 0 0 Z " fill="#F7921F" transform="translate(363,66)"/>
<path d="M0 0 C-3.60464343 4.4156882 -7.27855991 8.24288815 -11.61328125 11.93359375 C-14.55125147 14.4772701 -17.40073935 17.10782112 -20.25 19.75 C-21.375 20.79166667 -22.5 21.83333333 -23.625 22.875 C-24.18574219 23.39449219 -24.74648437 23.91398437 -25.32421875 24.44921875 C-27.45688959 26.42280925 -29.59315712 28.39239651 -31.73461914 30.35644531 C-32.73758736 31.2787818 -33.73684593 32.20517007 -34.73217773 33.13574219 C-37.00788541 35.25029378 -39.29387847 37.21927538 -41.78515625 39.078125 C-44.23710648 40.9426683 -46.12727426 42.55733795 -48 45 C-48.31835689 47.39049678 -48.31835689 47.39049678 -47.87890625 49.9453125 C-47.69122681 51.40179199 -47.69122681 51.40179199 -47.49975586 52.88769531 C-46.08950162 61.67026543 -44.3297046 70.3729644 -42.55957031 79.08886719 C-42.12265541 81.36189221 -41.77428326 83.65198483 -41.4609375 85.9453125 C-39.95239316 95.94261485 -33.6778584 102.95263155 -27.67919922 110.75439453 C-24.69372285 114.74689405 -22.01117611 118.93783996 -19.33569336 123.14208984 C-17.55782829 125.88175077 -15.78320729 128.21679271 -13.46875 130.53125 C-10.77476962 133.22523038 -8.98642446 135.94016157 -7 139.1875 C-3.47687212 144.82661382 0.26790666 150.25449119 4.1875 155.625 C11.26305934 165.32098021 18.14392932 175.14798624 25 185 C24 187 24 187 22.3203125 187.5625 C21.23363281 187.7790625 21.23363281 187.7790625 20.125 188 C19.30257812 188.165 18.48015625 188.33 17.6328125 188.5 C16.76398438 188.665 15.89515625 188.83 15 189 C14.19304687 189.165 13.38609375 189.33 12.5546875 189.5 C-2.28944209 192.40527307 -16.96940603 193.38345266 -32.0625 193.3125 C-33.34133057 193.30876877 -33.34133057 193.30876877 -34.64599609 193.30496216 C-81.41686417 193.09487741 -140.26490576 181.98202987 -175 148 C-191.06492847 131.14174173 -197.53892306 111.96875823 -197.203125 88.94140625 C-196.58786496 69.01673506 -184.36213715 50.37962032 -170.23046875 36.953125 C-160.58201439 28.50439089 -150.38592968 21.87156766 -139 16 C-138.37867188 15.67902344 -137.75734375 15.35804688 -137.1171875 15.02734375 C-100.84580382 -3.41704072 -39.43271077 -14.94424389 0 0 Z " fill="#9ECCFE" transform="translate(275,143)"/>
<path d="M0 0 C2.88026746 0.00316352 5.75950642 -0.02042856 8.63964844 -0.0456543 C40.31123177 -0.15327061 40.31123177 -0.15327061 48.51464844 5.31567383 C44.49328488 6.3692414 41.46446989 6.17153861 37.38964844 5.44067383 C25.99667502 3.42346407 14.67694574 3.1095822 3.13964844 3.12817383 C2.38798401 3.12911041 1.63631958 3.130047 0.86187744 3.13101196 C-46.45886849 3.25847821 -93.2633217 14.98594633 -128.02441406 48.78442383 C-141.41373761 62.95594154 -149.95530497 80.66980082 -149.73535156 100.25317383 C-149.72785889 101.13561768 -149.72036621 102.01806152 -149.71264648 102.92724609 C-149.61324018 108.92883217 -149.31657064 114.56179071 -147.48535156 120.31567383 C-147.02515625 121.79487305 -147.02515625 121.79487305 -146.55566406 123.30395508 C-138.22511297 147.29019701 -120.29424066 163.02735977 -98.09472656 174.15551758 C-76.50205397 184.52727885 -52.96877539 190.97479851 -29.48535156 195.31567383 C-28.58494141 195.48228516 -27.68453125 195.64889648 -26.75683594 195.82055664 C4.46486165 201.28831586 39.90045739 200.74653504 70.51464844 192.31567383 C66.39836235 185.5200597 61.93898572 179.04724982 57.26464844 172.62817383 C49.19674275 161.54511941 41.21838148 150.40172222 34.14746094 138.64770508 C32.53447096 136.19423238 32.53447096 136.19423238 30.14355469 133.97973633 C27.06143935 130.856404 24.7507497 127.51908291 22.32714844 123.87817383 C21.36994435 122.4620453 20.41158459 121.04669732 19.45214844 119.63208008 C18.96875 118.91810059 18.48535156 118.20412109 17.98730469 117.46850586 C15.64869386 114.04976079 13.24229204 110.68060774 10.82714844 107.31567383 C10.39313721 106.71053955 9.95912598 106.10540527 9.51196289 105.48193359 C8.51407677 104.09230439 7.51456424 102.70384328 6.51464844 101.31567383 C8.88803082 97.75560025 10.17655412 97.4645661 14.13964844 96.12817383 C15.14253906 95.78399414 16.14542969 95.43981445 17.17871094 95.08520508 C17.94957031 94.83125977 18.72042969 94.57731445 19.51464844 94.31567383 C18.52464844 89.86067383 18.52464844 89.86067383 17.51464844 85.31567383 C21.62739952 89.12731277 24.54945051 93.13650859 27.51464844 97.87817383 C28.48296942 99.4005822 29.45173831 100.92270576 30.42089844 102.44458008 C31.17693359 103.63784912 31.17693359 103.63784912 31.94824219 104.85522461 C34.60552284 109.02917636 37.31212856 113.17092841 40.01464844 117.31567383 C43.13790568 122.10836896 46.25829816 126.90196405 49.32714844 131.72973633 C55.00097481 140.63564483 60.97933514 149.25137585 67.20996094 157.77661133 C70.63368601 162.46203115 73.98685285 167.19554365 77.32714844 171.94067383 C77.84913818 172.68188477 78.37112793 173.4230957 78.90893555 174.18676758 C80.11167978 175.8958122 81.31330068 177.60564729 82.51464844 179.31567383 C88.1847854 178.7207989 93.12429515 177.25255397 98.45214844 175.25317383 C99.28045166 174.94371826 100.10875488 174.6342627 100.9621582 174.31542969 C130.26543523 163.10703133 157.06702206 144.050131 170.25756836 114.83056641 C177.20326051 98.67107372 177.6365665 81.79233421 171.51464844 65.31567383 C169.15442343 59.82234184 166.36268175 54.5678911 163.51464844 49.31567383 C162.84121368 47.98574607 162.1704754 46.65437216 161.51464844 45.31567383 C165.54582674 46.65939993 166.31595441 48.76939314 168.51464844 52.31567383 C169.17464844 53.30567383 169.83464844 54.29567383 170.51464844 55.31567383 C171.36567258 57.11040791 172.17322974 58.92599071 172.95214844 60.75317383 C173.36335938 61.70063477 173.77457031 62.6480957 174.19824219 63.62426758 C177.3831585 72.55526436 178.97580624 80.84508888 178.76464844 90.31567383 C178.7438623 91.91137207 178.7438623 91.91137207 178.72265625 93.53930664 C178.68663194 96.00459287 178.64274896 98.46977158 178.59277344 100.93481445 C178.51165266 105.09177141 178.47806247 109.24854117 178.44610596 113.40612793 C178.41206486 117.3141772 178.35937297 121.22185245 178.30310059 125.12963867 C178.27774809 127.06544276 178.25816517 129.00133223 178.24475098 130.93725586 C178.15469798 142.4302074 177.46198479 152.4132367 173.51464844 163.31567383 C173.20422607 164.23558105 172.89380371 165.15548828 172.57397461 166.10327148 C164.19547753 190.30107873 140.12599077 209.18294456 117.98217773 220.22265625 C90.83507265 233.31567383 90.83507265 233.31567383 81.51464844 233.31567383 C79.21321851 230.49348239 77.44895328 227.41056158 75.51464844 224.31567383 C75.18464844 230.91567383 74.85464844 237.51567383 74.51464844 244.31567383 C67.02127035 246.41381969 59.64885489 247.84740333 51.95214844 248.94067383 C50.66014526 249.12496948 50.66014526 249.12496948 49.34204102 249.31298828 C-6.87876352 257.02852667 -75.9135501 248.01788997 -122.32641602 212.92358398 C-138.30410829 199.70118971 -149.87225796 181.07099864 -152.48535156 160.31567383 C-152.59109828 157.92847794 -152.65299972 155.53906197 -152.67822266 153.1496582 C-152.68640015 152.47047333 -152.69457764 151.79128845 -152.70300293 151.09152222 C-152.72762383 148.86416447 -152.74431766 146.63686968 -152.75878906 144.40942383 C-152.76411274 143.6402211 -152.76943642 142.87101837 -152.77492142 142.07850647 C-152.80155949 138.00229901 -152.82095891 133.9261211 -152.83544922 129.84985352 C-152.84874038 126.50777529 -152.87651636 123.16631458 -152.91748047 119.82446289 C-152.9673057 115.75734318 -152.99163011 111.69077902 -152.9986763 107.62336731 C-153.00530845 106.08944103 -153.02031477 104.55552317 -153.04456711 103.02177429 C-153.34848562 82.62947293 -145.79057298 65.75828022 -132.48535156 50.31567383 C-131.96714844 49.6530957 -131.44894531 48.99051758 -130.91503906 48.30786133 C-111.3983786 24.08366467 -77.81289756 11.4532426 -48.48535156 4.56567383 C-47.65696777 4.36699707 -46.82858398 4.16832031 -45.97509766 3.96362305 C-30.80280076 0.57619805 -15.48717946 -0.03540077 0 0 Z " fill="#29383A" transform="translate(228.4853515625,136.684326171875)"/>
<path d="M0 0 C2.45259446 3.04849337 4.17487036 6.5473063 6 10 C6.45890625 10.86367187 6.9178125 11.72734375 7.390625 12.6171875 C15.0351471 28.13648838 16.40438383 45.62671133 11.453125 62.13671875 C7.20722559 74.05908124 0.58767772 84.73935265 -8 94 C-8.74636719 94.82628906 -9.49273437 95.65257812 -10.26171875 96.50390625 C-26.14383309 113.27856917 -46.2774963 123.65084291 -67.81347656 131.22607422 C-69.65630269 131.87834743 -71.48275103 132.5766254 -73.3046875 133.28515625 C-76.4064445 134.10779615 -77.94926211 133.9282668 -81 133 C-82.60229492 131.45629883 -82.60229492 131.45629883 -83.98046875 129.45703125 C-84.49931641 128.72049316 -85.01816406 127.98395508 -85.55273438 127.22509766 C-86.36194336 126.03086182 -86.36194336 126.03086182 -87.1875 124.8125 C-87.75919922 123.99313965 -88.33089844 123.1737793 -88.91992188 122.32958984 C-90.08118517 120.66522059 -91.23732032 118.99726105 -92.38818359 117.32568359 C-93.77209728 115.32883994 -95.17903327 113.35532506 -96.61328125 111.39453125 C-103.21707049 102.36614301 -109.27538012 93.00119443 -115.32666016 83.59667969 C-117.50323469 80.21908314 -119.6931554 76.85027537 -121.88476562 73.48242188 C-122.95608092 71.83593851 -124.02640419 70.18880921 -125.09570312 68.54101562 C-127.95187675 64.14021217 -130.82102682 59.74849592 -133.70703125 55.3671875 C-134.3103125 54.44808594 -134.91359375 53.52898437 -135.53515625 52.58203125 C-136.69942376 50.80876227 -137.86726438 49.03783294 -139.0390625 47.26953125 C-139.55855469 46.47675781 -140.07804688 45.68398437 -140.61328125 44.8671875 C-141.07516846 44.16706543 -141.53705566 43.46694336 -142.01293945 42.74560547 C-143 41 -143 41 -143 39 C-142.02095703 38.72027344 -141.04191406 38.44054687 -140.03320312 38.15234375 C-139.37088181 37.96310837 -138.70856049 37.77387299 -138.02616882 37.5789032 C-136.49037323 37.14010595 -134.95457603 36.7013143 -133.41877747 36.26252747 C-128.90960082 34.97421872 -124.40045544 33.68580071 -119.89135742 32.3972168 C-110.07460833 29.59197079 -100.25755597 26.78779539 -90.43969727 23.98643494 C-58.51779502 14.88762241 -58.51779502 14.88762241 -26.625 5.6875 C-25.44591064 5.34501221 -24.26682129 5.00252441 -23.05200195 4.6496582 C-21.43684692 4.17919067 -21.43684692 4.17919067 -19.7890625 3.69921875 C-18.80711914 3.41481934 -17.82517578 3.13041992 -16.81347656 2.83740234 C-14.91752475 2.2730918 -13.02871639 1.68427464 -11.14746094 1.07275391 C-10.2609082 0.78706543 -9.37435547 0.50137695 -8.4609375 0.20703125 C-7.30924072 -0.17811646 -7.30924072 -0.17811646 -6.13427734 -0.57104492 C-3.70019697 -1.06025554 -2.30856431 -0.88203848 0 0 Z " fill="#EFF6FD" transform="translate(391,183)"/>
<path d="M0 0 C2.50095125 1.39838134 3.95407128 2.90535869 6 5 C6.61875 5.598125 7.2375 6.19625 7.875 6.8125 C8.24625 7.204375 8.6175 7.59625 9 8 C9.99 7.34 10.98 6.68 12 6 C16.25515489 3.57955764 19.14552368 3.45191396 24 4 C26.875 5 26.875 5 29 7 C30.00878996 9.67778278 30.48789878 12.16016598 31 15 C31.66 14.67 32.32 14.34 33 14 C37.94428485 12.35190505 42.17549725 12.14597744 46.9375 14.375 C49 16 49 16 50 18 C50.13415472 20.6723621 50.04318541 23.32250488 50 26 C50.78375 25.505 51.5675 25.01 52.375 24.5 C57.03700147 22.57089594 61.01620774 22.2275122 66 23 C68.93423195 24.79646854 70.47205355 25.9441071 72 29 C72.35492542 36.21681678 72.35492542 36.21681678 70.95898438 39.29711914 C69.86352141 42.38466253 69.97024069 44.19106357 70.42578125 47.4140625 C70.56306641 48.42210937 70.70035156 49.43015625 70.84179688 50.46875 C71.07479492 52.03109375 71.07479492 52.03109375 71.3125 53.625 C71.45623047 54.67429688 71.59996094 55.72359375 71.74804688 56.8046875 C72.52779338 62.48021313 72.52779338 62.48021313 74 68 C75.20077326 75.30841012 75.16112036 82.79945638 75.25 90.1875 C75.2713501 91.1256958 75.2927002 92.0638916 75.31469727 93.03051758 C75.34257273 98.76526119 75.07495906 104.01036055 72 109 C67.48224448 113.0632666 62.39483883 114.21529706 56.625 115.5625 C50.57005409 117.01857033 44.74244419 118.55654463 39 121 C38.67 121.66 38.34 122.32 38 123 C35.4375 123.625 35.4375 123.625 33 124 C31.02 120.535 31.02 120.535 29 117 C22.15056244 117.62179219 15.8667649 119.31232797 9.28125 121.25390625 C8.1344426 121.58657501 6.98763519 121.91924377 5.80607605 122.26199341 C2.68541549 123.16816642 -0.43367361 124.07952884 -3.55221939 124.99294662 C-6.83314292 125.95232627 -10.11617964 126.90441081 -13.39916992 127.85668945 C-14.74352005 128.24673254 -16.08786511 128.63679307 -17.4322052 129.02687073 C-18.43891738 129.31898028 -18.43891738 129.31898028 -19.46596718 129.61699104 C-21.52438314 130.21461437 -23.58256251 130.81304584 -25.64067078 131.41172791 C-38.66394171 135.19942611 -51.69995986 138.94162099 -64.74121094 142.66696167 C-68.20942199 143.65804423 -71.67700819 144.65128887 -75.14453125 145.64477539 C-88.73569691 149.53292343 -102.35221153 153.31553178 -116 157 C-115.34 159.97 -114.68 162.94 -114 166 C-115.9570868 166.67031719 -117.91571113 167.33614683 -119.875 168 C-120.96554688 168.37125 -122.05609375 168.7425 -123.1796875 169.125 C-126 170 -126 170 -128 170 C-128.69951063 167.586238 -129.38483919 165.16989766 -130.0625 162.75 C-130.26166016 162.06808594 -130.46082031 161.38617188 -130.66601562 160.68359375 C-132.40009269 154.41657839 -132.40009269 154.41657839 -131 151 C-131 151.66 -131 152.32 -131 153 C-65.11282307 131.0820928 -65.11282307 131.0820928 -0.75 105.125 C0.03076904 104.77953125 0.81153809 104.4340625 1.6159668 104.078125 C10.76640084 99.90938074 17.97237642 95.74204471 22.8125 86.5625 C25.94011525 77.30404803 24.44369106 66.27293484 22 57 C28.76623823 53.50154728 35.59946922 50.21060012 42.5625 47.125 C43.25279297 46.8148999 43.94308594 46.5047998 44.65429688 46.18530273 C47.60415911 44.89309676 49.743534 44 53 44 C53 43.34 53 42.68 53 42 C51.99453125 41.60554688 51.99453125 41.60554688 50.96875 41.203125 C47.45264716 39.77817806 43.9751505 38.27122347 40.5 36.75 C39.86835938 36.47542969 39.23671875 36.20085937 38.5859375 35.91796875 C35.4366706 34.54093636 32.30301695 33.14299172 29.19433594 31.67602539 C22.97493493 28.7441752 16.7249162 26.04392765 10.328125 23.52734375 C9.5865918 23.23334686 8.84505859 22.93934998 8.08105469 22.63644409 C5.02063051 21.42322221 1.96047025 20.21071825 -1.11230469 19.02905273 C-3.38968299 18.15053393 -5.65604443 17.24765739 -7.921875 16.33984375 C-8.96852325 15.94743752 -8.96852325 15.94743752 -10.03631592 15.54710388 C-11.97167969 14.75756836 -11.97167969 14.75756836 -15 13 C-16.05175781 10.49047852 -16.05175781 10.49047852 -16 8 C-12.06500096 0.83268032 -7.94374189 -1.3579046 0 0 Z " fill="#E48120" transform="translate(363,66)"/>
<path d="M0 0 C0.33 0 0.66 0 1 0 C1.04984062 5.22866463 1.08592606 10.45718765 1.10986328 15.68603516 C1.11985378 17.46079928 1.13345081 19.23554723 1.15087891 21.01025391 C1.40587057 47.66438231 -6.52204363 67.07753013 -25.125 86.5 C-42.35327362 103.30288415 -67.07452473 117.58207496 -91 121 C-91 105.16 -91 89.32 -91 73 C-86.71 71.68 -82.42 70.36 -78 69 C-45.93481889 57.83847821 -18.78446714 38.26077327 -2.86376953 7.81787109 C-1.66038601 5.28525558 -0.79513119 2.6851289 0 0 Z " fill="#9DCBFD" transform="translate(403,246)"/>
<path d="M0 0 C0.8863916 0.37737305 1.7727832 0.75474609 2.68603516 1.14355469 C4.189646 1.76556763 4.189646 1.76556763 5.72363281 2.40014648 C6.79661621 2.86718994 7.86959961 3.3342334 8.97509766 3.81542969 C10.08546387 4.28053955 11.19583008 4.74564941 12.33984375 5.22485352 C14.64127602 6.18926791 16.93960322 7.16112351 19.23486328 8.14013672 C23.29003416 9.85764162 27.37258238 11.50033733 31.4597168 13.13989258 C43.49590854 17.9843349 55.37488892 23.02330424 66.60009766 29.56542969 C66.60009766 30.22542969 66.60009766 30.88542969 66.60009766 31.56542969 C62.62296917 33.31241445 58.6433555 35.05358672 54.66162109 36.79003906 C53.31526824 37.37807191 51.96953577 37.96752782 50.62451172 38.55859375 C43.54288644 41.66941265 36.46079837 44.66077659 29.19384766 47.31933594 C17.6463026 51.55203419 6.3989672 56.53031485 -4.89990234 61.37792969 C-7.29420035 62.40229187 -9.68865199 63.42629504 -12.08325195 64.44995117 C-15.70583646 65.99863155 -19.32830285 67.54758173 -22.95018005 69.09791565 C-30.41825852 72.29417089 -37.8920553 75.47649271 -45.37255859 78.64355469 C-46.74394485 79.22450142 -46.74394485 79.22450142 -48.14303589 79.81718445 C-51.564064 81.26623496 -54.98510924 82.71523167 -58.40771484 84.16055298 C-66.87258758 87.73592717 -75.28632048 91.36767666 -83.59545898 95.29467773 C-86.45222512 96.58913823 -89.33582606 97.72226507 -92.27490234 98.81542969 C-102.48839897 102.64075661 -112.42108377 107.17260106 -122.39990234 111.56542969 C-122.39990234 108.56542969 -122.39990234 108.56542969 -120.33740234 106.39355469 C-118.88333984 105.11738281 -118.88333984 105.11738281 -117.39990234 103.81542969 C-116.29724939 102.83488373 -115.1957484 101.8530413 -114.09521484 100.87011719 C-113.20237793 100.07686035 -113.20237793 100.07686035 -112.29150391 99.26757812 C-108.89960015 96.21539008 -105.59326183 93.07208243 -102.27490234 89.94042969 C-97.17883211 85.14806707 -92.04963912 80.40273691 -86.82958984 75.74511719 C-83.95597084 73.16717602 -81.11527746 70.55486587 -78.27490234 67.94042969 C-73.71146564 63.74343753 -69.0966296 59.61290347 -64.39990234 55.56542969 C-63.63677734 55.87480469 -62.87365234 56.18417969 -62.08740234 56.50292969 C-44.84132468 63.32114644 -23.99507404 55.5251458 -7.93115234 48.64355469 C-0.56320219 45.34383529 7.45577379 41.62762366 11.85791016 34.52636719 C13.36045044 30.55649759 13.34576634 26.70642468 12.60009766 22.56542969 C11.3757461 19.92305123 11.3757461 19.92305123 8.60009766 18.56542969 C6.93555931 18.18109276 5.26861454 17.80710965 3.60009766 17.44042969 C0.29069249 16.57286839 -1.01029364 16.16249237 -2.90380859 13.26074219 C-3.90413167 10.71379412 -4.70797981 8.21127183 -5.39990234 5.56542969 C-5.89490234 4.08042969 -5.89490234 4.08042969 -6.39990234 2.56542969 C-3.10824794 -0.56283635 -3.10824794 -0.56283635 0 0 Z " fill="#FAB03C" transform="translate(349.39990234375,78.4345703125)"/>
<path d="M0 0 C2.50095125 1.39838134 3.95407128 2.90535869 6 5 C6.61875 5.598125 7.2375 6.19625 7.875 6.8125 C8.24625 7.204375 8.6175 7.59625 9 8 C9.99 7.34 10.98 6.68 12 6 C16.25515489 3.57955764 19.14552368 3.45191396 24 4 C26.875 5 26.875 5 29 7 C30.00878996 9.67778278 30.48789878 12.16016598 31 15 C31.66 14.67 32.32 14.34 33 14 C37.94428485 12.35190505 42.17549725 12.14597744 46.9375 14.375 C49 16 49 16 50 18 C50.13415472 20.6723621 50.04318541 23.32250488 50 26 C50.78375 25.505 51.5675 25.01 52.375 24.5 C57.03700147 22.57089594 61.01620774 22.2275122 66 23 C68.93423195 24.79646854 70.47205355 25.9441071 72 29 C72.35492542 36.21681678 72.35492542 36.21681678 70.95898438 39.29711914 C69.86352141 42.38466253 69.97024069 44.19106357 70.42578125 47.4140625 C70.56306641 48.42210937 70.70035156 49.43015625 70.84179688 50.46875 C71.07479492 52.03109375 71.07479492 52.03109375 71.3125 53.625 C71.45623047 54.67429688 71.59996094 55.72359375 71.74804688 56.8046875 C72.52779338 62.48021313 72.52779338 62.48021313 74 68 C75.20077326 75.30841012 75.16112036 82.79945638 75.25 90.1875 C75.2713501 91.1256958 75.2927002 92.0638916 75.31469727 93.03051758 C75.34257273 98.76526119 75.07495906 104.01036055 72 109 C67.48224448 113.0632666 62.39483883 114.21529706 56.625 115.5625 C50.57005409 117.01857033 44.74244419 118.55654463 39 121 C38.67 121.66 38.34 122.32 38 123 C35.4375 123.625 35.4375 123.625 33 124 C31.02 120.535 31.02 120.535 29 117 C22.15056244 117.62179219 15.8667649 119.31232797 9.28125 121.25390625 C8.1344426 121.58657501 6.98763519 121.91924377 5.80607605 122.26199341 C2.68541549 123.16816642 -0.43367361 124.07952884 -3.55221939 124.99294662 C-6.83314292 125.95232627 -10.11617964 126.90441081 -13.39916992 127.85668945 C-14.74352005 128.24673254 -16.08786511 128.63679307 -17.4322052 129.02687073 C-18.43891738 129.31898028 -18.43891738 129.31898028 -19.46596718 129.61699104 C-21.52438314 130.21461437 -23.58256251 130.81304584 -25.64067078 131.41172791 C-38.66394171 135.19942611 -51.69995986 138.94162099 -64.74121094 142.66696167 C-68.20942199 143.65804423 -71.67700819 144.65128887 -75.14453125 145.64477539 C-88.73569691 149.53292343 -102.35221153 153.31553178 -116 157 C-115.34 159.97 -114.68 162.94 -114 166 C-115.9570868 166.67031719 -117.91571113 167.33614683 -119.875 168 C-120.96554688 168.37125 -122.05609375 168.7425 -123.1796875 169.125 C-126 170 -126 170 -128 170 C-129.50576582 165.48270255 -130.13905625 162.611983 -129 158 C-91.55275541 146.5981996 -54.02472801 135.47733295 -16.4773922 124.41041183 C-9.41458104 122.32839885 -2.3527516 120.24307847 4.70824242 118.15491104 C8.65510334 116.98780137 12.60237963 115.82216666 16.55108643 114.66131592 C20.02066515 113.64128261 23.48875081 112.61633084 26.95570564 111.5874157 C28.75558833 111.05459851 30.55700836 110.5269827 32.35850525 109.99964905 C37.9787752 108.32627177 43.54914463 106.53314072 49.07202148 104.56079102 C50.63423683 104.00621971 50.63423683 104.00621971 52.22801208 103.44044495 C56.45875105 101.24196979 58.50578551 98.48264347 60 94 C60.45629297 87.24469498 59.72245391 80.66505242 58.6875 74 C58.55214844 73.10297363 58.41679687 72.20594727 58.27734375 71.28173828 C57.99628208 69.43369272 57.71161784 67.58619144 57.42333984 65.73925781 C57.01170547 63.07574127 56.62316134 60.40968322 56.23828125 57.7421875 C55.99327339 56.11962732 55.74722921 54.49722319 55.5 52.875 C55.34084106 51.74771484 55.34084106 51.74771484 55.1784668 50.59765625 C54.55250426 46.66016468 54.11224998 44.49714096 51 42 C48.68762817 40.69761508 46.39562338 39.48863413 44.015625 38.32421875 C43.31367004 37.97743576 42.61171509 37.63065277 41.88848877 37.27336121 C33.32631809 33.10300877 24.54454752 29.45861634 15.75 25.8125 C14.09353699 25.1209527 12.43728622 24.42889682 10.78125 23.73632812 C9.97248413 23.39874481 9.16371826 23.0611615 8.33044434 22.71334839 C6.74325309 22.05020877 5.15672803 21.38547207 3.57092285 20.71902466 C0.13122685 19.2784206 -3.30813446 17.86773762 -6.80664062 16.57568359 C-8.44149414 15.9562085 -8.44149414 15.9562085 -10.109375 15.32421875 C-11.04233398 14.98865967 -11.97529297 14.65310059 -12.93652344 14.30737305 C-15 13 -15 13 -15.91503906 10.55395508 C-16.04179867 6.74351756 -14.32831189 4.91038987 -12 2 C-7.97552341 -0.68298439 -4.7306546 -0.80865891 0 0 Z " fill="#9B5727" transform="translate(363,66)"/>
<path d="M0 0 C1.3295874 0.56605957 1.3295874 0.56605957 2.68603516 1.14355469 C4.189646 1.76556763 4.189646 1.76556763 5.72363281 2.40014648 C6.79661621 2.86718994 7.86959961 3.3342334 8.97509766 3.81542969 C10.64064697 4.51309448 10.64064697 4.51309448 12.33984375 5.22485352 C14.64127602 6.18926791 16.93960322 7.16112351 19.23486328 8.14013672 C23.29003416 9.85764162 27.37258238 11.50033733 31.4597168 13.13989258 C43.49590854 17.9843349 55.37488892 23.02330424 66.60009766 29.56542969 C66.60009766 30.22542969 66.60009766 30.88542969 66.60009766 31.56542969 C62.78894861 33.31979247 58.96645617 35.04564428 55.1315918 36.74731445 C53.83166762 37.32869406 52.53500705 37.91743348 51.24194336 38.51391602 C42.23807899 42.65965519 36.18518148 44.54352379 26.59619141 41.66308594 C25.75185547 41.32148437 24.90751953 40.97988281 24.03759766 40.62792969 C19.58932459 38.90500702 15.25020003 37.61828306 10.60009766 36.56542969 C10.92236328 36.00855469 11.24462891 35.45167969 11.57666016 34.87792969 C13.34683415 30.87814724 13.1438798 26.85129155 12.60009766 22.56542969 C11.3757461 19.92305123 11.3757461 19.92305123 8.60009766 18.56542969 C6.93555931 18.18109276 5.26861454 17.80710965 3.60009766 17.44042969 C0.29069249 16.57286839 -1.01029364 16.16249237 -2.90380859 13.26074219 C-3.90413167 10.71379412 -4.70797981 8.21127183 -5.39990234 5.56542969 C-5.72990234 4.57542969 -6.05990234 3.58542969 -6.39990234 2.56542969 C-3.10824794 -0.56283635 -3.10824794 -0.56283635 0 0 Z " fill="#F8CD55" transform="translate(349.39990234375,78.4345703125)"/>
<path d="M0 0 C4.0311783 1.3437261 4.80130597 3.45371931 7 7 C7.99 8.485 7.99 8.485 9 10 C9.85102414 11.79473408 10.6585813 13.61031688 11.4375 15.4375 C11.84871094 16.38496094 12.25992188 17.33242187 12.68359375 18.30859375 C15.86851006 27.23959054 17.4611578 35.52941505 17.25 45 C17.22921387 46.59569824 17.22921387 46.59569824 17.20800781 48.22363281 C17.1719835 50.68891904 17.12810053 53.15409775 17.078125 55.61914062 C16.99700422 59.77609758 16.96341403 63.93286734 16.93145752 68.0904541 C16.89741643 71.99850337 16.84472453 75.90617862 16.78845215 79.81396484 C16.76309965 81.74976894 16.74351674 83.6856584 16.73010254 85.62158203 C16.64004954 97.11453357 15.94733635 107.09756287 12 118 C11.68957764 118.91990723 11.37915527 119.83981445 11.05932617 120.78759766 C2.64512298 145.08852719 -21.53605776 163.97606826 -43.78637695 175.0090332 C-63.09155263 184.28211759 -63.09155263 184.28211759 -72 186 C-72.99 185.34 -73.98 184.68 -75 184 C-73.88625 183.6596875 -72.7725 183.319375 -71.625 182.96875 C-60.83592265 179.57915574 -50.92446516 175.40719702 -41 170 C-39.94167969 169.43410156 -38.88335937 168.86820313 -37.79296875 168.28515625 C-14.83623971 155.49798739 3.28392656 136.46030232 11.4921875 111.16015625 C12.86444666 105.32277692 13.13980781 99.61750766 13.09765625 93.66015625 C13.0962413 92.89319931 13.09482635 92.12624237 13.09336853 91.33604431 C13.08781766 88.9114881 13.07527463 86.48702781 13.0625 84.0625 C13.05747864 82.40820447 13.05291685 80.75390747 13.04882812 79.09960938 C13.03786438 75.06636988 13.02063424 71.03320114 13 67 C12.48888672 68.09465576 11.97777344 69.18931152 11.45117188 70.31713867 C-4.69603773 104.6751982 -35.52507765 123.30156048 -69.87890625 136.25 C-73.30935679 137.07433855 -75.59666221 136.81884819 -79 136 C-76.31389713 134.59353298 -73.67954165 133.4893782 -70.796875 132.5546875 C-39.96217354 122.32157863 -9.56804206 105.0150219 6.015625 75.25390625 C14.64731679 57.9661331 16.78774673 40.49824411 10.76269531 22.05273438 C8.42704883 15.7665258 5.19016479 9.88316105 2 4 C1.32656524 2.67007224 0.65582696 1.33869833 0 0 Z " fill="#3D4D52" transform="translate(390,182)"/>
<path d="M0 0 C2.88026746 0.00316352 5.75950642 -0.02042856 8.63964844 -0.0456543 C40.31123177 -0.15327061 40.31123177 -0.15327061 48.51464844 5.31567383 C44.49328488 6.3692414 41.46446989 6.17153861 37.38964844 5.44067383 C25.99667502 3.42346407 14.67694574 3.1095822 3.13964844 3.12817383 C2.38798401 3.12911041 1.63631958 3.130047 0.86187744 3.13101196 C-46.45886849 3.25847821 -93.2633217 14.98594633 -128.02441406 48.78442383 C-143.82645164 65.50960449 -149.44825995 84.07278791 -150.48535156 106.31567383 C-151.14535156 106.31567383 -151.80535156 106.31567383 -152.48535156 106.31567383 C-153.61649229 84.37154365 -146.94950232 67.10338294 -132.48535156 50.31567383 C-131.96714844 49.6530957 -131.44894531 48.99051758 -130.91503906 48.30786133 C-111.3983786 24.08366467 -77.81289756 11.4532426 -48.48535156 4.56567383 C-47.65696777 4.36699707 -46.82858398 4.16832031 -45.97509766 3.96362305 C-30.80280076 0.57619805 -15.48717946 -0.03540077 0 0 Z " fill="#3A4B50" transform="translate(228.4853515625,136.684326171875)"/>
<path d="M0 0 C0.99 0.66 1.98 1.32 3 2 C2.31715439 2.19299179 1.63430878 2.38598358 0.93077087 2.58482361 C-7.03486389 4.83640003 -15.00006279 7.08951472 -22.96492386 9.34382629 C-24.35996292 9.73866203 -25.75501039 10.13346808 -27.15006638 10.52824402 C-44.32329337 15.38813658 -61.48728103 20.27462668 -78.61572266 25.29052734 C-88.03232531 28.03720907 -97.49201314 30.58969505 -107 33 C-106.34 35.97 -105.68 38.94 -105 42 C-106.9570868 42.67031719 -108.91571113 43.33614683 -110.875 44 C-111.96554688 44.37125 -113.05609375 44.7425 -114.1796875 45.125 C-117 46 -117 46 -119 46 C-120.50576582 41.48270255 -121.13905625 38.611983 -120 34 C-104.40763186 29.27158879 -88.80904552 24.56394574 -73.20662498 19.86882114 C-68.96138354 18.59111083 -64.71679877 17.31124111 -60.47258377 16.03012562 C-53.10155954 13.80526842 -45.7286555 11.58683221 -38.35252762 9.37894917 C-34.7536065 8.30151691 -31.155652 7.22107595 -27.55981445 6.13339233 C-24.1547466 5.10356251 -20.74730711 4.0820021 -17.33787918 3.0667038 C-15.47141418 2.50857135 -13.60754217 1.94179081 -11.7437439 1.37481689 C-10.63189728 1.04544128 -9.52005066 0.71606567 -8.37451172 0.37670898 C-7.40407928 0.08521469 -6.43364685 -0.2062796 -5.43380737 -0.50660706 C-3 -1 -3 -1 0 0 Z " fill="#92613B" transform="translate(354,190)"/>
<path d="M0 0 C4.0311783 1.3437261 4.80130597 3.45371931 7 7 C7.99 8.485 7.99 8.485 9 10 C9.85102414 11.79473408 10.6585813 13.61031688 11.4375 15.4375 C12.05431641 16.85869141 12.05431641 16.85869141 12.68359375 18.30859375 C16.16798254 28.07935756 17.46254419 37.01594927 17.3125 47.375 C17.31733398 49.07849609 17.31733398 49.07849609 17.32226562 50.81640625 C17.25425627 61.36403833 17.25425627 61.36403833 15 66 C14.01 66.495 14.01 66.495 13 67 C11.94647157 69.30965848 10.94280904 71.6429774 10 74 C9.01 73.67 8.02 73.34 7 73 C7.25394531 72.48953125 7.50789063 71.9790625 7.76953125 71.453125 C15.319539 55.50479402 16.21762178 38.7528241 10.76269531 22.05273438 C8.42704883 15.7665258 5.19016479 9.88316105 2 4 C1.32656524 2.67007224 0.65582696 1.33869833 0 0 Z " fill="#445154" transform="translate(390,182)"/>
<path d="M0 0 C0.66 3.3 1.32 6.6 2 10 C0.0429132 10.67031719 -1.91571113 11.33614683 -3.875 12 C-4.96554688 12.37125 -6.05609375 12.7425 -7.1796875 13.125 C-10 14 -10 14 -12 14 C-13.50576582 9.48270255 -14.13905625 6.611983 -13 2 C-11.39935157 1.46845258 -9.79431126 0.95011647 -8.1875 0.4375 C-7.29417969 0.14746094 -6.40085938 -0.14257812 -5.48046875 -0.44140625 C-3 -1 -3 -1 0 0 Z " fill="#985526" transform="translate(247,222)"/>
<path d="M0 0 C0.66 0.33 1.32 0.66 2 1 C1.175 1.845625 0.35 2.69125 -0.5 3.5625 C-2.70488995 6.20462025 -3.00045348 7.00375743 -3.4375 10.625 C-3.05509759 14.69862601 -3.05509759 14.69862601 -1 18 C3.66064791 19.09662304 8.22837274 19.09738015 13 19 C10.15874539 21.34434078 7.77341298 22.57166368 4.2265625 23.53515625 C3.3190625 23.78716797 2.4115625 24.03917969 1.4765625 24.29882812 C0.53554688 24.55083984 -0.40546875 24.80285156 -1.375 25.0625 C-3.23728999 25.57308641 -5.09927769 26.08477688 -6.9609375 26.59765625 C-7.83202148 26.83629395 -8.70310547 27.07493164 -9.60058594 27.32080078 C-12.43322471 28.12263239 -15.22109145 29.02877611 -18 30 C-13.56338028 25.29449424 -13.56338028 25.29449424 -11.109375 24.01171875 C-8.89615577 22.84662976 -7.53103724 21.99738766 -6 20 C-5.7370133 16.67760141 -5.94481379 13.50784632 -6.15234375 10.18359375 C-5.94393244 5.82833182 -4.37773341 4.00463866 -1.3125 1.07421875 C-0.6628125 0.54248047 -0.6628125 0.54248047 0 0 Z " fill="#E0E0E0" transform="translate(306,68)"/>
<path d="M0 0 C0.99 0.66 1.98 1.32 3 2 C-2.90456857 3.73996976 -8.81273008 5.46691848 -14.72460938 7.18188477 C-16.73541796 7.76718065 -18.74519635 8.35602792 -20.75390625 8.94848633 C-23.64059497 9.79923229 -26.53074183 10.63715754 -29.421875 11.47265625 C-30.76895538 11.87412621 -30.76895538 11.87412621 -32.14324951 12.28370667 C-32.98381897 12.52403122 -33.82438843 12.76435577 -34.69042969 13.01196289 C-35.42767273 13.22736221 -36.16491577 13.44276154 -36.92449951 13.66468811 C-39.25064364 14.04049327 -40.77645802 13.72173954 -43 13 C-41.02 12.67 -39.04 12.34 -37 12 C-36.67 11.01 -36.34 10.02 -36 9 C-33.58175529 8.0043195 -31.28864682 7.21379562 -28.7890625 6.484375 C-28.06512299 6.26428772 -27.34118347 6.04420044 -26.5953064 5.81744385 C-25.06206601 5.35444409 -23.52696988 4.89755266 -21.99023438 4.44628906 C-19.63684318 3.75348645 -17.29105944 3.03851894 -14.9453125 2.3203125 C-13.45613041 1.87366001 -11.96655875 1.42830395 -10.4765625 0.984375 C-9.77334869 0.76988708 -9.07013489 0.55539917 -8.34561157 0.33441162 C-3.34626655 -1.11542218 -3.34626655 -1.11542218 0 0 Z " fill="#996138" transform="translate(354,190)"/>
<path d="M0 0 C-1.55918931 1.83171937 -2.51081067 2.88471052 -4.88745117 3.44482422 C-5.59877197 3.4810791 -6.31009277 3.51733398 -7.04296875 3.5546875 C-7.85805908 3.60947266 -8.67314941 3.66425781 -9.51293945 3.72070312 C-10.39554443 3.77162109 -11.27814941 3.82253906 -12.1875 3.875 C-25.87235592 4.904461 -39.36357653 7.5721653 -52.57421875 11.28125 C-53.70472656 11.5184375 -54.83523437 11.755625 -56 12 C-56.66 11.34 -57.32 10.68 -58 10 C-39.02148234 4.3706612 -19.93283964 -0.39865679 0 0 Z " fill="#48565B" transform="translate(217,137)"/>
<path d="M0 0 C0.66 0 1.32 0 2 0 C-3.97999513 15.99434104 -19.20272744 32.49156828 -34 41 C-34.66 41 -35.32 41 -36 41 C-34.6993606 37.09808181 -32.2645395 35.74893285 -29.0625 33.4375 C-17.44821433 24.73316372 -8.51380361 14.77146491 -1.37109375 2.11328125 C-0.91863281 1.41589844 -0.46617187 0.71851563 0 0 Z " fill="#37484D" transform="translate(397,256)"/>
<path d="M0 0 C0.33 0 0.66 0 1 0 C1.185625 1.0725 1.37125 2.145 1.5625 3.25 C2.5463314 6.65557023 3.03725258 7.02756691 6.125 9.3125 C9.94484278 11.1862334 13.84939808 12.12618907 18 13 C17.67 13.66 17.34 14.32 17 15 C11.5610835 15.21755666 7.12919186 15.10428384 2 13 C1.01 15.97 0.02 18.94 -1 22 C-1.33 22 -1.66 22 -2 22 C-2.09031213 16.85220839 -1.83417401 12.09773007 -1 7 C-0.814375 5.700625 -0.62875 4.40125 -0.4375 3.0625 C-0.293125 2.051875 -0.14875 1.04125 0 0 Z " fill="#E0E0E0" transform="translate(284,103)"/>
<path d="M0 0 C0.33 0 0.66 0 1 0 C1.02476266 5.46264314 1.04288974 10.92525343 1.05493164 16.38793945 C1.05995303 18.24536712 1.06677141 20.10279085 1.07543945 21.96020508 C1.08760117 24.63363621 1.09325033 27.30701496 1.09765625 29.98046875 C1.10281754 30.80773972 1.10797882 31.63501068 1.11329651 32.48735046 C1.1136812 36.4622534 0.98980119 40.11956833 0 44 C-0.66 44 -1.32 44 -2 44 C-1.88207974 37.89430893 -1.75785627 31.78879181 -1.62768555 25.68334961 C-1.58426666 23.60460943 -1.54259688 21.52583197 -1.50268555 19.44702148 C-1.44515079 16.46586855 -1.38140881 13.48490451 -1.31640625 10.50390625 C-1.29969376 9.56849503 -1.28298126 8.6330838 -1.26576233 7.66932678 C-1.24581711 6.80850998 -1.22587189 5.94769318 -1.20532227 5.06079102 C-1.18977798 4.29912125 -1.1742337 3.53745148 -1.15821838 2.75270081 C-1 1 -1 1 0 0 Z " fill="#36474C" transform="translate(405,247)"/>
<path d="M0 0 C3.12304734 2.92915527 5.48990091 5.96858351 7.8125 9.5625 C8.43769531 10.51253906 9.06289063 11.46257812 9.70703125 12.44140625 C10.13371094 13.28574219 10.56039063 14.13007813 11 15 C10.67 15.99 10.34 16.98 10 18 C8.35 18.33 6.7 18.66 5 19 C2.73383385 12.74538144 1.16204993 6.54849313 0 0 Z " fill="#95C0EF" transform="translate(260,272)"/>
<path d="M0 0 C-0.68400879 0.19110352 -1.36801758 0.38220703 -2.07275391 0.57910156 C-20.55014429 5.74088306 -20.55014429 5.74088306 -39 11 C-39 10.01 -39 9.02 -39 8 C-31.94465801 5.68934746 -25.03991967 3.68880478 -17.70703125 2.5078125 C-13.85550634 1.78530422 -10.14951581 0.65029136 -6.41015625 -0.51171875 C-3.82603992 -1.03524313 -2.48875783 -0.71393674 0 0 Z " fill="#75685B" transform="translate(286,212)"/>
<path d="M0 0 C-20.47578422 10.84328652 -20.47578422 10.84328652 -31 13 C-31.99 12.34 -32.98 11.68 -34 11 C-32.85144531 10.63648438 -31.70289063 10.27296875 -30.51953125 9.8984375 C-21.85268261 7.10741845 -13.63169139 4.14565117 -5.50390625 0.00390625 C-3 -1 -3 -1 0 0 Z " fill="#38484E" transform="translate(349,355)"/>
<path d="M0 0 C-3.67201314 2.44800876 -7.23580454 3.44921696 -11.4375 4.6875 C-12.5831543 5.04424805 -12.5831543 5.04424805 -13.75195312 5.40820312 C-14.49251953 5.62798828 -15.23308594 5.84777344 -15.99609375 6.07421875 C-16.66825928 6.27619873 -17.3404248 6.47817871 -18.03295898 6.6862793 C-20.29961285 7.04778485 -21.83044526 6.6917026 -24 6 C-22.02 5.67 -20.04 5.34 -18 5 C-17.67 4.01 -17.34 3.02 -17 2 C-11.32416361 -0.74005895 -6.07582847 -1.4529155 0 0 Z " fill="#926A4C" transform="translate(335,197)"/>
<path d="M0 0 C-2.98765781 1.36242729 -5.98942696 2.68901952 -9 4 C-9.71542969 4.3196875 -10.43085938 4.639375 -11.16796875 4.96875 C-15.5278025 6.79026662 -18.42706963 7.25755585 -23 6 C-19.32533812 4.00330873 -15.44657508 2.65740083 -11.5 1.3125 C-10.83613281 1.07466797 -10.17226563 0.83683594 -9.48828125 0.59179688 C-3.46442227 -1.45823897 -3.46442227 -1.45823897 0 0 Z " fill="#3E4D51" transform="translate(334,312)"/>
<path d="M0 0 C2 3 2 3 2 5 C3.65 5 5.3 5 7 5 C7 5.33 7 5.66 7 6 C5.35 6 3.7 6 2 6 C1.731875 6.598125 1.46375 7.19625 1.1875 7.8125 C0.01506533 9.97224808 -1.19369282 11.35790256 -3 13 C-3.66 12.67 -4.32 12.34 -5 12 C-3.35 8.04 -1.7 4.08 0 0 Z " fill="#E3DFD4" transform="translate(346,89)"/>
<path d="M0 0 C6.64409958 -0.21432579 12.53205867 0.48766299 19 2 C18.67 2.66 18.34 3.32 18 4 C15.18596699 3.71949194 12.37432747 3.42618696 9.5625 3.125 C8.76005859 3.04636719 7.95761719 2.96773437 7.13085938 2.88671875 C5.07829006 2.66154237 3.03706991 2.33777413 1 2 C0.67 1.34 0.34 0.68 0 0 Z " fill="#3A4B52" transform="translate(258,139)"/>
<path d="M0 0 C-1.11328125 1.48828125 -1.11328125 1.48828125 -3 3 C-5.91796875 3.29296875 -5.91796875 3.29296875 -9.1875 3.1875 C-10.27417969 3.16042969 -11.36085937 3.13335937 -12.48046875 3.10546875 C-13.72763672 3.05326172 -13.72763672 3.05326172 -15 3 C-15 2.34 -15 1.68 -15 1 C-9.91913204 0.15318867 -5.15171623 -0.09038099 0 0 Z " fill="#495A61" transform="translate(217,137)"/>
<path d="M0 0 C-1 3 -1 3 -3.50390625 4.38671875 C-4.51324219 4.81597656 -5.52257812 5.24523437 -6.5625 5.6875 C-7.57441406 6.12449219 -8.58632812 6.56148437 -9.62890625 7.01171875 C-10.41136719 7.33785156 -11.19382813 7.66398438 -12 8 C-12 7.01 -12 6.02 -12 5 C-10.37750059 4.16180842 -8.75191503 3.3295884 -7.125 2.5 C-6.22007812 2.0359375 -5.31515625 1.571875 -4.3828125 1.09375 C-2 0 -2 0 0 0 Z " fill="#445459" transform="translate(143,154)"/>
<path d="M0 0 C1.01562016 3.17744022 0.96666643 5.37828389 0.25 8.625 C0.01023437 9.78902344 0.01023437 9.78902344 -0.234375 10.9765625 C-1 13 -1 13 -4 15 C-3.50341703 9.33895411 -2.45489316 5.12325529 0 0 Z " fill="#4A595D" transform="translate(80,214)"/>
<path d="M0 0 C1.86351199 2.79526798 2.34308907 3.84045627 2.75 7 C2.84796875 7.680625 2.9459375 8.36125 3.046875 9.0625 C3 11 3 11 1 14 C0.63659714 12.23103898 0.28459117 10.45973374 -0.0625 8.6875 C-0.25972656 7.70136719 -0.45695312 6.71523437 -0.66015625 5.69921875 C-1 3 -1 3 0 0 Z " fill="#525E61" transform="translate(403,204)"/>
<path d="M0 0 C3 1 3 1 6 3 C-1.42857143 5.42857143 -1.42857143 5.42857143 -5 4 C-4.01 4 -3.02 4 -2 4 C-1.34 2.68 -0.68 1.36 0 0 Z " fill="#94735A" transform="translate(351,189)"/>
<path d="M0 0 C0 0.66 0 1.32 0 2 C-2.75924185 3.80411967 -3.88972103 4.0127245 -7.25 3.625 C-8.1575 3.41875 -9.065 3.2125 -10 3 C-6.59538535 1.23899242 -3.90650339 0 0 0 Z " fill="#4A5A60" transform="translate(321,315)"/>
<path d="M0 0 C2 1 2 1 3 3 C1.02 3.66 -0.96 4.32 -3 5 C-1.125 1.125 -1.125 1.125 0 0 Z " fill="#EDAF51" transform="translate(229,185)"/>
<path d="M0 0 C2.97 0.495 2.97 0.495 6 1 C2.55549263 3.29633824 0.06187717 3.54016485 -4 4 C-3.01 3.67 -2.02 3.34 -1 3 C-0.67 2.01 -0.34 1.02 0 0 Z " fill="#8B7565" transform="translate(329,196)"/>
<path d="M0 0 C-1.15173355 2.46800047 -2.04783565 4.04783565 -4 6 C-4.99 5.67 -5.98 5.34 -7 5 C-2.25 0 -2.25 0 0 0 Z " fill="#4B595C" transform="translate(105,179)"/>
</svg>
