<?xml version="1.0" encoding="UTF-8"?>
<svg version="1.1" xmlns="http://www.w3.org/2000/svg" width="500" height="500">
<path d="M0 0 C2.70164578 2.40710545 4.87223311 5.08096979 7 8 C7.51949219 7.72285156 8.03898437 7.44570312 8.57421875 7.16015625 C16.40622 3.09214821 16.40622 3.09214821 20 3 C23.60462715 4.28300288 26.28294264 5.28294264 29 8 C29.40047444 10.32275177 29.7397104 12.65739357 30 15 C30.66 14.67 31.32 14.34 32 14 C36.88481921 12.37172693 41.1167498 12.18119556 45.875 14.25 C48.14691581 16.12098949 49.0987458 17.21430521 50 20 C50.125 22.75 50.125 22.75 50 25 C51.175625 24.484375 52.35125 23.96875 53.5625 23.4375 C57.76576053 21.88815 60.61460887 21.70062485 65 23 C68.4375 25 68.4375 25 71 28 C71.83081496 32.05849432 71.61976917 35.61397077 69.92578125 39.40234375 C68.76228205 42.6670145 69.10387401 44.65594546 69.6875 48.0625 C69.88601563 49.28710938 70.08453125 50.51171875 70.2890625 51.7734375 C70.45970215 52.78035645 70.45970215 52.78035645 70.63378906 53.80761719 C71.32191287 57.92718506 71.93987627 62.05760905 72.5625 66.1875 C72.69269531 67.05044678 72.82289063 67.91339355 72.95703125 68.80249023 C77.2552831 97.67444611 77.2552831 97.67444611 71.5625 108.8125 C67.52801679 112.25657103 63.01656169 113.43232447 58 115 C56.37465123 115.52626782 54.74967864 116.05369825 53.125 116.58203125 C49.74107927 117.67296975 46.35644205 118.76127132 42.96484375 119.828125 C42.2493335 120.0540332 41.53382324 120.27994141 40.79663086 120.51269531 C39 121 39 121 37 121 C37 121.66 37 122.32 37 123 C36.34 123.33 35.68 123.66 35 124 C36.4134988 128.47607954 38.12836776 132.7479697 40 137.046875 C42.79481229 145.30030505 43.29302484 153.27802834 43.1875 161.9375 C43.17348145 163.69151123 43.17348145 163.69151123 43.15917969 165.48095703 C43.13283939 168.1335603 43.10109671 170.78558924 43.06201172 173.43798828 C43.01443403 176.71758643 42.98216448 179.99700537 42.95751953 183.27685547 C42.92079065 188.02576123 42.86167221 192.77399757 42.78945923 197.52249146 C42.76345243 199.40252326 42.74343241 201.28264882 42.72982788 203.16281128 C42.61366764 217.56362898 41.07337396 230.1868883 34.3125 243.1875 C33.79768066 244.19055176 33.79768066 244.19055176 33.27246094 245.21386719 C29.93489017 251.48801784 25.84582634 256.80091215 21 262 C20.55672363 262.4842041 20.11344727 262.9684082 19.65673828 263.46728516 C1.4074477 283.25375929 -24.65854892 298.152532 -51 304 C-51.99 304 -52.98 304 -54 304 C-56.27862711 301.516241 -58.05645631 298.76415103 -60 296 C-60.33 302.27 -60.66 308.54 -61 315 C-80.68608411 319.92152103 -99.49729254 322.55078435 -119.8125 322.375 C-120.77655762 322.37034729 -121.74061523 322.36569458 -122.73388672 322.36090088 C-137.02914271 322.28014842 -150.93727564 321.74144262 -165 319 C-166.0430127 318.81195801 -167.08602539 318.62391602 -168.16064453 318.43017578 C-206.16662056 311.51749862 -249.68330415 298.97830225 -274.125 266.84765625 C-278.05973723 260.87177409 -281.16272394 254.55883375 -284 248 C-284.44730469 246.97003906 -284.89460938 245.94007813 -285.35546875 244.87890625 C-289.5816551 232.90216875 -288.85736795 219.74040387 -288.97784424 207.20037842 C-289.0011189 204.88887726 -289.0312101 202.57752572 -289.06201172 200.26611328 C-289.11420498 196.15370017 -289.1497875 192.04141687 -289.17321777 187.92874146 C-289.18260776 186.33194284 -289.1944976 184.73515661 -289.20910645 183.13839722 C-289.41240247 157.65537553 -283.21206084 137.13468466 -266 118 C-265.37609375 117.30519531 -264.7521875 116.61039062 -264.109375 115.89453125 C-240.54943875 91.09720339 -206.01812195 78.63149551 -173 73 C-171.9574707 72.81896729 -170.91494141 72.63793457 -169.84082031 72.45141602 C-158.1009732 70.65078895 -146.41916425 70.65495068 -134.5625 70.6875 C-133.50083618 70.68633179 -132.43917236 70.68516357 -131.34533691 70.68395996 C-118.24136014 70.6785142 -105.36542273 70.82279123 -92.44750977 73.28393555 C-89.72479986 73.82339968 -89.72479986 73.82339968 -86 74 C-83.5171141 72.22847806 -83.5171141 72.22847806 -82 70 C-81.34 70 -80.68 70 -80 70 C-80.65585189 66.39007621 -80.65585189 66.39007621 -82 63 C-83.18785407 39.27785547 -83.18785407 39.27785547 -77 32 C-73.24845307 28.29594101 -69.38850392 24.92566928 -65 22 C-64.74909046 19.7612677 -64.74909046 19.7612677 -65 17.25 C-65.16909997 11.06450118 -63.56745255 7.80257044 -59.5 3.125 C-57 1 -57 1 -54 1 C-53.67 3.31 -53.34 5.62 -53 8 C-46.62671351 9.6688345 -40.22712053 10.98819359 -33.75 12.1875 C-32.28046875 12.47270508 -32.28046875 12.47270508 -30.78125 12.76367188 C-29.83765625 12.93833984 -28.8940625 13.11300781 -27.921875 13.29296875 C-27.07206055 13.4530542 -26.22224609 13.61313965 -25.34667969 13.77807617 C-22.90702302 14.00879277 -21.28719454 13.86229135 -19 13 C-17.78923992 11.05739377 -17.78923992 11.05739377 -17 8.6875 C-15.51044724 5.01326987 -14.20697589 2.48282004 -11 0 C-7.09255824 -1.30248059 -3.84685927 -1.41800287 0 0 Z " fill="#F7931F" transform="translate(364,66)"/>
<path d="M0 0 C0.33 2.31 0.66 4.62 1 7 C7.37328649 8.6688345 13.77287947 9.98819359 20.25 11.1875 C21.2296875 11.37763672 22.209375 11.56777344 23.21875 11.76367188 C24.16234375 11.93833984 25.1059375 12.11300781 26.078125 12.29296875 C26.92793945 12.4530542 27.77775391 12.61313965 28.65332031 12.77807617 C31.10716458 13.01013448 32.71209858 12.9101759 35 12 C36.29660434 9.50965614 36.29660434 9.50965614 37 7 C37.33 7 37.66 7 38 7 C38 8.65 38 10.3 38 12 C38.55170868 12.17795105 39.10341736 12.3559021 39.67184448 12.53924561 C45.01238916 14.28685927 50.23986762 16.21442686 55.4453125 18.328125 C56.21825653 18.64021912 56.99120056 18.95231323 57.78756714 19.27386475 C59.41330864 19.93133509 61.0384757 20.59022753 62.66308594 21.25048828 C65.09633375 22.2383618 67.5323877 23.219056 69.96875 24.19921875 C82.29002851 29.17955519 94.50289597 34.2910759 106 41 C106 41.66 106 42.32 106 43 C101.39296118 45.02231055 96.78357609 47.03912543 92.171875 49.05078125 C90.21708086 49.90512473 88.2646035 50.76453333 86.3125 51.625 C80.7837042 54.03756544 75.27006996 56.29507185 69.5625 58.25 C62.27118995 60.79423639 55.25040626 63.8709645 48.18530273 66.98193359 C39.88733967 70.63252374 31.53614316 74.14120106 23.15673828 77.6003418 C18.87562151 79.37093623 14.6106362 81.15900804 10.38671875 83.0625 C5.88151787 85.08300825 1.30083165 86.86828062 -3.3125 88.625 C-4.87179931 89.21950689 -6.43041866 89.81580091 -7.98828125 90.4140625 C-8.66415283 90.6713916 -9.34002441 90.9287207 -10.03637695 91.19384766 C-12.04819384 91.98163832 -12.04819384 91.98163832 -14.06323242 93.09912109 C-16 94 -16 94 -19 94 C-19 94.66 -19 95.32 -19 96 C-19.82242188 96.31453125 -20.64484375 96.6290625 -21.4921875 96.953125 C-32.48855918 101.16882407 -43.40991397 105.42250722 -54.06640625 110.4453125 C-60.17170625 113.31415477 -66.24702944 115.90175297 -72.6171875 118.12109375 C-75.52926569 119.19522095 -78.24079374 120.58502243 -81 122 C-81.66 122 -82.32 122 -83 122 C-83 122.99 -83 123.98 -83 125 C-82.34 125 -81.68 125 -81 125 C-80.91363281 126.3096875 -80.82726562 127.619375 -80.73828125 128.96875 C-78.87356165 158.08781731 -78.87356165 158.08781731 -65.49462891 183.13476562 C-61.85288933 187.67950434 -58.77631535 192.67238768 -55.5546875 197.51879883 C-52.66138354 201.79907589 -49.68806752 205.36045968 -46 209 C-44.54850106 211.10857824 -43.15538794 213.25814152 -41.8125 215.4375 C-38.75651268 220.31014477 -35.60987738 225.08128195 -32.25 229.75 C-31.84612061 230.31138672 -31.44224121 230.87277344 -31.02612305 231.45117188 C-29.14308656 234.05806282 -27.24990817 236.65747008 -25.35449219 239.25537109 C-24.18921622 240.85263105 -23.0251677 242.45078716 -21.86230469 244.04980469 C-20.73355534 245.60112124 -19.60157077 247.15009082 -18.46582031 248.69628906 C-15.33414731 252.99871705 -12.54873214 257.32732442 -10 262 C-15.21365514 264.23092962 -20.37307705 265.11159471 -25.9375 266.0625 C-26.89462891 266.23587891 -27.85175781 266.40925781 -28.83789062 266.58789062 C-84.1555535 276.18118631 -149.59168492 265.69309834 -197 235 C-215.18856809 221.9165783 -226.06964298 205.11706174 -231.60546875 183.65234375 C-234.82715709 161.99366671 -229.36332781 143.35690336 -216.625 125.75 C-191.51391552 93.53679062 -151.20590679 78.62379976 -111.89575195 73.1796875 C-88.65511506 70.38022336 -64.51578848 70.91726712 -41.38574219 74.39282227 C-40.49790039 74.51069092 -39.61005859 74.62855957 -38.6953125 74.75 C-37.88336426 74.86730469 -37.07141602 74.98460937 -36.23486328 75.10546875 C-33.34665389 74.96916697 -32.47835363 74.11811903 -30.5 72.0625 C-29.675 71.051875 -28.85 70.04125 -28 69 C-27.34 69 -26.68 69 -26 69 C-26.65585189 65.39007621 -26.65585189 65.39007621 -28 62 C-29.18785407 38.27785547 -29.18785407 38.27785547 -23 31 C-19.24845307 27.29594101 -15.38850392 23.92566928 -11 21 C-10.74909046 18.7612677 -10.74909046 18.7612677 -11 16.25 C-11.16909997 10.06450118 -9.56745255 6.80257044 -5.5 2.125 C-3 0 -3 0 0 0 Z " fill="#9FCCFD" transform="translate(310,67)"/>
<path d="M0 0 C3.10217004 0.00314401 6.20336802 -0.02032641 9.30541992 -0.0456543 C22.95109115 -0.08663229 36.10874673 1.08484918 49.5690918 3.31567383 C49.5690918 4.30567383 49.5690918 5.29567383 49.5690918 6.31567383 C48.84882813 6.22479492 48.12856445 6.13391602 47.38647461 6.0402832 C-7.79874784 -0.70861512 -66.39992487 2.13478994 -112.4309082 36.94067383 C-113.7773394 38.0499645 -115.11054602 39.17547802 -116.4309082 40.31567383 C-117.24688477 41.00016602 -118.06286133 41.6846582 -118.90356445 42.38989258 C-133.0581968 54.62308162 -145.65415771 72.16084319 -147.4309082 91.31567383 C-148.92570584 114.65260345 -142.96925063 134.31581181 -127.4309082 152.31567383 C-97.71130827 183.64718426 -40.69279444 197.32310128 0.81420898 198.4519043 C5.44082788 198.54573368 10.06661353 198.56976775 14.6940918 198.56567383 C15.79944275 198.56478256 15.79944275 198.56478256 16.92712402 198.56387329 C31.51517292 198.51886353 45.60499519 197.57203808 59.9440918 194.75317383 C61.16870117 194.51920898 62.39331055 194.28524414 63.6550293 194.04418945 C66.62784254 193.47517442 69.59904968 192.89894871 72.5690918 192.31567383 C69.45996577 186.55803304 65.80944458 181.41619157 61.8815918 176.19067383 C55.24565689 167.26568821 48.73412194 158.29854127 42.75268555 148.91723633 C42.26566162 148.15491699 41.7786377 147.39259766 41.27685547 146.60717773 C40.33167076 145.1214126 39.39263189 143.63171278 38.4609375 142.13745117 C35.8410783 138.00585385 33.06452839 134.76741746 29.5690918 131.31567383 C27.71196936 128.88680171 26.01554158 126.35851384 24.3190918 123.81567383 C23.3614546 122.39332989 22.40310984 120.9714621 21.4440918 119.55004883 C20.72866211 118.48753906 20.72866211 118.48753906 19.9987793 117.40356445 C18.63789991 115.41616 17.24013533 113.4634928 15.8190918 111.51879883 C15.39660156 110.93420898 14.97411133 110.34961914 14.53881836 109.74731445 C13.38423091 108.15548131 12.21915217 106.57127309 11.0534668 104.98754883 C9.5690918 102.31567383 9.5690918 102.31567383 10.5690918 98.31567383 C14.1990918 97.32567383 17.8290918 96.33567383 21.5690918 95.31567383 C20.5790918 90.86067383 20.5790918 90.86067383 19.5690918 86.31567383 C23.0645165 87.4808154 23.40905963 88.17539833 25.3190918 91.19067383 C25.83882568 92.00157471 26.35855957 92.81247559 26.89404297 93.64794922 C27.44680908 94.52829834 27.9995752 95.40864746 28.5690918 96.31567383 C29.15086182 97.22631592 29.73263184 98.13695801 30.33203125 99.07519531 C31.52451543 100.94216665 32.71372481 102.8112337 33.8996582 104.68237305 C36.16733345 108.25931736 38.45743381 111.82140626 40.7565918 115.37817383 C41.18464111 116.04075195 41.61269043 116.70333008 42.05371094 117.38598633 C53.2074292 134.59491978 64.56398991 151.68717303 76.5690918 168.31567383 C77.19992676 169.1898999 77.19992676 169.1898999 77.84350586 170.08178711 C80.07409407 173.16805227 82.31519356 176.24639476 84.5690918 179.31567383 C90.23922876 178.7207989 95.17873851 177.25255397 100.5065918 175.25317383 C101.33489502 174.94371826 102.16319824 174.6342627 103.01660156 174.31542969 C132.94292108 162.86871981 158.71591338 143.63197158 172.70727539 114.2668457 C179.65184849 98.54417482 179.49787432 81.27252513 173.5690918 65.31567383 C171.20886679 59.82234184 168.41712511 54.5678911 165.5690918 49.31567383 C164.89565704 47.98574607 164.22491876 46.65437216 163.5690918 45.31567383 C169.04762659 47.14185209 171.32734917 53.01305865 173.96362305 57.90161133 C179.19289589 68.67612516 181.06166647 79.54184293 180.8190918 91.44067383 C180.79830566 93.17438232 180.79830566 93.17438232 180.77709961 94.94311523 C180.74136096 97.56316286 180.69856031 100.18228943 180.6472168 102.80200195 C180.5685127 106.98877886 180.53314647 111.17534493 180.50054932 115.36270142 C180.46664759 119.18707008 180.41404849 123.01104893 180.35754395 126.83514404 C180.33221039 128.71646236 180.31261879 130.59786809 180.29919434 132.47930908 C180.18287305 146.87969149 178.64223476 159.50300633 171.8815918 172.50317383 C171.36677246 173.50622559 171.36677246 173.50622559 170.84155273 174.52954102 C167.50398197 180.80369166 163.41491814 186.11658598 158.5690918 191.31567383 C158.12581543 191.79987793 157.68253906 192.28408203 157.22583008 192.78295898 C138.97653949 212.56943311 112.91054288 227.46820583 86.5690918 233.31567383 C85.5790918 233.31567383 84.5890918 233.31567383 83.5690918 233.31567383 C81.29046468 230.83191483 79.51263549 228.07982486 77.5690918 225.31567383 C77.2390918 231.58567383 76.9090918 237.85567383 76.5690918 244.31567383 C56.88300769 249.23719485 38.07179926 251.86645817 17.7565918 251.69067383 C16.79253418 251.68602112 15.82847656 251.68136841 14.83520508 251.67657471 C0.53994909 251.59582225 -13.36818384 251.05711644 -27.4309082 248.31567383 C-28.4739209 248.12763184 -29.51693359 247.93958984 -30.59155273 247.74584961 C-68.59752876 240.83317245 -112.11421235 228.29397608 -136.5559082 196.16333008 C-140.49064543 190.18744792 -143.59363214 183.87450758 -146.4309082 177.31567383 C-146.87821289 176.28571289 -147.32551758 175.25575195 -147.78637695 174.19458008 C-152.01256331 162.21784258 -151.28827616 149.0560777 -151.40875244 136.51605225 C-151.43202711 134.20455109 -151.4621183 131.89319955 -151.49291992 129.58178711 C-151.54511318 125.469374 -151.5806957 121.3570907 -151.60412598 117.24441528 C-151.61351596 115.64761667 -151.6254058 114.05083044 -151.64001465 112.45407104 C-151.84331067 86.97104936 -145.64296904 66.45035849 -128.4309082 47.31567383 C-127.80700195 46.62086914 -127.1830957 45.92606445 -126.5402832 45.21020508 C-102.98001129 20.41252393 -68.44920916 7.94793038 -35.4309082 2.31567383 C-34.3898291 2.13464111 -33.34875 1.9536084 -32.27612305 1.76708984 C-21.52487129 0.1163942 -10.86355972 -0.02292069 0 0 Z " fill="#29383B" transform="translate(226.430908203125,136.684326171875)"/>
<path d="M0 0 C2.45259446 3.04849337 4.17487036 6.5473063 6 10 C6.45890625 10.86367187 6.9178125 11.72734375 7.390625 12.6171875 C15.0351471 28.13648838 16.40438383 45.62671133 11.453125 62.13671875 C7.20722559 74.05908124 0.58767772 84.73935265 -8 94 C-8.74636719 94.82628906 -9.49273437 95.65257812 -10.26171875 96.50390625 C-26.14383309 113.27856917 -46.2774963 123.65084291 -67.81347656 131.22607422 C-69.65630269 131.87834743 -71.48275103 132.5766254 -73.3046875 133.28515625 C-76.56250615 134.14918641 -77.89738281 134.3837964 -81 133 C-83.27798324 130.60131825 -85.08446857 127.9208781 -86.9375 125.1875 C-87.49743652 124.38578369 -88.05737305 123.58406738 -88.63427734 122.75805664 C-89.82533066 121.05043971 -91.01039577 119.33863297 -92.18994141 117.62304688 C-93.9644769 115.05147831 -95.76425776 112.49985358 -97.57421875 109.953125 C-104.52992862 100.14599425 -111.22055153 90.20200486 -117.68212891 80.06347656 C-119.89749557 76.59473276 -122.13754324 73.14201717 -124.375 69.6875 C-124.81585938 69.00461914 -125.25671875 68.32173828 -125.7109375 67.61816406 C-128.31644677 63.58485064 -130.94112507 59.56492639 -133.58203125 55.5546875 C-134.18160645 54.64114502 -134.78118164 53.72760254 -135.39892578 52.78637695 C-136.57454419 50.99599003 -137.75380326 49.20798741 -138.93701172 47.42260742 C-139.46697754 46.61412354 -139.99694336 45.80563965 -140.54296875 44.97265625 C-141.2548938 43.89383179 -141.2548938 43.89383179 -141.98120117 42.79321289 C-143 41 -143 41 -143 39 C-92.73567661 24.4255605 -92.73567661 24.4255605 -71.25 18.5 C-61.62981877 15.84566076 -52.01690222 13.17405148 -42.4375 10.375 C-41.51388672 10.10558594 -40.59027344 9.83617187 -39.63867188 9.55859375 C-34.30633758 7.99444236 -28.9885183 6.38730022 -23.67578125 4.7578125 C-22.43965088 4.38221191 -21.20352051 4.00661133 -19.92993164 3.61962891 C-17.52670739 2.88844159 -15.1260067 2.14889332 -12.72827148 1.39990234 C-11.64747314 1.07199707 -10.5666748 0.7440918 -9.453125 0.40625 C-8.49567383 0.11041016 -7.53822266 -0.18542969 -6.55175781 -0.49023438 C-3.89782525 -1.02041149 -2.49297186 -1.00384869 0 0 Z " fill="#EFF6FD" transform="translate(391,183)"/>
<path d="M0 0 C0.495 3.465 0.495 3.465 1 7 C7.37328649 8.6688345 13.77287947 9.98819359 20.25 11.1875 C21.2296875 11.37763672 22.209375 11.56777344 23.21875 11.76367188 C24.16234375 11.93833984 25.1059375 12.11300781 26.078125 12.29296875 C26.92793945 12.4530542 27.77775391 12.61313965 28.65332031 12.77807617 C31.10716458 13.01013448 32.71209858 12.9101759 35 12 C36.29660434 9.50965614 36.29660434 9.50965614 37 7 C37.33 7 37.66 7 38 7 C38 8.65 38 10.3 38 12 C38.55170868 12.17795105 39.10341736 12.3559021 39.67184448 12.53924561 C45.01238916 14.28685927 50.23986762 16.21442686 55.4453125 18.328125 C56.21825653 18.64021912 56.99120056 18.95231323 57.78756714 19.27386475 C59.41330864 19.93133509 61.0384757 20.59022753 62.66308594 21.25048828 C65.09633375 22.2383618 67.5323877 23.219056 69.96875 24.19921875 C82.29002851 29.17955519 94.50289597 34.2910759 106 41 C106 41.66 106 42.32 106 43 C101.39296118 45.02231055 96.78357609 47.03912543 92.171875 49.05078125 C90.21708086 49.90512473 88.2646035 50.76453333 86.3125 51.625 C80.7837042 54.03756544 75.27006996 56.29507185 69.5625 58.25 C62.27118995 60.79423639 55.25040626 63.8709645 48.18530273 66.98193359 C39.88733967 70.63252374 31.53614316 74.14120106 23.15673828 77.6003418 C18.87562151 79.37093623 14.6106362 81.15900804 10.38671875 83.0625 C5.88151787 85.08300825 1.30083165 86.86828062 -3.3125 88.625 C-4.87179931 89.21950689 -6.43041866 89.81580091 -7.98828125 90.4140625 C-8.66415283 90.6713916 -9.34002441 90.9287207 -10.03637695 91.19384766 C-12.04819384 91.98163832 -12.04819384 91.98163832 -14.06323242 93.09912109 C-16 94 -16 94 -19 94 C-19 94.66 -19 95.32 -19 96 C-19.82242188 96.31453125 -20.64484375 96.6290625 -21.4921875 96.953125 C-32.48855918 101.16882407 -43.40991397 105.42250722 -54.06640625 110.4453125 C-60.17170625 113.31415477 -66.24702944 115.90175297 -72.6171875 118.12109375 C-75.52926569 119.19522095 -78.24079374 120.58502243 -81 122 C-81.66 122 -82.32 122 -83 122 C-83 122.99 -83 123.98 -83 125 C-82.34 125 -81.68 125 -81 125 C-80.67 130.28 -80.34 135.56 -80 141 C-82.49505962 138.50494038 -82.35948376 137.32671112 -82.625 133.875 C-82.69976562 132.96492187 -82.77453125 132.05484375 -82.8515625 131.1171875 C-82.92503906 130.06917969 -82.92503906 130.06917969 -83 129 C-83.66 129 -84.32 129 -85 129 C-85.5009225 125.86923435 -85.67430868 123.11297392 -85 120 C-81.93586784 116.52874538 -78.3607652 114.4535884 -74 113 C-74 112.34 -74 111.68 -74 111 C-73.34 111 -72.68 111 -72 111 C-71.7525 110.4225 -71.505 109.845 -71.25 109.25 C-69.17445909 105.51402637 -67.06826056 103.35608685 -63 102 C-61.57908917 100.2674686 -61.57908917 100.2674686 -60.25 98.1875 C-57.27728818 94.02570345 -54.49436418 92.33361217 -50 90 C-49.01 88.515 -49.01 88.515 -48 87 C-47.34 87 -46.68 87 -46 87 C-46 86.34 -46 85.68 -46 85 C-45.01 84.67 -44.02 84.34 -43 84 C-41.98812105 82.34051852 -40.9873454 80.67419438 -40 79 C-39.34 79 -38.68 79 -38 79 C-38 78.34 -38 77.68 -38 77 C-36.01399663 75.6459068 -34.01182457 74.31542376 -32 73 C-31.2575 72.2575 -30.515 71.515 -29.75 70.75 C-29.1725 70.1725 -28.595 69.595 -28 69 C-27.34 69 -26.68 69 -26 69 C-26.65585189 65.39007621 -26.65585189 65.39007621 -28 62 C-29.18785407 38.27785547 -29.18785407 38.27785547 -23 31 C-19.24845307 27.29594101 -15.38850392 23.92566928 -11 21 C-10.74909046 18.7612677 -10.74909046 18.7612677 -11 16.25 C-11.16909997 10.06450118 -9.56745255 6.80257044 -5.5 2.125 C-3 0 -3 0 0 0 Z " fill="#FAAF3C" transform="translate(310,67)"/>
<path d="M0 0 C0.33 0 0.66 0 1 0 C1.04984062 5.22866463 1.08592606 10.45718765 1.10986328 15.68603516 C1.11985378 17.46079928 1.13345081 19.23554723 1.15087891 21.01025391 C1.33297242 40.04438163 1.33297242 40.04438163 -1 48 C-1.309375 49.07507813 -1.61875 50.15015625 -1.9375 51.2578125 C-11.72460465 77.66860226 -31.66595425 94.96438501 -56 108 C-57.11117187 108.6084375 -58.22234375 109.216875 -59.3671875 109.84375 C-68.44852389 114.62560842 -80.56168622 121 -91 121 C-91 105.16 -91 89.32 -91 73 C-87.514375 71.9275 -84.02875 70.855 -80.4375 69.75 C-63.00888323 64.09991191 -45.94584781 56.05734758 -32 44 C-31.505 43.57895996 -31.01 43.15791992 -30.5 42.72412109 C-20.52064789 34.1824194 -11.87311162 24.84818698 -6 13 C-5.54625 12.11699219 -5.0925 11.23398437 -4.625 10.32421875 C-2.04936855 5.27463681 -2.04936855 5.27463681 0 0 Z " fill="#9ECBFC" transform="translate(403,246)"/>
<path d="M0 0 C0.33 2.31 0.66 4.62 1 7 C5.45820199 8.19764716 9.85624413 9.17958021 14.41796875 9.89453125 C15.83432617 10.12172852 15.83432617 10.12172852 17.27929688 10.35351562 C19.22777333 10.66103206 21.17840316 10.95518479 23.13085938 11.23632812 C27.66212433 11.98480986 30.42502687 12.56376417 34.140625 15.3828125 C35.97331252 17.96243569 36.47113898 18.99886052 36.5625 22.0625 C36.83528447 24.18764755 36.83528447 24.18764755 38 26 C41.01057402 27.41751517 43.91788504 28.24532864 47.15234375 29.015625 C50.42108803 30.14556129 51.39848879 30.97188666 53 34 C53.3984375 36.1484375 53.3984375 36.1484375 53.375 38.375 C53.38660156 39.46941406 53.38660156 39.46941406 53.3984375 40.5859375 C52.44220233 46.37959766 49.56092859 49.88951764 45 53.375 C28.48030323 65.15495184 4.40367752 73.41277421 -16 71 C-23.02791104 69.73533735 -23.02791104 69.73533735 -26 68 C-26.69921875 66.015625 -26.69921875 66.015625 -27 64 C-27.33 63.34 -27.66 62.68 -28 62 C-29.18785407 38.27785547 -29.18785407 38.27785547 -23 31 C-19.24845307 27.29594101 -15.38850392 23.92566928 -11 21 C-10.74909046 18.7612677 -10.74909046 18.7612677 -11 16.25 C-11.16909997 10.06450118 -9.56745255 6.80257044 -5.5 2.125 C-3 0 -3 0 0 0 Z " fill="#F6F5F5" transform="translate(310,67)"/>
<path d="M0 0 C2.70164578 2.40710545 4.87223311 5.08096979 7 8 C7.51949219 7.72285156 8.03898438 7.44570312 8.57421875 7.16015625 C16.40622 3.09214821 16.40622 3.09214821 20 3 C23.60462715 4.28300288 26.28294264 5.28294264 29 8 C29.40047444 10.32275177 29.7397104 12.65739357 30 15 C30.66 14.67 31.32 14.34 32 14 C36.88481921 12.37172693 41.1167498 12.18119556 45.875 14.25 C48.14691581 16.12098949 49.0987458 17.21430521 50 20 C50.125 22.75 50.125 22.75 50 25 C51.175625 24.484375 52.35125 23.96875 53.5625 23.4375 C57.76576053 21.88815 60.61460887 21.70062485 65 23 C68.4375 25 68.4375 25 71 28 C71.83081496 32.05849432 71.61976917 35.61397077 69.92578125 39.40234375 C68.76228205 42.6670145 69.10387401 44.65594546 69.6875 48.0625 C69.98527344 49.89941406 69.98527344 49.89941406 70.2890625 51.7734375 C70.40282227 52.4447168 70.51658203 53.11599609 70.63378906 53.80761719 C71.32191287 57.92718506 71.93987627 62.05760905 72.5625 66.1875 C72.69269531 67.05044678 72.82289063 67.91339355 72.95703125 68.80249023 C77.2552831 97.67444611 77.2552831 97.67444611 71.5625 108.8125 C67.52801679 112.25657103 63.01656169 113.43232447 58 115 C56.37465123 115.52626782 54.74967864 116.05369825 53.125 116.58203125 C49.74107927 117.67296975 46.35644205 118.76127132 42.96484375 119.828125 C42.2493335 120.0540332 41.53382324 120.27994141 40.79663086 120.51269531 C39 121 39 121 37 121 C37 121.66 37 122.32 37 123 C35.02 123.99 35.02 123.99 33 125 C31.35 122.36 29.7 119.72 28 117 C21.11670827 117.55648503 14.80642 119.36657399 8.20657349 121.34991455 C4.78112599 122.37862271 1.34933226 123.38576665 -2.08203125 124.39453125 C-2.80354874 124.60708557 -3.52506622 124.81963989 -4.26844788 125.03863525 C-12.63217545 127.49419985 -21.03451757 129.80817992 -29.4375 132.125 C-43.32842282 135.96272969 -57.17937561 139.91548482 -71 144 C-76.17862542 145.5280515 -81.35788439 147.05394962 -86.53729248 148.5793457 C-88.74736594 149.23080068 -90.95696781 149.88383451 -93.16650391 150.53710938 C-94.5549472 150.94683769 -95.94345479 151.35634822 -97.33203125 151.765625 C-97.99549561 151.9613208 -98.65895996 152.1570166 -99.3425293 152.35864258 C-104.22919092 153.79244616 -109.13587998 155.13418071 -114.06518555 156.41308594 C-115.98727302 156.83014002 -115.98727302 156.83014002 -117 158 C-116.8981629 159.91424457 -116.8981629 159.91424457 -116.5625 162.0625 C-116.376875 163.361875 -116.19125 164.66125 -116 166 C-116.77085937 166.26554688 -117.54171875 166.53109375 -118.3359375 166.8046875 C-119.84027344 167.33449219 -119.84027344 167.33449219 -121.375 167.875 C-122.87160156 168.39707031 -122.87160156 168.39707031 -124.3984375 168.9296875 C-127.10442118 169.84782502 -127.10442118 169.84782502 -129 172 C-129.33820166 170.4176994 -129.67035939 168.83410625 -130 167.25 C-130.2784375 165.92742187 -130.2784375 165.92742187 -130.5625 164.578125 C-131 162 -131 162 -131 158 C-103.21417313 149.75871511 -75.42536215 141.52758488 -47.62867737 133.32299423 C-45.68435319 132.74907113 -43.7400626 132.17503432 -41.79577637 131.60098267 C-27.2956396 127.32016286 -12.79037215 123.05790938 1.72558594 118.83105469 C19.930162 113.53598755 19.930162 113.53598755 38.0625 108 C38.88935303 107.74516846 39.71620605 107.49033691 40.56811523 107.2277832 C50.75550383 104.17631723 50.75550383 104.17631723 58 97 C62.37625817 83.8712255 56.91213792 67.07016312 54.42089844 53.95019531 C54.23817383 52.97920898 54.05544922 52.00822266 53.8671875 51.0078125 C53.7007373 50.14043457 53.53428711 49.27305664 53.36279297 48.37939453 C53 46 53 46 53 42 C52.16597656 41.73703125 51.33195313 41.4740625 50.47265625 41.203125 C46.70669358 39.89838203 43.07771476 38.36388832 39.4375 36.75 C38.81037109 36.47542969 38.18324219 36.20085937 37.53710938 35.91796875 C34.40880609 34.54065062 31.29558896 33.13865481 28.20092773 31.68701172 C18.98126216 27.36441281 9.61328725 23.47197491 0.1875 19.625 C-1.39138349 18.97812678 -2.9701602 18.33099288 -4.54882812 17.68359375 C-8.36466524 16.11939789 -12.18191564 14.558702 -16 13 C-16.2890625 5.3671875 -16.2890625 5.3671875 -13.6875 2.0625 C-9.34843539 -1.26747982 -5.14400455 -1.89614766 0 0 Z " fill="#9A5828" transform="translate(364,66)"/>
<path d="M0 0 C1.53854953 2.82147547 2.40839408 5.33805641 3 8.4921875 C3.1640332 9.35521484 3.32806641 10.21824219 3.49707031 11.10742188 C3.66303711 12.02072266 3.82900391 12.93402344 4 13.875 C4.26055176 15.28749023 4.26055176 15.28749023 4.52636719 16.72851562 C5.02828823 19.48390206 5.51758719 22.24113705 6 25 C6.12439453 25.70672852 6.24878906 26.41345703 6.37695312 27.14160156 C9.74842954 46.75471138 9.74842954 46.75471138 6.8125 55.5625 C-0.48110095 65.37113576 -15.02163378 67.34165431 -26.15625 70.6171875 C-28.58158006 71.33320771 -31.00687168 72.04935815 -33.43212891 72.765625 C-35.30714081 73.31887451 -35.30714081 73.31887451 -37.22003174 73.88330078 C-43.31287489 75.68328235 -49.40247279 77.49415563 -55.4921875 79.3046875 C-58.00730841 80.05205514 -60.52244542 80.79936862 -63.03759766 81.54663086 C-63.67320114 81.73547568 -64.30880463 81.92432051 -64.96366882 82.1188879 C-88.85093589 89.2158087 -112.74266905 96.29748274 -136.64243317 103.352211 C-138.60458866 103.93147421 -140.56667686 104.51096481 -142.52874756 105.09051514 C-149.42069712 107.12584434 -156.31395403 109.15659268 -163.20959473 111.17938232 C-165.69556779 111.91047091 -168.17958772 112.64776782 -170.66308594 113.38720703 C-171.91637695 113.75571777 -173.16966797 114.12422852 -174.4609375 114.50390625 C-175.46688965 114.80240479 -176.4728418 115.10090332 -177.50927734 115.40844727 C-180 116 -180 116 -184 116 C-184.33951619 114.43883181 -184.67132544 112.87598662 -185 111.3125 C-185.185625 110.44238281 -185.37125 109.57226562 -185.5625 108.67578125 C-185.98972047 106.06287036 -186.07616201 103.64186962 -186 101 C-184.5 102.0625 -184.5 102.0625 -183 104 C-182.8125 107.6875 -182.8125 107.6875 -183 111 C-182.39414063 110.74605469 -181.78828125 110.49210937 -181.1640625 110.23046875 C-175.98625845 108.10358616 -170.82332625 106.27561281 -165.44921875 104.71484375 C-160.4781209 103.26394916 -155.6020992 101.83442667 -151 99.4375 C-147.69381599 97.85328683 -144.63889599 97.17803813 -141.05078125 96.52734375 C-138.71165223 96.04610766 -138.71165223 96.04610766 -136 94 C-134.53628007 93.49450279 -133.05402701 93.04135401 -131.5625 92.625 C-127.52166679 91.45262276 -123.50319626 90.23336016 -119.5 88.9375 C-118.4996875 88.61652344 -117.499375 88.29554688 -116.46875 87.96484375 C-113.87331176 87.14077941 -113.87331176 87.14077941 -112 85 C-110.22480988 84.49982428 -108.42850822 84.07328982 -106.625 83.6875 C-101.34173804 82.42750128 -96.59375557 80.69847318 -91.625 78.53125 C-86.81697835 76.50027534 -81.94407625 74.65828467 -77.0625 72.8125 C-75.26169471 72.13157398 -73.46091229 71.45058749 -71.66015625 70.76953125 C-70.84047363 70.46096191 -70.02079102 70.15239258 -69.17626953 69.83447266 C-67.45777345 69.17552947 -65.75490472 68.47583638 -64.05859375 67.76171875 C-62 67 -62 67 -59 67 C-59 66.34 -59 65.68 -59 65 C-56.03 64.34 -53.06 63.68 -50 63 C-50 62.34 -50 61.68 -50 61 C-47.09399739 59.74335022 -45.20395416 59 -42 59 C-42 58.34 -42 57.68 -42 57 C-40.02 56.34 -38.04 55.68 -36 55 C-36 54.34 -36 53.68 -36 53 C-35.54625 52.5875 -35.0925 52.175 -34.625 51.75 C-32.46013354 49.41860535 -31.87294123 47.02171964 -31 44 C-30.34 44 -29.68 44 -29 44 C-28.77132725 34.10355133 -29.12612345 24.77092772 -31 15 C-24.99225855 11.8661541 -18.88152429 8.99288541 -12.6875 6.25 C-11.6655957 5.79161743 -11.6655957 5.79161743 -10.62304688 5.32397461 C-7.10683462 3.7823904 -3.80607116 2.55949982 0 2 C0 1.34 0 0.68 0 0 Z " fill="#E3821F" transform="translate(416,108)"/>
<path d="M0 0 C0.33 0 0.66 0 1 0 C1 1.65 1 3.3 1 5 C1.55170868 5.17795105 2.10341736 5.3559021 2.67184448 5.53924561 C8.01238916 7.28685927 13.23986762 9.21442686 18.4453125 11.328125 C19.21825653 11.64021912 19.99120056 11.95231323 20.78756714 12.27386475 C22.41330864 12.93133509 24.0384757 13.59022753 25.66308594 14.25048828 C28.09633375 15.2383618 30.5323877 16.219056 32.96875 17.19921875 C45.29002851 22.17955519 57.50289597 27.2910759 69 34 C69 34.66 69 35.32 69 36 C64.37426176 38.03696849 59.74328337 40.06123467 55.10791016 42.07617188 C53.23641738 42.89638599 51.37340294 43.7358849 49.51171875 44.578125 C39.5082724 49.00150407 39.5082724 49.00150407 34 48 C31.24167502 46.83499318 28.55706396 45.56122725 25.8671875 44.24609375 C21.69681912 42.4336312 17.48065791 41.65120191 13 41 C13.33 40.360625 13.66 39.72125 14 39.0625 C15.34063387 34.95680878 15.61015026 31.27908012 15 27 C13.75609295 24.42044581 13.75609295 24.42044581 11 23 C9.33606962 22.61303945 7.6690313 22.23933132 6 21.875 C2.71613156 21.00801998 1.38994388 20.57501876 -0.5390625 17.73046875 C-2.21932828 13.60233375 -3 10.49026911 -3 6 C-2.34 5.34 -1.68 4.68 -1 4 C-0.3574765 1.93125966 -0.3574765 1.93125966 0 0 Z " fill="#F8CC55" transform="translate(347,74)"/>
<path d="M0 0 C5.47853479 1.82617826 7.75825737 7.69738482 10.39453125 12.5859375 C15.62380409 23.36045133 17.49257468 34.22616911 17.25 46.125 C17.22921387 47.8587085 17.22921387 47.8587085 17.20800781 49.62744141 C17.17226916 52.24748903 17.12946852 54.8666156 17.078125 57.48632812 C16.9994209 61.67310504 16.96405467 65.8596711 16.93145752 70.04702759 C16.8975558 73.87139626 16.8449567 77.6953751 16.78845215 81.51947021 C16.76311859 83.40078853 16.74352699 85.28219427 16.73010254 87.16363525 C16.61378125 101.56401766 15.07314296 114.1873325 8.3125 127.1875 C7.96928711 127.85620117 7.62607422 128.52490234 7.27246094 129.21386719 C3.93489017 135.48801784 -0.15417366 140.80091215 -5 146 C-5.44327637 146.4842041 -5.88655273 146.9684082 -6.34326172 147.46728516 C-24.5925523 167.25375929 -50.65854892 182.152532 -77 188 C-77.99 188 -78.98 188 -80 188 C-79.67 187.01 -79.34 186.02 -79 185 C-76.61125246 184.08522518 -74.33254225 183.35928884 -71.875 182.6875 C-41.05965347 173.59738659 -10.8716399 155.7708426 5.04785156 126.87402344 C10.45835831 116.22503632 13.18219602 105.60830558 13.09765625 93.66015625 C13.0962413 92.89319931 13.09482635 92.12624237 13.09336853 91.33604431 C13.08781766 88.9114881 13.07527463 86.48702781 13.0625 84.0625 C13.05747864 82.40820447 13.05291685 80.75390747 13.04882812 79.09960938 C13.03786438 75.06636988 13.02063424 71.03320114 13 67 C12.45811035 68.1355835 11.9162207 69.27116699 11.35791016 70.44116211 C7.59039386 78.30239314 3.82289784 85.4337535 -2 92 C-2.68835938 92.80695313 -3.37671875 93.61390625 -4.0859375 94.4453125 C-20.33891187 113.09346204 -41.6785695 125.89059359 -64.875 134.1875 C-65.71305176 134.49123535 -66.55110352 134.7949707 -67.41455078 135.10791016 C-71.60504953 136.52814252 -74.6452886 137.52503051 -79 136 C-76.31389713 134.59353298 -73.67954165 133.4893782 -70.796875 132.5546875 C-37.6446994 121.55247875 -7.95470256 102.96975107 8.19921875 70.921875 C15.66737374 55.2476818 16.09273092 38.37047459 10.76269531 22.05273438 C8.42704883 15.7665258 5.19016479 9.88316105 2 4 C1.32656524 2.67007224 0.65582696 1.33869833 0 0 Z " fill="#344958" transform="translate(390,182)"/>
<path d="M0 0 C3.10217004 0.00314401 6.20336802 -0.02032641 9.30541992 -0.0456543 C22.95109115 -0.08663229 36.10874673 1.08484918 49.5690918 3.31567383 C49.5690918 4.30567383 49.5690918 5.29567383 49.5690918 6.31567383 C48.84882813 6.22479492 48.12856445 6.13391602 47.38647461 6.0402832 C-7.79874784 -0.70861512 -66.39992487 2.13478994 -112.4309082 36.94067383 C-113.7773394 38.0499645 -115.11054602 39.17547802 -116.4309082 40.31567383 C-117.24688477 41.00016602 -118.06286133 41.6846582 -118.90356445 42.38989258 C-133.0430797 54.61001661 -145.68155014 72.16992169 -147.4309082 91.31567383 C-148.08966391 103.05640057 -147.59606313 113.93618827 -144.4309082 125.31567383 C-145.0909082 125.31567383 -145.7509082 125.31567383 -146.4309082 125.31567383 C-147.4209082 122.34567383 -148.4109082 119.37567383 -149.4309082 116.31567383 C-149.7609082 122.25567383 -150.0909082 128.19567383 -150.4309082 134.31567383 C-150.7609082 134.31567383 -151.0909082 134.31567383 -151.4309082 134.31567383 C-151.4809634 129.2843566 -151.51693224 124.25318956 -151.54077148 119.22167969 C-151.55072694 117.51592478 -151.56429619 115.81018647 -151.58178711 114.10449219 C-151.84321171 87.92358691 -146.18088472 67.04836048 -128.4309082 47.31567383 C-127.80700195 46.62086914 -127.1830957 45.92606445 -126.5402832 45.21020508 C-102.98001129 20.41252393 -68.44920916 7.94793038 -35.4309082 2.31567383 C-34.3898291 2.13464111 -33.34875 1.9536084 -32.27612305 1.76708984 C-21.52487129 0.1163942 -10.86355972 -0.02292069 0 0 Z " fill="#485A67" transform="translate(226.430908203125,136.684326171875)"/>
<path d="M0 0 C3.18643352 2.02773042 4.73024144 3.08697102 5.8125 6.75 C5.874375 7.4925 5.93625 8.235 6 9 C5.01 9 4.02 9 3 9 C1.02 5.535 1.02 5.535 -1 2 C-7.88329173 2.55648503 -14.19358 4.36657399 -20.79342651 6.34991455 C-24.21887401 7.37862271 -27.65066774 8.38576665 -31.08203125 9.39453125 C-31.80354874 9.60708557 -32.52506622 9.81963989 -33.26844788 10.03863525 C-41.63217545 12.49419985 -50.03451757 14.80817992 -58.4375 17.125 C-72.32842282 20.96272969 -86.17937561 24.91548482 -100 29 C-105.17862542 30.5280515 -110.35788439 32.05394962 -115.53729248 33.5793457 C-117.74736594 34.23080068 -119.95696781 34.88383451 -122.16650391 35.53710938 C-123.5549472 35.94683769 -124.94345479 36.35634822 -126.33203125 36.765625 C-126.99549561 36.9613208 -127.65895996 37.1570166 -128.3425293 37.35864258 C-133.22919092 38.79244616 -138.13587998 40.13418071 -143.06518555 41.41308594 C-144.98727302 41.83014002 -144.98727302 41.83014002 -146 43 C-145.8981629 44.91424457 -145.8981629 44.91424457 -145.5625 47.0625 C-145.376875 48.361875 -145.19125 49.66125 -145 51 C-145.77085937 51.26554687 -146.54171875 51.53109375 -147.3359375 51.8046875 C-148.33882812 52.15789062 -149.34171875 52.51109375 -150.375 52.875 C-151.37273437 53.22304687 -152.37046875 53.57109375 -153.3984375 53.9296875 C-156.10442118 54.84782502 -156.10442118 54.84782502 -158 57 C-158.33820166 55.4176994 -158.67035939 53.83410625 -159 52.25 C-159.185625 51.36828125 -159.37125 50.4865625 -159.5625 49.578125 C-160 47 -160 47 -160 43 C-131.06801863 34.41876533 -102.13183213 25.85197601 -73.1875 17.3125 C-72.53888126 17.12112709 -71.89026253 16.92975418 -71.22198868 16.73258209 C-69.29814549 16.1649609 -67.37429253 15.59737284 -65.45043945 15.02978516 C-64.22075943 14.66696945 -62.99107941 14.30415375 -61.72413635 13.93034363 C-59.34886568 13.22993059 -56.97341369 12.53013211 -54.59776306 11.83100891 C-49.61770979 10.36519119 -44.63929299 8.89516131 -39.66894531 7.39672852 C-38.8820784 7.16088547 -38.09521149 6.92504242 -37.28450012 6.68205261 C-35.2810595 6.08082124 -33.27900399 5.47497928 -31.27709961 4.86865234 C-27.52911025 3.87518247 -23.93009198 3.40738697 -20.0703125 3.171875 C-15.79630315 2.81705158 -11.85595266 1.32526201 -7.875 -0.1875 C-4.63959866 -1.10185255 -3.14844275 -1.13021022 0 0 Z " fill="#975F32" transform="translate(393,181)"/>
<path d="M0 0 C0.33 0 0.66 0 1 0 C1.24529834 4.86971193 1.45939426 9.73953909 1.64697266 14.61181641 C1.71464458 16.26256242 1.79024466 17.91300618 1.87451172 19.56298828 C2.58595222 33.66322472 0.93786071 45.44746929 -5.6875 58.1875 C-6.03071289 58.85620117 -6.37392578 59.52490234 -6.72753906 60.21386719 C-10.06510983 66.48801784 -14.15417366 71.80091215 -19 77 C-19.44327637 77.4842041 -19.88655273 77.9684082 -20.34326172 78.46728516 C-38.5925523 98.25375929 -64.65854892 113.152532 -91 119 C-91.99 119 -92.98 119 -94 119 C-93.67 118.01 -93.34 117.02 -93 116 C-90.61125246 115.08522518 -88.33254225 114.35928884 -85.875 113.6875 C-55.05965347 104.59738659 -24.8716399 86.7708426 -8.95214844 57.87402344 C-3.61196281 47.3634427 -0.97123035 36.89924992 -0.68359375 25.09765625 C-0.6524221 24.01380898 -0.6524221 24.01380898 -0.62062073 22.9080658 C-0.55584574 20.6262963 -0.4965797 18.34442333 -0.4375 16.0625 C-0.39424603 14.50454709 -0.35062969 12.9466042 -0.30664062 11.38867188 C-0.20023961 7.59255078 -0.09877501 3.79632686 0 0 Z " fill="#455864" transform="translate(404,251)"/>
<path d="M0 0 C0.99 0.33 1.98 0.66 3 1 C2.09378906 1.75023437 1.18757813 2.50046875 0.25390625 3.2734375 C-17.10760346 17.79349534 -31.89761553 34.7200917 -35 58 C-35.8548396 69.69519682 -35.14978104 80.6757872 -32 92 C-32.66 92 -33.32 92 -34 92 C-34.99 89.03 -35.98 86.06 -37 83 C-37.33 88.94 -37.66 94.88 -38 101 C-38.33 101 -38.66 101 -39 101 C-39.0500552 95.96868277 -39.08602404 90.93751573 -39.10986328 85.90600586 C-39.11981874 84.20025095 -39.13338799 82.49451264 -39.15087891 80.78881836 C-39.43811669 52.02279899 -32.07932928 30.5388262 -11.9375 9.6875 C-4.26419258 2.25973842 -4.26419258 2.25973842 0 0 Z " fill="#475965" transform="translate(114,170)"/>
<path d="M0 0 C6.43302461 -0.07756778 12.86592426 -0.12921725 19.29931641 -0.16479492 C21.47709659 -0.17966304 23.65484807 -0.19996353 25.83251953 -0.22631836 C40.83573737 -0.40303062 55.1921724 0.54616831 70 3 C70 3.99 70 4.98 70 6 C69.30592041 5.91435791 68.61184082 5.82871582 67.89672852 5.74047852 C44.93981707 2.98995786 22.10124257 2.3105098 -1 2 C-0.67 1.34 -0.34 0.68 0 0 Z " fill="#425762" transform="translate(206,137)"/>
<path d="M0 0 C0.66 0.33 1.32 0.66 2 1 C1.505 1.495 1.01 1.99 0.5 2.5 C-1.73587506 6.22645843 -1.41151261 8.67911757 -1 13 C0.37506099 14.87890434 0.37506099 14.87890434 2 16 C2 16.66 2 17.32 2 18 C8.435 17.505 8.435 17.505 15 17 C14.67 17.66 14.34 18.32 14 19 C11.12754489 19.9239237 8.29135401 20.74220722 5.375 21.5 C3.77860053 21.92691396 2.18224575 22.35399508 0.5859375 22.78125 C-0.18911133 22.98621094 -0.96416016 23.19117187 -1.76269531 23.40234375 C-5.87520709 24.5009283 -9.96075788 25.65358596 -14 27 C-12.87160623 23.61481868 -11.3477352 22.56255271 -8.375 20.875 C-6.42949484 19.69177782 -6.42949484 19.69177782 -5 18 C-4.60706629 15.39353975 -4.74972003 13.06625724 -4.9453125 10.44140625 C-5.02217022 7.01025804 -3.84321996 4.83572301 -2 2 C-1.34 1.34 -0.68 0.68 0 0 Z " fill="#DFDFDF" transform="translate(304,70)"/>
<path d="M0 0 C-1.65 0.66 -3.3 1.32 -5 2 C-4.67 5.3 -4.34 8.6 -4 12 C-5.44375 12.45375 -6.8875 12.9075 -8.375 13.375 C-11.34238372 14.30760631 -12.77174356 14.77174356 -15 17 C-15.33820166 15.4176994 -15.67035939 13.83410625 -16 12.25 C-16.185625 11.36828125 -16.37125 10.4865625 -16.5625 9.578125 C-17 7 -17 7 -17 3 C-14.92085336 2.29994051 -12.83648414 1.61537756 -10.75 0.9375 C-9.58984375 0.55464844 -8.4296875 0.17179688 -7.234375 -0.22265625 C-4.19922915 -0.95211763 -2.84296787 -1.11889082 0 0 Z " fill="#975626" transform="translate(250,221)"/>
<path d="M0 0 C5.47853479 1.82617826 7.75825737 7.69738482 10.39453125 12.5859375 C16.10455033 24.35099192 17.45300332 35.85729952 17.1875 48.8125 C17.16719727 50.72772461 17.16719727 50.72772461 17.14648438 52.68164062 C17.11157893 55.78822548 17.06255244 58.89387016 17 62 C16.67 60.68 16.34 59.36 16 58 C15.34 58 14.68 58 14 58 C13.67 58.66 13.34 59.32 13 60 C13.165 59.01 13.33 58.02 13.5 57 C15.87244289 36.88734983 11.51209103 21.54177827 2 4 C1.32656524 2.67007224 0.65582696 1.33869833 0 0 Z " fill="#5A6265" transform="translate(390,182)"/>
<path d="M0 0 C-2.64043921 1.39016723 -5.17969422 2.44782372 -8.04321289 3.28100586 C-8.82825699 3.51142075 -9.61330109 3.74183563 -10.4221344 3.97923279 C-11.26380661 4.22198441 -12.10547882 4.46473602 -12.97265625 4.71484375 C-13.85094589 4.97125137 -14.72923553 5.227659 -15.63414001 5.49183655 C-18.44256612 6.31063477 -21.25253003 7.12401791 -24.0625 7.9375 C-25.92652835 8.48079034 -27.79046168 9.02440677 -29.65429688 9.56835938 C-46.04942601 14.34342912 -46.04942601 14.34342912 -54.23217773 16.45922852 C-56.00752331 16.85107755 -56.00752331 16.85107755 -57 18 C-56.8981629 19.91424457 -56.8981629 19.91424457 -56.5625 22.0625 C-56.2840625 24.0115625 -56.2840625 24.0115625 -56 26 C-56.66 26 -57.32 26 -58 26 C-58.66 23.03 -59.32 20.06 -60 17 C-57 15 -57 15 -54 15 C-54 14.34 -54 13.68 -54 13 C-50.23199493 11.86538107 -46.46013095 10.74413243 -42.6875 9.625 C-41.63498047 9.30789062 -40.58246094 8.99078125 -39.49804688 8.6640625 C-33.51522083 6.89682773 -27.61770402 5.48687072 -21.46704102 4.45166016 C-16.91744145 3.61873 -12.57905515 2.1700464 -8.1640625 0.8046875 C-5.27426475 0.06975128 -2.95936851 -0.16625666 0 0 Z " fill="#836349" transform="translate(304,206)"/>
<path d="M0 0 C0.66 0 1.32 0 2 0 C2 13.2 2 26.4 2 40 C1.67 40 1.34 40 1 40 C0.97494385 39.13197754 0.9498877 38.26395508 0.92407227 37.36962891 C0.82900516 34.15286837 0.72976797 30.93627151 0.62768555 27.71972656 C0.58434154 26.3268741 0.54266604 24.93396869 0.50268555 23.54101562 C0.44497068 21.54023349 0.38078131 19.53964141 0.31640625 17.5390625 C0.27974854 16.33459473 0.24309082 15.13012695 0.20532227 13.88916016 C0.18947013 11.06003633 0.18947013 11.06003633 -1 9 C-1.50789063 10.0621875 -2.01578125 11.124375 -2.5390625 12.21875 C-6.15358265 19.67325744 -9.66361713 26.59634056 -15 33 C-15.99 32.67 -16.98 32.34 -18 32 C-17.175 30.989375 -16.35 29.97875 -15.5 28.9375 C-12.52006782 24.96425709 -10.09931983 20.80044557 -7.75 16.4375 C-7.40904297 15.81286865 -7.06808594 15.1882373 -6.71679688 14.54467773 C-4.55038943 10.4406708 -3.135335 6.50079232 -2 2 C-1.34 2 -0.68 2 0 2 C0 1.34 0 0.68 0 0 Z " fill="#344958" transform="translate(404,240)"/>
<path d="M0 0 C0.66 0.33 1.32 0.66 2 1 C1.236875 1.639375 0.47375 2.27875 -0.3125 2.9375 C-2.77171638 5.32178181 -3.45931948 7.25800071 -4.25 10.5625 C-5.09580886 13.53025039 -5.54836867 14.68611205 -8.11328125 16.46875 C-13.78147321 19 -13.78147321 19 -17 19 C-17 19.99 -17 20.98 -17 22 C-16.34 22 -15.68 22 -15 22 C-14.67 27.28 -14.34 32.56 -14 38 C-16.49505962 35.50494038 -16.35948376 34.32671112 -16.625 30.875 C-16.69976562 29.96492188 -16.77453125 29.05484375 -16.8515625 28.1171875 C-16.92503906 27.06917969 -16.92503906 27.06917969 -17 26 C-17.66 26 -18.32 26 -19 26 C-19.5009225 22.86923435 -19.67430868 20.11297392 -19 17 C-15.93586784 13.52874538 -12.3607652 11.4535884 -8 10 C-8 9.34 -8 8.68 -8 8 C-7.34 8 -6.68 8 -6 8 C-5.7525 7.4225 -5.505 6.845 -5.25 6.25 C-3.83316683 3.6997003 -2.12372463 1.98214299 0 0 Z " fill="#DFB67A" transform="translate(244,170)"/>
<path d="M0 0 C0.33 0 0.66 0 1 0 C1.16435547 1.59714844 1.16435547 1.59714844 1.33203125 3.2265625 C2.34652579 12.6526349 3.80472395 21.7652054 6 31 C5.34 31 4.68 31 4 31 C3.01 28.03 2.02 25.06 1 22 C0.67 27.94 0.34 33.88 0 40 C-0.33 40 -0.66 40 -1 40 C-1.02470935 34.78556667 -1.04286444 29.57116739 -1.05493164 24.35668945 C-1.059962 22.58259487 -1.06678699 20.80850444 -1.07543945 19.03442383 C-1.08756174 16.48517839 -1.09324126 13.93598774 -1.09765625 11.38671875 C-1.10281754 10.59287277 -1.10797882 9.79902679 -1.11329651 8.98112488 C-1.11362877 5.72343714 -1.03772826 3.11318479 0 0 Z " fill="#6C7A82" transform="translate(76,231)"/>
<path d="M0 0 C0.2475 0.5775 0.495 1.155 0.75 1.75 C3.41858097 6.55344575 6.99548187 8.89810239 12 11 C15.2366963 11.70758326 15.2366963 11.70758326 18 12 C17.67 12.66 17.34 13.32 17 14 C11.5610835 14.21755666 7.12919186 14.10428384 2 12 C1.01 13.32 0.02 14.64 -1 16 C-1.02685095 13.52076199 -1.04676547 11.0418116 -1.0625 8.5625 C-1.07506836 7.50192383 -1.07506836 7.50192383 -1.08789062 6.41992188 C-1.09653588 4.61306441 -1.05220011 2.80612397 -1 1 C-0.67 0.67 -0.34 0.34 0 0 Z " fill="#E0E0E0" transform="translate(284,104)"/>
<path d="M0 0 C0.94875 0.10183594 1.8975 0.20367187 2.875 0.30859375 C3.57625 0.39238281 4.2775 0.47617188 5 0.5625 C5 0.8925 5 1.2225 5 1.5625 C4.14768799 1.67843506 3.29537598 1.79437012 2.41723633 1.91381836 C-0.7605062 2.34682229 -3.93805401 2.78122175 -7.11547852 3.21655273 C-8.48779849 3.40428261 -9.86019354 3.59146448 -11.23266602 3.77807617 C-13.21129948 4.04720477 -15.18963764 4.31850158 -17.16796875 4.58984375 C-18.95110474 4.83335571 -18.95110474 4.83335571 -20.77026367 5.08178711 C-23.92836162 5.49524876 -23.92836162 5.49524876 -26.67700195 6.24829102 C-29.45842904 6.62450716 -30.66141063 6.03494516 -33 4.5625 C-30.00085281 3.91248322 -27.00078199 3.26738963 -24 2.625 C-23.16082031 2.44259766 -22.32164062 2.26019531 -21.45703125 2.07226562 C-14.26086252 0.53819865 -7.38854511 -0.83121133 0 0 Z " fill="#4C6271" transform="translate(205,138.4375)"/>
<path d="M0 0 C0.33 0 0.66 0 1 0 C1.24529834 4.86971193 1.45939426 9.73953909 1.64697266 14.61181641 C1.71464458 16.26256242 1.79024466 17.91300618 1.87451172 19.56298828 C2.46066969 31.18021553 2.73643639 42.89534542 -4 53 C-5.12140434 49.68811918 -4.87708979 47.92110803 -3.625 44.6875 C-1.18684763 38.34146789 -0.84787363 31.83798202 -0.68359375 25.09765625 C-0.66281265 24.3750914 -0.64203156 23.65252655 -0.62062073 22.9080658 C-0.55584574 20.6262963 -0.4965797 18.34442333 -0.4375 16.0625 C-0.39424603 14.50454709 -0.35062969 12.9466042 -0.30664062 11.38867188 C-0.20023961 7.59255078 -0.09877501 3.79632686 0 0 Z " fill="#3D5463" transform="translate(404,251)"/>
<path d="M0 0 C2.10633718 1.70828921 2.93801608 2.52148416 3.29296875 5.26171875 C3.25816406 6.06222656 3.22335938 6.86273438 3.1875 7.6875 C3.16042969 8.49574219 3.13335937 9.30398437 3.10546875 10.13671875 C3.07066406 10.75160156 3.03585938 11.36648437 3 12 C3.969375 11.505 4.93875 11.01 5.9375 10.5 C9.76651939 8.82431462 13.04939285 8.78217252 17.1796875 8.9921875 C18.08074219 8.99605469 18.08074219 8.99605469 19 9 C19.33 8.67 19.66 8.34 20 8 C22.33297433 7.95907063 24.66705225 7.95758277 27 8 C23.06716399 10.23836943 18.81638161 11.36452863 14.5 12.625 C13.74074219 12.85445312 12.98148438 13.08390625 12.19921875 13.3203125 C11.09513672 13.64515625 11.09513672 13.64515625 9.96875 13.9765625 C8.97004883 14.27167725 8.97004883 14.27167725 7.95117188 14.57275391 C6 15 6 15 2 15 C1.66048381 13.43883181 1.32867456 11.87598662 1 10.3125 C0.814375 9.44238281 0.62875 8.57226562 0.4375 7.67578125 C0.01027953 5.06287036 -0.07616201 2.64186962 0 0 Z " fill="#DB822C" transform="translate(230,209)"/>
<path d="M0 0 C3.51082555 -0.33975731 5.96744981 0.30645205 9.1875 1.5625 C16.90692604 4.26748896 24.65888286 1.98040332 32.45703125 0.40234375 C35.01608174 -0.00254442 37.41384933 -0.06964499 40 0 C30.0745465 5.46137393 16.85924182 6.72013595 5.89453125 4.3203125 C3.55465915 3.62726153 1.27504366 2.88066206 -1 2 C-0.67 1.34 -0.34 0.68 0 0 Z " fill="#FBEDCD" transform="translate(285,133)"/>
<path d="M0 0 C0.66 0.33 1.32 0.66 2 1 C-7.75624462 12.416882 -7.75624462 12.416882 -12 16 C-12.66 16 -13.32 16 -14 16 C-14 16.66 -14 17.32 -14 18 C-14.99 18 -15.98 18 -17 18 C-17 18.66 -17 19.32 -17 20 C-22.29411765 24 -22.29411765 24 -26 24 C-23.35703019 20.47604025 -21.21376312 17.91004105 -17.3125 15.8125 C-13.82191787 14.23517935 -13.82191787 14.23517935 -12 11 C-11.34 11 -10.68 11 -10 11 C-10 10.34 -10 9.68 -10 9 C-9.01 8.67 -8.02 8.34 -7 8 C-5.98812105 6.34051852 -4.9873454 4.67419438 -4 3 C-3.34 3 -2.68 3 -2 3 C-2 2.34 -2 1.68 -2 1 C-1.34 0.67 -0.68 0.34 0 0 Z " fill="#DDB77E" transform="translate(274,143)"/>
<path d="M0 0 C0.66 0.33 1.32 0.66 2 1 C-3.33391121 4.375567 -8.08930903 6.56944807 -14.34765625 7.54296875 C-17.18788066 7.98249593 -17.18788066 7.98249593 -20.62109375 9.04296875 C-25.7337741 10.34949594 -30.7544391 10.21905833 -36 10.125 C-36.96550781 10.11597656 -37.93101562 10.10695312 -38.92578125 10.09765625 C-41.28412099 10.07430635 -43.64192286 10.04156047 -46 10 C-46.33 9.34 -46.66 8.68 -47 8 C-45.94425781 8.05800781 -44.88851563 8.11601562 -43.80078125 8.17578125 C-29.87214717 8.69018198 -16.50314707 6.409739 -3.5078125 1.26953125 C-2.35023438 0.85058594 -1.19265625 0.43164062 0 0 Z " fill="#EEB762" transform="translate(337,129)"/>
<path d="M0 0 C2.48781351 2.48781351 2.962641 3.80169199 3.25 7.25 C2.26 7.25 1.27 7.25 0.25 7.25 C-1.73 3.785 -1.73 3.785 -3.75 0.25 C-10.34660582 0.77772847 -16.35103001 2.48879939 -22.67578125 4.41015625 C-25.75 5.25 -25.75 5.25 -28.75 5.25 C-28.75 4.59 -28.75 3.93 -28.75 3.25 C-23.70923104 1.48573086 -18.65877989 -0.1145356 -13.5 -1.5 C-12.52546875 -1.76296875 -11.5509375 -2.0259375 -10.546875 -2.296875 C-6.23618826 -2.99525442 -3.66136008 -2.32995641 0 0 Z " fill="#8D694C" transform="translate(395.75,182.75)"/>
<path d="M0 0 C1.65 1.32 3.3 2.64 5 4 C4.67 4.99 4.34 5.98 4 7 C3.34 7 2.68 7 2 7 C2.41976444 10.73069211 2.41976444 10.73069211 4 14 C7.1845878 15.82955623 10.4874601 16.95660715 14 18 C10.67601603 19.66199199 7.84935077 18.41150443 4.421875 17.3515625 C0.65460265 15.24918148 -0.17202494 12.44012598 -1.4765625 8.47265625 C-2 6 -2 6 -2 2 C-1.34 1.34 -0.68 0.68 0 0 Z " fill="#F1D064" transform="translate(346,78)"/>
<path d="M0 0 C-3.53393658 2.35595772 -7.08346972 3.26526224 -11.125 4.375 C-17.36583573 6.13729659 -23.1279707 8.21851244 -29 11 C-29.66 11 -30.32 11 -31 11 C-30.67 10.01 -30.34 9.02 -30 8 C-27.45454865 6.83407648 -25.00832831 5.85517502 -22.375 4.9375 C-21.67503906 4.68162109 -20.97507813 4.42574219 -20.25390625 4.16210938 C-13.45954946 1.71034241 -7.31636319 -0.29862707 0 0 Z " fill="#435661" transform="translate(176,144)"/>
<path d="M0 0 C0.66 0 1.32 0 2 0 C2 9.24 2 18.48 2 28 C1.67 26.68 1.34 25.36 1 24 C0.34 24 -0.32 24 -1 24 C-1.33 24.66 -1.66 25.32 -2 26 C-1.34 17.42 -0.68 8.84 0 0 Z " fill="#565E61" transform="translate(405,216)"/>
<path d="M0 0 C0.66 0.99 1.32 1.98 2 3 C5.00979848 4.13895971 8.05489639 4.97045087 11.15234375 5.83984375 C14.32928907 7.1341548 15.4232788 7.98248184 17 11 C17.29296875 13.359375 17.29296875 13.359375 17.1875 15.75 C17.16042969 16.54921875 17.13335937 17.3484375 17.10546875 18.171875 C17.07066406 18.77515625 17.03585937 19.3784375 17 20 C16.67 20 16.34 20 16 20 C15.97421875 19.30132812 15.9484375 18.60265625 15.921875 17.8828125 C15.86515625 16.97273438 15.8084375 16.06265625 15.75 15.125 C15.70359375 14.22007813 15.6571875 13.31515625 15.609375 12.3828125 C15.24754725 9.88600786 15.24754725 9.88600786 13.23046875 8.76953125 C12.49441406 8.51558594 11.75835937 8.26164062 11 8 C10.27941406 7.73316406 9.55882812 7.46632813 8.81640625 7.19140625 C6.47429707 6.53788878 4.4357429 6.04767468 2 6 C-1.10861514 8.18854423 -1.10861514 8.18854423 -3 11 C-2.69078116 9.54096742 -2.37751201 8.08279278 -2.0625 6.625 C-1.88847656 5.81289062 -1.71445312 5.00078125 -1.53515625 4.1640625 C-1 2 -1 2 0 0 Z " fill="#FDF0CE" transform="translate(346,90)"/>
<path d="M0 0 C-0.33 1.32 -0.66 2.64 -1 4 C-1.66 4 -2.32 4 -3 4 C-2.67 5.65 -2.34 7.3 -2 9 C-3.98 9 -5.96 9 -8 9 C-7.125 4.25 -7.125 4.25 -6 2 C-6.99 1.67 -7.98 1.34 -9 1 C-3.375 -1.125 -3.375 -1.125 0 0 Z " fill="#9A5423" transform="translate(243,223)"/>
<path d="M0 0 C0.66 0 1.32 0 2 0 C2 13.2 2 26.4 2 40 C1.67 40 1.34 40 1 40 C0.83199764 35.65860566 0.67148019 31.31701785 0.51782227 26.97509766 C0.46452989 25.49878539 0.40921097 24.02254481 0.35180664 22.54638672 C0.26953788 20.42170666 0.19461665 18.29687349 0.12109375 16.171875 C0.0739624 14.8940918 0.02683105 13.61630859 -0.02172852 12.29980469 C-0.00390727 9.59337842 0.16693689 7.54687307 1 5 C0.34 5 -0.32 5 -1 5 C-0.67 3.35 -0.34 1.7 0 0 Z " fill="#27373B" transform="translate(404,240)"/>
<path d="M0 0 C0.66 0.33 1.32 0.66 2 1 C-3.03320206 6.77505724 -8.03739811 12.17917294 -14 17 C-14.33 16.01 -14.66 15.02 -15 14 C-14.50371094 13.57589844 -14.00742187 13.15179688 -13.49609375 12.71484375 C-8.79678658 8.65756716 -4.32846012 4.45019806 0 0 Z " fill="#314555" transform="translate(386,273)"/>
<path d="M0 0 C0.66 0.33 1.32 0.66 2 1 C1.505 1.55816406 1.01 2.11632812 0.5 2.69140625 C-1.28887763 5.44460073 -1.2385754 6.71176172 -1 9.9375 C-0.84975948 14.17553454 -1.26605559 16.58256949 -4 20 C-4.66 19.67 -5.32 19.34 -6 19 C-5.67 18.67 -5.34 18.34 -5 18 C-5.00588717 16.43695563 -5.0549782 14.87398625 -5.125 13.3125 C-5.17692957 8.77515391 -4.52182865 5.87973638 -2 2 C-1.34 1.34 -0.68 0.68 0 0 Z " fill="#E5E5E5" transform="translate(304,70)"/>
<path d="M0 0 C2.0625 1.6875 2.0625 1.6875 3.0625 4.6875 C1.125 4.3125 1.125 4.3125 -0.9375 3.6875 C-1.2675 3.0275 -1.5975 2.3675 -1.9375 1.6875 C-3.58324566 1.66061849 -5.22911413 1.64115877 -6.875 1.625 C-8.24978516 1.60759766 -8.24978516 1.60759766 -9.65234375 1.58984375 C-11.90343327 1.42800951 -11.90343327 1.42800951 -12.9375 2.6875 C-14.60367115 2.72813832 -16.27138095 2.730221 -17.9375 2.6875 C-16.9375 0.6875 -16.9375 0.6875 -14.375 -0.4375 C-9.26960408 -1.73705533 -4.95906307 -2.21575158 0 0 Z " fill="#A07555" transform="translate(409.9375,80.3125)"/>
<path d="M0 0 C3.3 0 6.6 0 10 0 C6.24790691 2.81406982 2.73547374 4.54241545 -1.5625 6.25 C-2.23474609 6.53101563 -2.90699219 6.81203125 -3.59960938 7.1015625 C-8.63492846 9.12169051 -8.63492846 9.12169051 -12 8 C-8.27034861 5.96564469 -6.33094958 5 -2 5 C-2 4.34 -2 3.68 -2 3 C-1.34 2.67 -0.68 2.34 0 2 C0 1.34 0 0.68 0 0 Z " fill="#FDEED8" transform="translate(338,124)"/>
<path d="M0 0 C0.33 0.66 0.66 1.32 1 2 C1.99 2 2.98 2 4 2 C4.103125 2.598125 4.20625 3.19625 4.3125 3.8125 C4.82252242 6.02489505 4.82252242 6.02489505 6.3125 7.3125 C8.91671974 9.91671974 10.35002698 12.70005395 12 16 C11.67 16.99 11.34 17.98 11 19 C9.56052003 16.93885782 8.12337429 14.87615188 6.6875 12.8125 C6.28337891 12.23435547 5.87925781 11.65621094 5.46289062 11.06054688 C3.17922307 7.77429357 1.01442146 4.46167572 -1 1 C-0.67 0.67 -0.34 0.34 0 0 Z " fill="#2A4354" transform="translate(240,242)"/>
<path d="M0 0 C-0.33 0.99 -0.66 1.98 -1 3 C-3.8359375 4.16796875 -3.8359375 4.16796875 -7.375 5.1875 C-9.11910156 5.70376953 -9.11910156 5.70376953 -10.8984375 6.23046875 C-14 7 -14 7 -17 7 C-16.67 6.01 -16.34 5.02 -16 4 C-12.91015625 2.83203125 -12.91015625 2.83203125 -9.0625 1.8125 C-7.79535156 1.46832031 -6.52820313 1.12414062 -5.22265625 0.76953125 C-2 0 -2 0 0 0 Z " fill="#43545F" transform="translate(327,363)"/>
<path d="M0 0 C0.53625 0.36609375 1.0725 0.7321875 1.625 1.109375 C-0.76627957 1.97865776 -3.16161726 2.82989101 -5.5625 3.671875 C-6.23603516 3.91873047 -6.90957031 4.16558594 -7.60351562 4.41992188 C-11.5756008 5.79561967 -14.32985799 6.42110066 -18.375 5.109375 C-15.1324958 3.39458913 -11.83071346 2.08615328 -8.375 0.859375 C-6.828125 0.29476563 -6.828125 0.29476563 -5.25 -0.28125 C-2.375 -0.890625 -2.375 -0.890625 0 0 Z " fill="#3D505D" transform="translate(329.375,312.890625)"/>
<path d="M0 0 C-0.639375 0.556875 -1.27875 1.11375 -1.9375 1.6875 C-4.19680987 4.22066561 -4.63149047 5.68341424 -5 9 C-7.79872437 6.47211993 -9.45773019 4.79588866 -10 1 C-3.71428571 -1.42857143 -3.71428571 -1.42857143 0 0 Z " fill="#E3ECEF" transform="translate(258,221)"/>
<path d="M0 0 C0.33 0.66 0.66 1.32 1 2 C0.05125 2.268125 -0.8975 2.53625 -1.875 2.8125 C-5.25267273 3.74986588 -5.25267273 3.74986588 -7 7 C-8.9453125 7.29296875 -8.9453125 7.29296875 -11.125 7.1875 C-12.40375 7.125625 -13.6825 7.06375 -15 7 C-15.33 5.02 -15.66 3.04 -16 1 C-14.35 2.32 -12.7 3.64 -11 5 C-9.9275 4.360625 -8.855 3.72125 -7.75 3.0625 C-5.19177818 1.59398727 -2.94659114 0.47145458 0 0 Z " fill="#A0714F" transform="translate(383,69)"/>
<path d="M0 0 C0.99 0.33 1.98 0.66 3 1 C4.1875 4.5625 4.1875 4.5625 5 8 C2.45528982 11.11020134 -0.15896252 12.00133026 -4 13 C-6.875 13.125 -6.875 13.125 -9 13 C-5.31265242 10.54176828 -2.30300029 9.98757384 2 9 C1.34 6.03 0.68 3.06 0 0 Z " fill="#423828" transform="translate(246,223)"/>
<path d="M0 0 C1.32 0.33 2.64 0.66 4 1 C3.34 3.64 2.68 6.28 2 9 C7.445 8.505 7.445 8.505 13 8 C10 10 10 10 6.9375 11 C3.91944266 11.78621891 3.91944266 11.78621891 2 14 C1.66179834 12.4176994 1.32964061 10.83410625 1 9.25 C0.814375 8.36828125 0.62875 7.4865625 0.4375 6.578125 C0 4 0 4 0 0 Z " fill="#805C43" transform="translate(233,224)"/>
<path d="M0 0 C3.59688162 1.19896054 4.0646268 2.19050378 6.0625 5.3125 C6.56910156 6.09238281 7.07570313 6.87226563 7.59765625 7.67578125 C8.06042969 8.44277344 8.52320313 9.20976562 9 10 C9.61681641 11.01126953 9.61681641 11.01126953 10.24609375 12.04296875 C11.17540038 14.45531393 10.70762849 15.5714544 10 18 C8.5202565 15.37532366 7.04118057 12.75027507 5.5625 10.125 C5.14162109 9.37863281 4.72074219 8.63226563 4.28710938 7.86328125 C3.68286133 6.79013672 3.68286133 6.79013672 3.06640625 5.6953125 C2.69459229 5.03547363 2.32277832 4.37563477 1.93969727 3.69580078 C1.26534798 2.47885349 0.62220698 1.24441397 0 0 Z " fill="#484C48" transform="translate(390,182)"/>
<path d="M0 0 C0.33 0 0.66 0 1 0 C1 1.65 1 3.3 1 5 C3.97 5.99 6.94 6.98 10 8 C9.01 8.495 9.01 8.495 8 9 C7.67 9.99 7.34 10.98 7 12 C5.68 12 4.36 12 3 12 C3 10.68 3 9.36 3 8 C2.01 7.34 1.02 6.68 0 6 C-0.1875 2.875 -0.1875 2.875 0 0 Z " fill="#EDC05C" transform="translate(347,74)"/>
<path d="M0 0 C3 1 3 1 4.1796875 2.734375 C5.13874367 5.38319681 5.19893014 7.44065467 5.125 10.25 C5.10695313 11.14203125 5.08890625 12.0340625 5.0703125 12.953125 C5.03550781 13.96632813 5.03550781 13.96632813 5 15 C4.34 15 3.68 15 3 15 C3 15.66 3 16.32 3 17 C2.34 17 1.68 17 1 17 C1.16113281 16.4328125 1.32226562 15.865625 1.48828125 15.28125 C2.01017085 12.95465821 2.16711134 10.881395 2.1875 8.5 C2.20167969 7.7471875 2.21585937 6.994375 2.23046875 6.21875 C1.97417278 3.75135827 1.22845153 2.13643744 0 0 Z " fill="#F0D37C" transform="translate(360,97)"/>
<path d="M0 0 C0.33 0 0.66 0 1 0 C1.10824843 1.6026782 1.18570645 3.20745748 1.25 4.8125 C1.29640625 5.70582031 1.3428125 6.59914062 1.390625 7.51953125 C1 10 1 10 -0.890625 11.82421875 C-3 13 -3 13 -5 13 C-3.58192622 8.52761347 -1.88695626 4.28853694 0 0 Z " fill="#9CBEE3" transform="translate(403,246)"/>
<path d="M0 0 C0.33 1.32 0.66 2.64 1 4 C1.66 4 2.32 4 3 4 C3.33 9.28 3.66 14.56 4 20 C0.36915179 16.36915179 0.13101209 10.55473568 -0.125 5.5625 C-0.125 3.70786523 -0.06864311 1.85336404 0 0 Z " fill="#DB9F60" transform="translate(226,188)"/>
<path d="M0 0 C-8.91 3.465 -8.91 3.465 -18 7 C-18.66 6.34 -19.32 5.68 -20 5 C-19.26394531 4.73445313 -18.52789062 4.46890625 -17.76953125 4.1953125 C-16.79371094 3.84210938 -15.81789063 3.48890625 -14.8125 3.125 C-13.84957031 2.77695312 -12.88664062 2.42890625 -11.89453125 2.0703125 C-9.01852096 1.04783584 -9.01852096 1.04783584 -6.38671875 -0.1953125 C-4 -1 -4 -1 0 0 Z " fill="#9EBFE4" transform="translate(340,358)"/>
<path d="M0 0 C0.66 0 1.32 0 2 0 C1.54857225 1.77260631 1.08859477 3.5430368 0.625 5.3125 C0.36976563 6.29863281 0.11453125 7.28476562 -0.1484375 8.30078125 C-1 11 -1 11 -3 14 C-4.37095624 10.30962722 -3.60010967 8.29116165 -2.0625 4.75 C-1.68222656 3.85796875 -1.30195313 2.9659375 -0.91015625 2.046875 C-0.60980469 1.37140625 -0.30945313 0.6959375 0 0 Z " fill="#4C5E6B" transform="translate(403,290)"/>
<path d="M0 0 C2.1165563 3.17483445 2.22929149 3.66699005 1.9765625 7.23046875 C1.925 8.03291016 1.8734375 8.83535156 1.8203125 9.66210938 C1.72363281 10.91217773 1.72363281 10.91217773 1.625 12.1875 C1.56828125 13.03248047 1.5115625 13.87746094 1.453125 14.74804688 C1.31179176 16.83271217 1.1571675 18.91646866 1 21 C0.67 21 0.34 21 0 21 C-0.19511725 18.25034772 -0.38136433 15.50057868 -0.5625 12.75 C-0.61857422 11.97269531 -0.67464844 11.19539062 -0.73242188 10.39453125 C-0.80493164 9.26337891 -0.80493164 9.26337891 -0.87890625 8.109375 C-0.9260376 7.41811523 -0.97316895 6.72685547 -1.02172852 6.01464844 C-0.99853136 3.86382928 -0.5995764 2.05915129 0 0 Z " fill="#4B606E" transform="translate(77,221)"/>
<path d="M0 0 C1.8871875 0.0309375 1.8871875 0.0309375 3.8125 0.0625 C3.8125 0.7225 3.8125 1.3825 3.8125 2.0625 C0.52730525 3.15756492 -1.92413415 3.16210608 -5.375 3.125 C-7.00501953 3.11146484 -7.00501953 3.11146484 -8.66796875 3.09765625 C-9.49941406 3.08605469 -10.33085937 3.07445312 -11.1875 3.0625 C-7.38236939 1.09432899 -4.31111928 -0.07067409 0 0 Z " fill="#95653C" transform="translate(328.1875,196.9375)"/>
<path d="M0 0 C-1.40844718 3.21524305 -3.10344786 5.32183868 -5.625 7.75 C-6.57246094 8.67039062 -6.57246094 8.67039062 -7.5390625 9.609375 C-8.02117187 10.06828125 -8.50328125 10.5271875 -9 11 C-9.66 10.34 -10.32 9.68 -11 9 C-9.54782324 7.49403892 -8.08807139 5.99537896 -6.625 4.5 C-5.40683594 3.24703125 -5.40683594 3.24703125 -4.1640625 1.96875 C-2 0 -2 0 0 0 Z " fill="#394D59" transform="translate(385,326)"/>
<path d="M0 0 C0.66 1.32 1.32 2.64 2 4 C-1.22515763 5.73662334 -4.51329166 6.8905928 -8 8 C-7.04578192 6.85073734 -6.08647955 5.70569459 -5.125 4.5625 C-4.59132813 3.92441406 -4.05765625 3.28632813 -3.5078125 2.62890625 C-2 1 -2 1 0 0 Z " fill="#9EC4ED" transform="translate(109,177)"/>
<path d="M0 0 C0.66 0.99 1.32 1.98 2 3 C4.05003955 4.19232613 4.05003955 4.19232613 6 5 C5.443125 5.061875 4.88625 5.12375 4.3125 5.1875 C1.05012827 6.33373872 -0.68667874 8.49390197 -3 11 C-2.69078116 9.54096742 -2.37751201 8.08279278 -2.0625 6.625 C-1.88847656 5.81289062 -1.71445312 5.00078125 -1.53515625 4.1640625 C-1 2 -1 2 0 0 Z " fill="#E3DCD0" transform="translate(346,90)"/>
<path d="M0 0 C4.75481646 0.57634139 7.97048212 2.55068521 12 5 C11.01 5.66 10.02 6.32 9 7 C5.3125 5.625 5.3125 5.625 2 4 C2 3.01 2 2.02 2 1 C1.34 0.67 0.68 0.34 0 0 Z " fill="#273D4A" transform="translate(115,304)"/>
<path d="M0 0 C2.52588702 2.36292656 3.88820837 3.66462511 5 7 C4.01 7.33 3.02 7.66 2 8 C1.34 5.36 0.68 2.72 0 0 Z M0 8 C2.21736634 9.10868317 4.03617993 10.49440461 6 12 C4.35 12.33 2.7 12.66 1 13 C0.67 11.35 0.34 9.7 0 8 Z " fill="#94BDE8" transform="translate(264,278)"/>
<path d="M0 0 C0.66 0.33 1.32 0.66 2 1 C1.42676569 4.86933162 -0.38953552 7.15222057 -3 10 C-3.66 10 -4.32 10 -5 10 C-3.84414715 6.08788267 -2.64465038 3.1254959 0 0 Z " fill="#9BC3EB" transform="translate(90,198)"/>
<path d="M0 0 C0.33 1.32 0.66 2.64 1 4 C-7.261959 9.55580866 -7.261959 9.55580866 -12 10 C-11.319375 9.46375 -10.63875 8.9275 -9.9375 8.375 C-6.56615832 5.64923439 -3.27934457 2.83516822 0 0 Z " fill="#F2BA68" transform="translate(358,116)"/>
<path d="M0 0 C0.66 0 1.32 0 2 0 C2 0.66 2 1.32 2 2 C2.99 1.67 3.98 1.34 5 1 C6.5625 2.75 6.5625 2.75 8 5 C7.58984375 7.140625 7.58984375 7.140625 7 9 C5.83037314 7.69013727 4.66437056 6.3770374 3.5 5.0625 C2.8503125 4.33160156 2.200625 3.60070312 1.53125 2.84765625 C0 1 0 1 0 0 Z " fill="#454F50" transform="translate(93,335)"/>
<path d="M0 0 C2.95929119 2.75520215 5.03681826 5.46627288 7 9 C6.01 9.33 5.02 9.66 4 10 C1.997499 7.997499 1.06784629 6.593341 0 4 C0 2.68 0 1.36 0 0 Z " fill="#29424D" transform="translate(89,277)"/>
<path d="M0 0 C0.33 0.99 0.66 1.98 1 3 C1.66 3 2.32 3 3 3 C2.42647107 6.87132028 0.51295648 9.08172796 -2 12 C-2.66 11.67 -3.32 11.34 -4 11 C-2.68 7.37 -1.36 3.74 0 0 Z " fill="#405460" transform="translate(402,242)"/>
<path d="M0 0 C0.66 1.32 1.32 2.64 2 4 C1.34 4 0.68 4 0 4 C0.350625 5.0725 0.70125 6.145 1.0625 7.25 C1.94680186 10.78720743 2.02880551 11.74811124 1 15 C0.49242138 13.58603098 -0.00574925 12.16868271 -0.5 10.75 C-0.91765625 9.56664063 -0.91765625 9.56664063 -1.34375 8.359375 C-2 6 -2 6 -2 2 C-1.34 1.34 -0.68 0.68 0 0 Z " fill="#EFD381" transform="translate(346,78)"/>
<path d="M0 0 C0.33 0.99 0.66 1.98 1 3 C-0.125 5.1875 -0.125 5.1875 -2 7 C-4.6875 7.25 -4.6875 7.25 -7 7 C-4.78071806 4.09197539 -3.07030857 2.04687238 0 0 Z " fill="#9FC5EC" transform="translate(376,286)"/>
<path d="M0 0 C0.66 0.99 1.32 1.98 2 3 C1.23883449 4.15227823 0.46567307 5.2966386 -0.3125 6.4375 C-0.74175781 7.07558594 -1.17101562 7.71367187 -1.61328125 8.37109375 C-3 10 -3 10 -6 11 C-4.54955729 6.89041233 -2.48889248 3.56741255 0 0 Z " fill="#53676E" transform="translate(91,192)"/>
<path d="M0 0 C1.8871875 0.0309375 1.8871875 0.0309375 3.8125 0.0625 C0.66676323 2.15965785 -1.20206251 2.58254559 -4.875 3.1875 C-6.36580078 3.43886719 -6.36580078 3.43886719 -7.88671875 3.6953125 C-8.64597656 3.81648437 -9.40523438 3.93765625 -10.1875 4.0625 C-7.08842497 0.66827497 -4.52992189 -0.07426101 0 0 Z " fill="#91735A" transform="translate(349.1875,191.9375)"/>
<path d="M0 0 C0.66 0 1.32 0 2 0 C1.52354792 4.28806873 0.34097516 6.26647487 -3 9 C-3.66 9 -4.32 9 -5 9 C-5 8.34 -5 7.68 -5 7 C-4.34 7 -3.68 7 -3 7 C-2.67 5.35 -2.34 3.7 -2 2 C-1.34 2 -0.68 2 0 2 C0 1.34 0 0.68 0 0 Z " fill="#D8812A" transform="translate(421,160)"/>
<path d="M0 0 C0 0.99 0 1.98 0 3 C-7.625 5.125 -7.625 5.125 -11 4 C-9.73308493 3.32591692 -8.46129251 2.66099503 -7.1875 2 C-6.47980469 1.62875 -5.77210938 1.2575 -5.04296875 0.875 C-3 0 -3 0 0 0 Z " fill="#DE8D24" transform="translate(411,112)"/>
<path d="M0 0 C1.6498275 0.42218816 3.29483665 0.86324425 4.9375 1.3125 C6.31228516 1.67794922 6.31228516 1.67794922 7.71484375 2.05078125 C8.46894531 2.36402344 9.22304687 2.67726563 10 3 C10.33 3.99 10.66 4.98 11 6 C9.56068883 5.54738642 8.12361001 5.08767021 6.6875 4.625 C5.88699219 4.36976563 5.08648437 4.11453125 4.26171875 3.8515625 C2 3 2 3 -1 1 C-0.67 0.67 -0.34 0.34 0 0 Z " fill="#9BBEE3" transform="translate(141,314)"/>
<path d="M0 0 C0.66 0.33 1.32 0.66 2 1 C1.375 2.875 1.375 2.875 0 5 C-2.875 6.125 -2.875 6.125 -6 7 C-7.34721283 7.63815344 -8.68747118 8.29325371 -10 9 C-6.83047153 5.73991357 -3.60062011 2.77762123 0 0 Z " fill="#9AC0E7" transform="translate(120,168)"/>
<path d="M0 0 C3.3 0 6.6 0 10 0 C10 0.99 10 1.98 10 3 C6.7 2.67 3.4 2.34 0 2 C0 1.34 0 0.68 0 0 Z " fill="#46565A" transform="translate(266,140)"/>
<path d="M0 0 C1.50823205 2.39542737 2.05314624 3.58545931 1.6875 6.4375 C1.3471875 7.7059375 1.3471875 7.7059375 1 9 C0.814375 9.928125 0.62875 10.85625 0.4375 11.8125 C0.293125 12.534375 0.14875 13.25625 0 14 C-0.33 14 -0.66 14 -1 14 C-1.02705729 12.22925083 -1.04642195 10.45838289 -1.0625 8.6875 C-1.07410156 7.70136719 -1.08570313 6.71523437 -1.09765625 5.69921875 C-1 3 -1 3 0 0 Z " fill="#9B6742" transform="translate(432,102)"/>
<path d="M0 0 C0.66 1.32 1.32 2.64 2 4 C-2.82142857 9.22321429 -2.82142857 9.22321429 -7 10 C-6.57847656 9.44570313 -6.15695312 8.89140625 -5.72265625 8.3203125 C-5.17480469 7.59585937 -4.62695312 6.87140625 -4.0625 6.125 C-3.51722656 5.40570313 -2.97195313 4.68640625 -2.41015625 3.9453125 C-0.96035376 2.05642921 -0.96035376 2.05642921 0 0 Z " fill="#96BBE0" transform="translate(393,266)"/>
<path d="M0 0 C-8.01162791 4.31395349 -8.01162791 4.31395349 -12.375 3.625 C-12.91125 3.41875 -13.4475 3.2125 -14 3 C-8.99067246 -0.00559652 -5.67276511 -0.29341888 0 0 Z " fill="#92765F" transform="translate(367,188)"/>
<path d="M0 0 C2.33333333 0 4.66666667 0 7 0 C6.67 1.65 6.34 3.3 6 5 C4.02 4.34 2.04 3.68 0 3 C0 2.01 0 1.02 0 0 Z " fill="#475253" transform="translate(120,356)"/>
<path d="M0 0 C3.63 0 7.26 0 11 0 C7.99559979 2.00293347 6.29006055 2.49271626 2.8125 3.125 C1.46091797 3.37636719 1.46091797 3.37636719 0.08203125 3.6328125 C-0.60503906 3.75398437 -1.29210937 3.87515625 -2 4 C-1.34 3.67 -0.68 3.34 0 3 C0 2.01 0 1.02 0 0 Z " fill="#DB7E28" transform="translate(320,195)"/>
<path d="M0 0 C-1.40945366 0.56016748 -2.8280031 1.09748502 -4.25 1.625 C-5.43335938 2.07746094 -5.43335938 2.07746094 -6.640625 2.5390625 C-9.49917715 3.09752136 -10.58959839 2.53690745 -13 1 C-11.58622218 0.63447197 -10.16879424 0.28304505 -8.75 -0.0625 C-7.96109375 -0.25972656 -7.1721875 -0.45695313 -6.359375 -0.66015625 C-3.89605178 -1.01497267 -2.34395868 -0.76877544 0 0 Z " fill="#5D6C77" transform="translate(185,142)"/>
<path d="M0 0 C-1.45463481 0.38909985 -2.91391207 0.76088029 -4.375 1.125 C-5.59316406 1.43824219 -5.59316406 1.43824219 -6.8359375 1.7578125 C-7.55007813 1.83773438 -8.26421875 1.91765625 -9 2 C-9.66 1.34 -10.32 0.68 -11 0 C-4.03571429 -2.41071429 -4.03571429 -2.41071429 0 0 Z " fill="#405765" transform="translate(322,317)"/>
<path d="M0 0 C1.8125 0.1875 1.8125 0.1875 4 1 C5.75 3.5625 5.75 3.5625 7 6 C5.68 6.33 4.36 6.66 3 7 C2.87625 6.030625 2.7525 5.06125 2.625 4.0625 C2.41875 3.051875 2.2125 2.04125 2 1 C1.34 0.67 0.68 0.34 0 0 Z " fill="#E3E4E7" transform="translate(387,182)"/>
<path d="M0 0 C3.875 1.875 3.875 1.875 5 3 C5.04063832 4.66617115 5.042721 6.33388095 5 8 C4.67 7.01 4.34 6.02 4 5 C1.98491642 4.26676204 1.98491642 4.26676204 0 4 C0 2.68 0 1.36 0 0 Z " fill="#986949" transform="translate(388,71)"/>
<path d="M0 0 C2 0 2 0 3.5 1.1875 C5.26495414 3.32015292 6.08699059 5.40143476 7 8 C6.01 8.495 6.01 8.495 5 9 C4.16094435 7.87926138 3.32892169 6.75325453 2.5 5.625 C2.0359375 4.99851562 1.571875 4.37203125 1.09375 3.7265625 C0 2 0 2 0 0 Z " fill="#2D4558" transform="translate(281,301)"/>
<path d="M0 0 C2.97 0.495 2.97 0.495 6 1 C6.33 1.99 6.66 2.98 7 4 C4.03 3.505 4.03 3.505 1 3 C0.67 2.01 0.34 1.02 0 0 Z " fill="#A2C8F0" transform="translate(112,299)"/>
<path d="M0 0 C1.32 1.65 2.64 3.3 4 5 C3.401875 5.144375 2.80375 5.28875 2.1875 5.4375 C0.43849596 5.8872439 -1.28677023 6.42892341 -3 7 C-2.67 6.01 -2.34 5.02 -2 4 C-1.34 4 -0.68 4 0 4 C0 2.68 0 1.36 0 0 Z " fill="#394549" transform="translate(284,279)"/>
<path d="M0 0 C1.65 0 3.3 0 5 0 C3.515 3.465 3.515 3.465 2 7 C0 5 0 5 -0.125 2.375 C-0.08375 1.59125 -0.0425 0.8075 0 0 Z " fill="#E3EEF6" transform="translate(396,248)"/>
<path d="M0 0 C1.5 1 1.5 1 3 3 C3.27345479 5.71846235 3.13491285 8.25677199 3 11 C0.43383368 7.15075052 0.44902324 4.5650696 0 0 Z " fill="#DF9845" transform="translate(230,209)"/>
<path d="M0 0 C-0.33 0.99 -0.66 1.98 -1 3 C-4.0625 4.1875 -4.0625 4.1875 -7 5 C-7.66 4.34 -8.32 3.68 -9 3 C-2.25 0 -2.25 0 0 0 Z " fill="#50616E" transform="translate(145,153)"/>
<path d="M0 0 C0.66 0.33 1.32 0.66 2 1 C-0.3125 3.5 -0.3125 3.5 -3 6 C-3.99 6 -4.98 6 -6 6 C-5.34 5.01 -4.68 4.02 -4 3 C-3.34 3 -2.68 3 -2 3 C-2 2.34 -2 1.68 -2 1 C-1.34 0.67 -0.68 0.34 0 0 Z " fill="#D5BB92" transform="translate(274,143)"/>
<path d="M0 0 C-0.66 0 -1.32 0 -2 0 C-2 0.66 -2 1.32 -2 2 C-4.31 2 -6.62 2 -9 2 C-9 1.34 -9 0.68 -9 0 C-5.62182575 -0.84454356 -3.32534757 -1.10844919 0 0 Z " fill="#243E48" transform="translate(299,331)"/>
<path d="M0 0 C0.66 0.33 1.32 0.66 2 1 C1.34 2.98 0.68 4.96 0 7 C-0.99 6.67 -1.98 6.34 -3 6 C-3.33 5.01 -3.66 4.02 -4 3 C-2.68 2.01 -1.36 1.02 0 0 Z " fill="#9AC3EC" transform="translate(367,293)"/>
<path d="M0 0 C4.875 4.75 4.875 4.75 6 7 C4.35 6.67 2.7 6.34 1 6 C0.67 4.02 0.34 2.04 0 0 Z " fill="#99BDE3" transform="translate(271,289)"/>
<path d="M0 0 C1.32 0.33 2.64 0.66 4 1 C3.34 3.97 2.68 6.94 2 10 C1.67 10 1.34 10 1 10 C0.67 6.7 0.34 3.4 0 0 Z " fill="#8F5E3E" transform="translate(233,224)"/>
<path d="M0 0 C0.33 0.99 0.66 1.98 1 3 C1.66 3.33 2.32 3.66 3 4 C1.02 6.97 1.02 6.97 -1 10 C-2.46726798 6.18510326 -1.43336419 3.70988378 0 0 Z " fill="#97BDE1" transform="translate(82,212)"/>
<path d="M0 0 C-4.30769231 3.07692308 -4.30769231 3.07692308 -7.8125 2.6875 C-8.534375 2.460625 -9.25625 2.23375 -10 2 C-3.72972973 -1.24324324 -3.72972973 -1.24324324 0 0 Z " fill="#E8E8EA" transform="translate(296,210)"/>
<path d="M0 0 C-0.33 0.99 -0.66 1.98 -1 3 C-4.5625 4.1875 -4.5625 4.1875 -8 5 C-8.33 4.34 -8.66 3.68 -9 3 C-3.375 0 -3.375 0 0 0 Z " fill="#EF9926" transform="translate(238,185)"/>
<path d="M0 0 C0.66 0 1.32 0 2 0 C2.33 1.32 2.66 2.64 3 4 C1.68 4.33 0.36 4.66 -1 5 C-1.33 4.01 -1.66 3.02 -2 2 C-1.34 2 -0.68 2 0 2 C0 1.34 0 0.68 0 0 Z " fill="#E7EFF4" transform="translate(371,282)"/>
<path d="M0 0 C1.875 0.125 1.875 0.125 4 1 C5.25 4.0625 5.25 4.0625 6 7 C3 6 3 6 1.3125 2.9375 C0.879375 1.968125 0.44625 0.99875 0 0 Z " fill="#395466" transform="translate(255,265)"/>
<path d="M0 0 C0.99 0.33 1.98 0.66 3 1 C4.1875 4.5625 4.1875 4.5625 5 8 C4.01 8.495 4.01 8.495 3 9 C3 7.68 3 6.36 3 5 C2.34 5 1.68 5 1 5 C0.67 3.35 0.34 1.7 0 0 Z " fill="#38342B" transform="translate(246,223)"/>
<path d="M0 0 C-0.33 0.99 -0.66 1.98 -1 3 C-3.64 2.67 -6.28 2.34 -9 2 C-5.96271914 -1.03728086 -4.06215635 -1.35405212 0 0 Z " fill="#A35717" transform="translate(243,223)"/>
<path d="M0 0 C3 2 3 2 3.6875 4.625 C3.8421875 5.800625 3.8421875 5.800625 4 7 C3.01 7 2.02 7 1 7 C0.67 4.69 0.34 2.38 0 0 Z " fill="#8F6044" transform="translate(395,183)"/>
<path d="M0 0 C0.66 0.33 1.32 0.66 2 1 C-0.83430453 4.2542015 -2.68607774 5.5206753 -7 6 C-6.67 5.34 -6.34 4.68 -6 4 C-5.34 4 -4.68 4 -4 4 C-4 3.34 -4 2.68 -4 2 C-2.125 0.9375 -2.125 0.9375 0 0 Z " fill="#E1B76D" transform="translate(268,150)"/>
<path d="M0 0 C1.98 0 3.96 0 6 0 C5.67 0.99 5.34 1.98 5 3 C3.35 3 1.7 3 0 3 C0 2.01 0 1.02 0 0 Z " fill="#9D531C" transform="translate(356,67)"/>
</svg>
