<?xml version="1.0" encoding="UTF-8"?>
<svg version="1.1" xmlns="http://www.w3.org/2000/svg" width="500" height="500">
<path d="M0 0 C7.76982912 3.04133311 13.23645616 7.42827294 16.734375 15.0703125 C18.02708647 18.31763926 18.74335146 20.67285477 18.6640625 24.18359375 C18.59585998 28.17344098 18.90639001 30.48746193 20.734375 34.0703125 C25.94828768 37.85866283 32.3379583 39.8369671 38.31787109 42.10449219 C47.46109328 45.75882508 56.60756187 52.37461955 60.8671875 61.49609375 C61.77465862 64.18989315 62.43153358 66.85811345 63.046875 69.6328125 C64.36841754 75.10010777 66.3105289 80.0461841 68.52734375 85.203125 C72.85998715 95.49490577 74.72546771 105.3213935 70.734375 116.0703125 C81.96952409 122.5912611 93.27688115 128.94752028 104.734375 135.0703125 C113.51217997 139.76438763 122.21156508 144.56432689 130.83642578 149.53344727 C137.56549238 153.41018354 144.32974014 157.22024886 151.109375 161.0078125 C153.22919394 162.19396167 155.34898567 163.38015948 157.46875 164.56640625 C160.54913108 166.2897263 163.63000463 168.01212174 166.71289062 169.73095703 C177.78116697 175.9053627 188.76134265 182.20270185 199.609375 188.7578125 C200.6092041 189.35851562 201.6090332 189.95921875 202.63916016 190.578125 C203.55487793 191.13628906 204.4705957 191.69445312 205.4140625 192.26953125 C206.22601074 192.76283936 207.03795898 193.25614746 207.87451172 193.7644043 C209.734375 195.0703125 209.734375 195.0703125 210.734375 197.0703125 C210.91490487 199.49549512 211.03956579 201.89818607 211.12329102 204.32714844 C211.16740112 205.44965248 211.16740112 205.44965248 211.21240234 206.59483337 C211.30889925 209.08130114 211.39870513 211.5679615 211.48828125 214.0546875 C211.55378606 215.78950211 211.61962245 217.52430423 211.68577576 219.25909424 C211.82391318 222.90749203 211.95890672 226.55598836 212.09155273 230.20458984 C212.26035011 234.8442992 212.43541506 239.48374393 212.61273289 244.12313461 C212.74951488 247.71452215 212.88356387 251.30600772 213.0167675 254.8975296 C213.08029134 256.60529294 213.14446883 258.31303211 213.20935249 260.02074432 C213.30048732 262.43398825 213.38810481 264.84733706 213.47485352 267.26074219 C213.50133469 267.94597458 213.52781586 268.63120697 213.55509949 269.33720398 C213.79653673 276.24708076 213.7572882 283.15705348 213.734375 290.0703125 C183.64658528 288.63091293 153.57502605 286.94862049 123.50348616 285.20517516 C117.06682575 284.83245918 110.63004232 284.46188023 104.19326782 284.09114075 C93.33957275 283.46579208 82.4859211 282.83969708 71.63232422 282.21264648 C70.94989146 282.17322043 70.26745869 282.13379438 69.56434615 282.0931736 C62.03169532 281.65797104 54.49905683 281.22255547 46.96643066 280.78692627 C-36.74730192 275.93970328 -36.74730192 275.93970328 -120.47512007 271.34373689 C-123.4208931 271.18656401 -126.36663242 271.02877188 -129.31236649 270.87087059 C-133.87199962 270.62671935 -138.4317708 270.38529722 -142.99163413 270.145486 C-145.52042842 270.01174883 -148.04906093 269.87520467 -150.57769966 269.73856258 C-157.78717164 269.35544153 -164.98508008 269.02742447 -172.20391846 268.89437866 C-173.99770148 268.85485848 -173.99770148 268.85485848 -175.82772255 268.81453991 C-177.95901423 268.7740927 -180.09082393 268.7527306 -182.22249413 268.75745869 C-189.7700939 268.61147356 -196.60008804 266.66785545 -202.117136 261.25314617 C-219.79965545 240.12917014 -219.87993612 203.89360919 -221.953125 177.8203125 C-222.01796082 177.0077298 -222.08279663 176.19514709 -222.14959717 175.35794067 C-222.76965869 167.44805997 -223.31348211 159.56507591 -223.42578125 151.62890625 C-223.45442261 149.98873535 -223.45442261 149.98873535 -223.48364258 148.31542969 C-223.50405094 146.36432837 -223.4951799 144.41255158 -223.44799805 142.46191406 C-223.49857774 136.1281467 -225.30385359 132.87357661 -229.52270508 128.16918945 C-233.92425761 122.8687066 -236.02746584 116.08480486 -235.640625 109.23046875 C-234.62878051 103.40182289 -232.08638835 99.41130712 -227.515625 95.6953125 C-220.15367759 90.6967947 -211.51742356 89.89683575 -202.8515625 91.5234375 C-200.97603038 91.98735004 -199.11807545 92.52143829 -197.265625 93.0703125 C-197.42289063 92.52890625 -197.58015625 91.9875 -197.7421875 91.4296875 C-199.10516564 85.28611439 -199.45096177 78.34041177 -196.515625 72.6328125 C-192.72137598 67.55614971 -187.27263799 65.5146954 -181.265625 64.0703125 C-174.94557644 63.53639877 -168.40135273 63.19891554 -162.265625 65.0703125 C-162.595625 64.0596875 -162.925625 63.0490625 -163.265625 62.0078125 C-164.63548728 57.11967085 -164.89251651 52.95098704 -163.265625 48.0703125 C-159.8750684 42.9844776 -155.49595515 38.41809718 -149.515625 36.5703125 C-139.53389058 34.83181081 -131.02659966 37.39664295 -122.265625 42.0703125 C-122.10707031 41.44125 -121.94851562 40.8121875 -121.78515625 40.1640625 C-119.33924462 31.19121542 -115.94706279 24.51133094 -108.265625 19.0703125 C-102.43595049 16.32466149 -96.2492158 15.97569103 -90.01953125 17.6875 C-82.75066316 20.88976937 -78.23608212 26.97441864 -74.703125 33.8828125 C-73.02954929 37.0703136 -72.28006029 38.06029618 -69.203125 40.1953125 C-66.06521414 41.13000935 -65.25192241 41.10464907 -62.265625 40.0703125 C-60.80076925 39.21555229 -59.36273744 38.31411477 -57.9453125 37.3828125 C-51.45579309 33.39731066 -44.47475648 30.77775862 -37.390625 28.0703125 C-19.45434585 22.28807984 -19.45434585 22.28807984 -5.265625 11.0703125 C-4.515625 8.5703125 -4.515625 8.5703125 -5.265625 6.0703125 C-7.20460379 3.39632774 -7.20460379 3.39632774 -9.265625 1.0703125 C-9.265625 0.4103125 -9.265625 -0.2496875 -9.265625 -0.9296875 C-6.0136292 -2.5556854 -3.33902102 -1.07118883 0 0 Z " fill="#F08C1F" transform="translate(264.265625,71.9296875)"/>
<path d="M0 0 C7.76982912 3.04133311 13.23645616 7.42827294 16.734375 15.0703125 C18.02708647 18.31763926 18.74335146 20.67285477 18.6640625 24.18359375 C18.59585998 28.17344098 18.90639001 30.48746193 20.734375 34.0703125 C25.94828768 37.85866283 32.3379583 39.8369671 38.31787109 42.10449219 C47.46109328 45.75882508 56.60756187 52.37461955 60.8671875 61.49609375 C61.77465862 64.18989315 62.43153358 66.85811345 63.046875 69.6328125 C64.36841754 75.10010777 66.3105289 80.0461841 68.52734375 85.203125 C72.85998715 95.49490577 74.72546771 105.3213935 70.734375 116.0703125 C81.96952409 122.5912611 93.27688115 128.94752028 104.734375 135.0703125 C113.51217997 139.76438763 122.21156508 144.56432689 130.83642578 149.53344727 C137.56549238 153.41018354 144.32974014 157.22024886 151.109375 161.0078125 C153.22919394 162.19396167 155.34898567 163.38015948 157.46875 164.56640625 C160.54913108 166.2897263 163.63000463 168.01212174 166.71289062 169.73095703 C177.78116697 175.9053627 188.76134265 182.20270185 199.609375 188.7578125 C200.6092041 189.35851562 201.6090332 189.95921875 202.63916016 190.578125 C203.55487793 191.13628906 204.4705957 191.69445312 205.4140625 192.26953125 C206.22601074 192.76283936 207.03795898 193.25614746 207.87451172 193.7644043 C209.734375 195.0703125 209.734375 195.0703125 210.734375 197.0703125 C210.88810841 198.64969027 210.98408606 200.23487254 211.05078125 201.8203125 C211.09275635 202.80974854 211.13473145 203.79918457 211.17797852 204.81860352 C211.23683228 206.42819946 211.23683228 206.42819946 211.296875 208.0703125 C211.3393335 209.16851318 211.38179199 210.26671387 211.42553711 211.39819336 C211.85548912 223.6211147 211.83189121 235.84177949 211.734375 248.0703125 C211.404375 248.0703125 211.074375 248.0703125 210.734375 248.0703125 C210.70931885 247.46034424 210.6842627 246.85037598 210.65844727 246.22192383 C210.5419692 243.44203352 210.41947868 240.6624391 210.296875 237.8828125 C210.25755859 236.92310547 210.21824219 235.96339844 210.17773438 234.97460938 C210.13583984 234.04326172 210.09394531 233.11191406 210.05078125 232.15234375 C210.01412354 231.29874268 209.97746582 230.4451416 209.93969727 229.56567383 C209.78601163 227.06365401 209.78601163 227.06365401 209.22070312 224.625 C208.67019425 221.73317023 208.62162636 219.05629635 208.63671875 216.11328125 C208.63994141 215.00146484 208.64316406 213.88964844 208.64648438 212.74414062 C208.65486328 211.59365234 208.66324219 210.44316406 208.671875 209.2578125 C208.67638672 208.08798828 208.68089844 206.91816406 208.68554688 205.71289062 C208.6973057 202.83197892 208.71374074 199.95117206 208.734375 197.0703125 C207.8475 197.27197021 206.960625 197.47362793 206.046875 197.68139648 C202.46836494 198.10154437 200.98212031 197.70909989 197.734375 196.29296875 C191.19516939 193.72257492 184.65232124 192.60654514 177.734375 191.5078125 C176.56003906 191.31251953 175.38570313 191.11722656 174.17578125 190.91601562 C168.86424727 190.03838326 163.54754601 189.19605976 158.22827148 188.36694336 C147.88572214 186.75262105 137.5698242 185.02437831 127.26315308 183.19522095 C111.57430628 180.41271472 95.87076788 177.7312597 80.14990234 175.13623047 C71.89707124 173.77268748 63.65589457 172.35614046 55.421875 170.8828125 C46.73723635 169.33052006 38.03003024 168.12411227 29.26635742 167.10864258 C24.47540496 166.53269751 20.31578792 165.61955345 15.734375 164.0703125 C12.43689537 163.47687688 9.11947165 163.0597082 5.796875 162.6328125 C-1.58647906 161.63276532 -8.85285719 160.4112875 -16.1484375 158.88671875 C-21.3938705 157.81830269 -26.67328275 156.94951682 -31.953125 156.0703125 C-32.87198486 155.9163501 -33.79084473 155.7623877 -34.73754883 155.60375977 C-39.30417608 154.84975617 -43.87321595 154.122838 -48.45361328 153.45751953 C-58.49166252 151.9956348 -68.49173531 150.37180467 -78.484375 148.625 C-79.72649246 148.40797424 -80.96860992 148.19094849 -82.24836731 147.96734619 C-87.3924899 147.06650454 -92.53607602 146.16271591 -97.67871094 145.25341797 C-101.48812476 144.58091543 -105.29865349 143.91504678 -109.109375 143.25 C-110.25337769 143.04583466 -111.39738037 142.84166931 -112.5760498 142.63131714 C-118.96875471 141.52021422 -125.29374911 140.71918281 -131.76783752 140.26889038 C-134.81498851 140.02663727 -137.72144395 139.48721645 -140.703125 138.8203125 C-148.35898138 137.20521974 -156.05192458 135.87938405 -163.765625 134.5703125 C-173.63406346 132.8903508 -183.4730864 131.15059272 -193.265625 129.0703125 C-188.86632418 118.46871872 -174.41294656 110.48022055 -165.54345703 103.79980469 C-161.71039742 100.88947304 -157.92940029 97.91289542 -154.140625 94.9453125 C-146.29649382 88.82382063 -138.3284286 82.89947444 -130.265625 77.0703125 C-128.82021003 76.02097446 -127.37490161 74.97148966 -125.9296875 73.921875 C-117.79343306 68.02141676 -109.62056627 62.17577847 -101.39916992 56.39453125 C-97.41847391 53.59483882 -93.45462476 50.77378703 -89.50537109 47.92993164 C-84.20273183 44.11349674 -78.87118257 40.43364704 -73.265625 37.0703125 C-71.57291667 38.14453125 -69.88020833 39.21875 -68.1875 40.29296875 C-65.71092997 41.29467086 -64.78036779 40.9084649 -62.265625 40.0703125 C-60.80076925 39.21555229 -59.36273744 38.31411477 -57.9453125 37.3828125 C-51.45579309 33.39731066 -44.47475648 30.77775862 -37.390625 28.0703125 C-19.45434585 22.28807984 -19.45434585 22.28807984 -5.265625 11.0703125 C-4.515625 8.5703125 -4.515625 8.5703125 -5.265625 6.0703125 C-7.20460379 3.39632774 -7.20460379 3.39632774 -9.265625 1.0703125 C-9.265625 0.4103125 -9.265625 -0.2496875 -9.265625 -0.9296875 C-6.0136292 -2.5556854 -3.33902102 -1.07118883 0 0 Z " fill="#FAAF3B" transform="translate(264.265625,71.9296875)"/>
<path d="M0 0 C6.20592889 3.59357689 11.30758004 9.78334511 13.75 16.5 C13.48161912 19.11559265 13.09164783 20.18930339 11.13037109 21.97290039 C10.43508301 22.42656982 9.73979492 22.88023926 9.0234375 23.34765625 C7.85832642 24.12302734 7.85832642 24.12302734 6.66967773 24.9140625 C5.82993408 25.45804688 4.99019043 26.00203125 4.125 26.5625 C2.37233956 27.7284294 0.62105153 28.89642431 -1.12890625 30.06640625 C-2.00047363 30.64664551 -2.87204102 31.22688477 -3.77001953 31.82470703 C-7.18315642 34.13037206 -10.50639873 36.54424649 -13.8125 39 C-15.02726295 39.89984868 -16.24210777 40.79958683 -17.45703125 41.69921875 C-18.0701416 42.15345215 -18.68325195 42.60768555 -19.31494141 43.07568359 C-22.8564763 45.6824606 -26.43063833 48.24403785 -30 50.8125 C-65.90296243 76.64885833 -65.90296243 76.64885833 -100.25 104.5 C-101.11681396 105.20253906 -101.98362793 105.90507812 -102.87670898 106.62890625 C-105.89921887 110.28539388 -105.85860526 112.98705409 -105.625 117.5078125 C-105.60402252 118.2939241 -105.58304504 119.08003571 -105.56143188 119.88996887 C-105.48431993 122.47000251 -105.36854407 125.04656254 -105.25 127.625 C-105.18429868 129.42126597 -105.1196957 131.21757242 -105.05615234 133.01391602 C-104.60343805 144.83924837 -103.85736855 156.64480914 -102.875 168.4375 C-102.81828125 169.13159973 -102.7615625 169.82569946 -102.703125 170.54083252 C-102.05435119 178.26967307 -101.11151605 185.91145347 -99.796875 193.5546875 C-99.68010406 194.24332382 -99.56333313 194.93196014 -99.44302368 195.64146423 C-97.72353705 205.15445406 -94.8975447 215.79807814 -86.6484375 221.6328125 C-73.17151754 229.3748729 -55.09931873 228.62513379 -39.99277878 229.26182365 C-35.09283282 229.46921828 -30.19339189 229.68790598 -25.29394531 229.90673828 C-23.72200818 229.97685891 -23.72200818 229.97685891 -22.11831474 230.04839611 C-2.11302729 230.94883654 17.88473981 232.01232133 37.88330078 233.04956055 C42.86694491 233.30797353 47.85066666 233.56479627 52.83447266 233.82006836 C80.90039841 235.25772505 108.96018939 236.75546757 137.00918579 238.49571228 C152.33008766 239.44279022 167.65577438 240.20673927 182.99081612 240.88367558 C194.01026093 241.37169344 205.01946254 242.03069661 216.02987671 242.68675232 C226.88607389 243.33349926 237.74328534 243.95948513 248.6015625 244.5703125 C249.3767498 244.61395117 250.1519371 244.65758984 250.95061493 244.70255089 C255.63288131 244.96605636 260.31518316 245.22892646 264.99749756 245.49157715 C269.05564189 245.7193158 273.11375691 245.94757566 277.171875 246.17578125 C285.03122269 246.61767464 292.89060051 247.05902883 300.75 247.5 C301.49921667 253.3064292 301.80884492 259.01016515 301.78125 264.8671875 C301.77673828 266.1135498 301.77222656 267.35991211 301.76757812 268.64404297 C301.75887695 270.0577417 301.75887695 270.0577417 301.75 271.5 C271.66221028 270.06060043 241.59065105 268.37830799 211.51911116 266.63486266 C205.08245075 266.26214668 198.64566732 265.89156773 192.20889282 265.52082825 C181.35519775 264.89547958 170.5015461 264.26938458 159.64794922 263.64233398 C158.96551646 263.60290793 158.28308369 263.56348188 157.57997115 263.5228611 C150.04732032 263.08765854 142.51468183 262.65224297 134.98205566 262.21661377 C51.26832308 257.36939078 51.26832308 257.36939078 -32.45949507 252.77342439 C-35.4052681 252.61625151 -38.35100742 252.45845938 -41.29674149 252.30055809 C-45.85637462 252.05640685 -50.4161458 251.81498472 -54.97600913 251.5751735 C-57.50480342 251.44143633 -60.03343593 251.30489217 -62.56207466 251.16825008 C-69.77154664 250.78512903 -76.96945508 250.45711197 -84.18829346 250.32406616 C-85.38414881 250.29771937 -86.58000416 250.27137259 -87.81209755 250.24422741 C-89.94338923 250.2037802 -92.07519893 250.1824181 -94.20686913 250.18714619 C-101.7544689 250.04116106 -108.58446304 248.09754295 -114.101511 242.68283367 C-131.78403045 221.55885764 -131.86431112 185.32329669 -133.9375 159.25 C-134.00233582 158.4374173 -134.06717163 157.62483459 -134.13397217 156.78762817 C-134.75403369 148.87774747 -135.29785711 140.99476341 -135.41015625 133.05859375 C-135.43879761 131.41842285 -135.43879761 131.41842285 -135.46801758 129.74511719 C-135.48842594 127.79401587 -135.4795549 125.84223908 -135.43237305 123.89160156 C-135.48295274 117.5578342 -137.28822859 114.30326411 -141.50708008 109.59887695 C-145.90863261 104.2983941 -148.01184084 97.51449236 -147.625 90.66015625 C-146.61315551 84.83151039 -144.07076335 80.84099462 -139.5 77.125 C-132.13805259 72.1264822 -123.50179856 71.32652325 -114.8359375 72.953125 C-112.96040538 73.41703754 -111.10245045 73.95112579 -109.25 74.5 C-109.40726563 73.95859375 -109.56453125 73.4171875 -109.7265625 72.859375 C-111.08954064 66.71580189 -111.43533677 59.77009927 -108.5 54.0625 C-104.70575098 48.98583721 -99.25701299 46.9443829 -93.25 45.5 C-86.92995144 44.96608627 -80.38572773 44.62860304 -74.25 46.5 C-74.745 44.9840625 -74.745 44.9840625 -75.25 43.4375 C-76.61986228 38.54935835 -76.87689151 34.38067454 -75.25 29.5 C-71.8594434 24.4141651 -67.48033015 19.84778468 -61.5 18 C-51.51826558 16.26149831 -43.01097466 18.82633045 -34.25 23.5 C-34.01216797 22.55640625 -34.01216797 22.55640625 -33.76953125 21.59375 C-31.32361962 12.62090292 -27.93143779 5.94101844 -20.25 0.5 C-13.8745738 -2.50268829 -6.52348465 -2.87389382 0 0 Z " fill="#985524" transform="translate(176.25,90.5)"/>
<path d="M0 0 C7.76982912 3.04133311 13.23645616 7.42827294 16.734375 15.0703125 C18.02708647 18.31763926 18.74335146 20.67285477 18.6640625 24.18359375 C18.59585998 28.17344098 18.90639001 30.48746193 20.734375 34.0703125 C25.94828768 37.85866283 32.3379583 39.8369671 38.31787109 42.10449219 C47.46109328 45.75882508 56.60756187 52.37461955 60.8671875 61.49609375 C61.77465862 64.18989315 62.43153358 66.85811345 63.046875 69.6328125 C64.36841754 75.10010777 66.3105289 80.0461841 68.52734375 85.203125 C72.55271161 94.76500206 74.21869408 103.60292222 71.859375 113.8828125 C68.70538559 118.61379661 64.5585111 121.17293346 59.734375 124.0703125 C59.08210937 124.4621875 58.42984375 124.8540625 57.7578125 125.2578125 C41.46882209 134.13011366 22.54754851 134.48592611 4.484375 134.4453125 C3.61197174 134.44510101 2.73956848 134.44488953 1.84072876 134.44467163 C-26.36600248 134.37678423 -64.91539458 132.22704062 -86.21875 111.13671875 C-90.265625 106.58871203 -90.265625 106.58871203 -90.265625 104.0703125 C-90.925625 104.0703125 -91.585625 104.0703125 -92.265625 104.0703125 C-94.35454349 97.93411445 -95.71179442 91.97626115 -93.390625 85.70703125 C-89.3827693 77.86270842 -83.14613438 72.79564421 -75.265625 69.0703125 C-73.26662229 69.00716053 -71.26429658 68.99742967 -69.265625 69.0703125 C-69.26675293 68.51158447 -69.26788086 67.95285645 -69.26904297 67.37719727 C-69.17423912 47.40862076 -69.17423912 47.40862076 -64.22851562 41.92016602 C-56.80688494 34.92592525 -46.74952285 31.64713935 -37.390625 28.0703125 C-19.45434585 22.28807984 -19.45434585 22.28807984 -5.265625 11.0703125 C-4.515625 8.5703125 -4.515625 8.5703125 -5.265625 6.0703125 C-7.20460379 3.39632774 -7.20460379 3.39632774 -9.265625 1.0703125 C-9.265625 0.4103125 -9.265625 -0.2496875 -9.265625 -0.9296875 C-6.0136292 -2.5556854 -3.33902102 -1.07118883 0 0 Z " fill="#F5F5F5" transform="translate(264.265625,71.9296875)"/>
<path d="M0 0 C4.95 2.475 4.95 2.475 10 5 C8 10 8 10 7 12 C6.781346 13.51818102 6.60981021 15.04333251 6.46484375 16.5703125 C6.37783203 17.46621094 6.29082031 18.36210938 6.20117188 19.28515625 C6.11416016 20.22230469 6.02714844 21.15945312 5.9375 22.125 C5.84662109 23.06988281 5.75574219 24.01476562 5.66210938 24.98828125 C5.43785901 27.32520611 5.21730943 29.66242116 5 32 C3.95199219 32.27199219 2.90398437 32.54398438 1.82421875 32.82421875 C-5.19189135 34.83563315 -12.07339958 38.71743933 -16 45 C-16.86625 46.36125 -16.86625 46.36125 -17.75 47.75 C-20.16480423 54.02849101 -19.10671204 60.49806678 -18 67 C-17.34 67 -16.68 67 -16 67 C-14.5625 68.64453125 -14.5625 68.64453125 -13 70.8125 C-12.484375 71.52019531 -11.96875 72.22789062 -11.4375 72.95703125 C-10.26681246 74.62080729 -9.12846526 76.30730211 -8 78 C-9.98 78 -11.96 78 -14 78 C-14.21914062 78.61746094 -14.43828125 79.23492187 -14.6640625 79.87109375 C-16.47951337 82.7641368 -18.15176689 83.06442112 -21.375 84.0625 C-25.21327526 85.26778051 -27.80443154 86.59992412 -31 89 C-31.99 89 -32.98 89 -34 89 C-34 89.66 -34 90.32 -34 91 C-34.66 91 -35.32 91 -36 91 C-36 91.66 -36 92.32 -36 93 C-38.046875 94.4375 -38.046875 94.4375 -40.75 96 C-41.63171875 96.515625 -42.5134375 97.03125 -43.421875 97.5625 C-45.5901988 98.77150479 -47.76767294 99.91513077 -50 101 C-50 101.66 -50 102.32 -50 103 C-52.94338446 103.90306989 -54.95934299 104.02690283 -57.96484375 103.3984375 C-59.14312744 103.16145142 -59.14312744 103.16145142 -60.34521484 102.91967773 C-61.20066895 102.73993408 -62.05612305 102.56019043 -62.9375 102.375 C-71.8932546 100.57603094 -80.8686699 98.96292468 -89.875 97.4375 C-99.61830569 95.77859366 -109.33157762 94.05391356 -119 92 C-114.60069918 81.39840622 -100.14732156 73.40990805 -91.27783203 66.72949219 C-87.44477242 63.81916054 -83.66377529 60.84258292 -79.875 57.875 C-72.03086882 51.75350813 -64.0628036 45.82916194 -56 40 C-54.55458503 38.95066196 -53.10927661 37.90117716 -51.6640625 36.8515625 C-42.84134231 30.45327538 -33.96671677 24.13250682 -25.0546875 17.859375 C-19.01359593 13.60492256 -13.00799281 9.30100726 -7 5 C-4.66702123 3.33283633 -2.33353229 1.66638893 0 0 Z " fill="#F8CD55" transform="translate(190,109)"/>
<path d="M0 0 C9.03686883 2.52048722 15.04267012 5.67160529 19.95703125 13.83984375 C21.78997763 17.63617089 23.02582125 20.85669255 22.9296875 25.11328125 C22.86132003 29.11277843 23.16004501 31.41036818 25 35 C30.22052572 38.78527946 36.49818557 40.73954787 42.49707031 42.953125 C46.28120643 44.53587721 49.62913549 46.68067412 53 49 C49.26871762 50.24376079 47.6019053 49.56163256 43.8125 48.59765625 C35.87864449 46.80479245 28.10690633 46.51216887 20 46.4375 C9.83645044 46.31714218 0.03676387 45.69468406 -10 44 C-10 43.34 -10 42.68 -10 42 C-4.68207768 40.7050922 0.49345695 39.74182463 5.95703125 39.34375 C9.9734932 38.66793996 11.71715177 37.37174339 14.1875 34.125 C17.50931466 28.39773334 17.7102516 22.52484472 17 16 C15.27589884 12.57776469 15.27589884 12.57776469 13 10 C12.71125 9.2575 12.4225 8.515 12.125 7.75 C10.3743857 5.0268222 8.04068741 4.8346985 5 4 C3.32836805 3.34588315 1.65984798 2.68346682 0 2 C0 1.34 0 0.68 0 0 Z " fill="#DBDBDB" transform="translate(260,71)"/>
<path d="M0 0 C3.47462821 2.67958616 3.9062402 5.78383521 4.875 9.9375 C6.36247898 16.01762549 8.36953241 21.58275985 10.89453125 27.32421875 C12.34585202 30.83713299 13.21454739 34.28695132 14 38 C12 37 12 37 10.6875 34.3125 C8.63271944 30.27904186 6.1717161 26.08585805 2 24 C2 23.34 2 22.68 2 22 C-1.11785113 22.64644661 -1.11785113 22.64644661 -2 25 C-2.66 25 -3.32 25 -4 25 C-4 25.66 -4 26.32 -4 27 C-5.9151579 27.81604999 -7.83218834 28.62770632 -9.75 29.4375 C-10.81734375 29.88996094 -11.8846875 30.34242188 -12.984375 30.80859375 C-17.10962853 32.43838951 -20.31806429 33.12767553 -24.75 33.0625 C-25.54921875 33.05347656 -26.3484375 33.04445312 -27.171875 33.03515625 C-27.77515625 33.02355469 -28.3784375 33.01195312 -29 33 C-26.32104398 31.21402932 -23.65938178 29.74370948 -20.8125 28.25 C-8.75745399 21.74073597 -8.75745399 21.74073597 -1.25390625 10.76171875 C-0.37258114 7.04799709 0 3.84077441 0 0 Z " fill="#DCDCDC" transform="translate(322,130)"/>
<path d="M0 0 C2.58674403 2.58674403 2.68636719 4.71418504 3.33984375 8.22265625 C3.66662109 9.10244141 3.66662109 9.10244141 4 10 C4.99 10.33 5.98 10.66 7 11 C6.67 12.98 6.34 14.96 6 17 C7.65 17.33 9.3 17.66 11 18 C11 19.32 11 20.64 11 22 C11.66 22 12.32 22 13 22 C13 22.66 13 23.32 13 24 C13.969375 24.268125 14.93875 24.53625 15.9375 24.8125 C16.948125 25.204375 17.95875 25.59625 19 26 C19.33 26.99 19.66 27.98 20 29 C20.86625 28.79375 21.7325 28.5875 22.625 28.375 C26 28 26 28 28.734375 28.97265625 C32.53944079 30.16970446 35.64604451 30.16217323 39.625 30.0625 C47.57899075 29.87992337 47.57899075 29.87992337 51 31 C51 31.66 51 32.32 51 33 C52.47593628 32.98428955 52.47593628 32.98428955 53.98168945 32.96826172 C57.63253135 32.93205969 61.28335737 32.90909885 64.93432617 32.89013672 C66.51443144 32.88007959 68.0945181 32.86643215 69.67456055 32.84912109 C71.9458475 32.82485978 74.21688836 32.81351418 76.48828125 32.8046875 C77.19463211 32.79436493 77.90098297 32.78404236 78.6287384 32.77340698 C82.32197792 32.77256225 83.83919216 32.89279477 87 35 C23.61120547 35.73707901 23.61120547 35.73707901 10 25.375 C4.28468372 19.78732106 0.16872829 10.55566384 -0.125 2.625 C-0.08375 1.75875 -0.0425 0.8925 0 0 Z " fill="#D98028" transform="translate(77,286)"/>
<path d="M0 0 C14.20275399 -0.27024268 28.32137818 0.16677602 42.5 0.9375 C43.30407288 0.98106628 44.10814575 1.02463257 44.93658447 1.06951904 C53.00128367 1.51101792 61.06039354 1.99857503 69.1171875 2.56640625 C74.31092503 2.91976664 79.42128238 3.08478562 84.625 3 C88.95855588 2.9308015 92.7744425 3.08326888 97 4 C98.41609695 4.04017296 99.83399328 4.04323685 101.25 4 C102.4875 4 103.725 4 105 4 C105.495 4.495 105.495 4.495 106 5 C108.34987262 5.23527773 110.70556039 5.41386417 113.0625 5.5625 C114.99802734 5.68818359 114.99802734 5.68818359 116.97265625 5.81640625 C118.47119141 5.90728516 118.47119141 5.90728516 120 6 C120.33 5.34 120.66 4.68 121 4 C121.69480469 4.15339844 122.38960938 4.30679687 123.10546875 4.46484375 C126.17955844 5.03319771 129.19621221 5.32278555 132.3125 5.5625 C133.38113281 5.64628906 134.44976562 5.73007812 135.55078125 5.81640625 C136.35902344 5.87699219 137.16726563 5.93757813 138 6 C137.67 6.66 137.34 7.32 137 8 C119.25732036 7.56925894 101.54904829 6.9428404 83.83251953 5.8737793 C82.34538502 5.78421922 80.85824282 5.6947868 79.37109375 5.60546875 C78.59811951 5.55903732 77.82514526 5.5126059 77.02874756 5.46476746 C69.53272483 5.02048315 62.03421992 4.62740646 54.53515625 4.23828125 C53.26465424 4.17227722 51.99415222 4.10627319 50.68515015 4.03826904 C45.54530448 3.77180981 40.40542254 3.50612263 35.26538086 3.24346924 C31.64688864 3.05843675 28.02851844 2.87114935 24.41015625 2.68359375 C23.33637222 2.6294783 22.2625882 2.57536285 21.15626526 2.51960754 C14.09038478 2.15139296 7.04757143 1.6269847 0 1 C0 0.67 0 0.34 0 0 Z " fill="#D77E29" transform="translate(280,327)"/>
<path d="M0 0 C5.30191714 -0.02479671 10.6038002 -0.04290578 15.90576172 -0.05493164 C17.70785104 -0.05994733 19.50993631 -0.06676146 21.31201172 -0.07543945 C23.90853882 -0.08762636 26.50501192 -0.09325606 29.1015625 -0.09765625 C29.9017984 -0.10281754 30.7020343 -0.10797882 31.52651978 -0.11329651 C35.81167086 -0.11372219 39.77110414 0.22541155 44 1 C45.45973588 1.06279784 46.92192869 1.08680867 48.3828125 1.0625 C49.15753906 1.05476563 49.93226563 1.04703125 50.73046875 1.0390625 C51.52066406 1.02617187 52.31085938 1.01328125 53.125 1 C54.7108674 0.97438017 56.29681773 0.95338643 57.8828125 0.9375 C58.92526123 0.92009766 58.92526123 0.92009766 59.98876953 0.90234375 C62.11162485 1.00542 63.95268469 1.44838896 66 2 C71.14906189 2.39736113 71.14906189 2.39736113 76 1 C76 1.99 76 2.98 76 4 C77.14855469 3.91621094 78.29710937 3.83242188 79.48046875 3.74609375 C98.93064792 2.42982151 98.93064792 2.42982151 107 4 C107.495 4.99 107.495 4.99 108 6 C96.28764665 6.21772261 84.6394231 5.54247285 72.94921875 4.90625 C70.83789131 4.79384895 68.72654761 4.6817528 66.6151886 4.56994629 C61.09961687 4.27705988 55.58427352 3.98007362 50.06896973 3.68218994 C44.42436884 3.37806493 38.77955866 3.07787735 33.13476562 2.77734375 C22.08963714 2.18871712 11.04474625 1.59575264 0 1 C0 0.67 0 0.34 0 0 Z " fill="#D97F2B" transform="translate(164,321)"/>
<path d="M0 0 C2.81256281 -0.02684312 5.62487241 -0.04676188 8.4375 -0.0625 C9.23994141 -0.07087891 10.04238281 -0.07925781 10.86914062 -0.08789062 C12.91295221 -0.0965143 14.95683902 -0.0522815 17 0 C17.33 0.33 17.66 0.66 18 1 C20.0025951 1.21282138 22.01223501 1.3595858 24.02246094 1.48071289 C25.31601501 1.56072037 26.60956909 1.64072784 27.94232178 1.72315979 C29.3729898 1.80660669 30.80367473 1.88976413 32.234375 1.97265625 C33.70722817 2.06067713 35.18006734 2.14893263 36.65289307 2.2374115 C39.75995479 2.42290486 42.86720161 2.60482419 45.97460938 2.78442383 C49.8938506 3.01131464 53.81243317 3.2479027 57.73093414 3.48719215 C79.07281053 4.82462579 79.07281053 4.82462579 100.44915771 5.01100159 C105.95923552 4.91036453 111.58055765 4.91010876 117 6 C117.99 6.99 117.99 6.99 119 8 C106.11458321 8.27034969 93.30243559 7.43914917 80.4453125 6.6875 C78.08879547 6.55263157 75.73225822 6.4181159 73.3757019 6.28393555 C67.2173033 5.93234244 61.05918845 5.57600314 54.90112305 5.21862793 C48.59961301 4.85378651 42.29784272 4.4934991 35.99609375 4.1328125 C23.66380562 3.42629691 11.33181285 2.71476002 -1 2 C-0.67 1.34 -0.34 0.68 0 0 Z " fill="#885733" transform="translate(282,349)"/>
<path d="M0 0 C-13.79743616 4.86968335 -27.87034718 5.3317713 -42.3425293 5.26074219 C-44.93106576 5.25002664 -47.51890633 5.26070188 -50.10742188 5.2734375 C-60.56448256 5.28089644 -70.65763744 4.5865457 -81 3 C-81 2.67 -81 2.34 -81 2 C-77.60418484 1.9708456 -74.20840214 1.95314932 -70.8125 1.9375 C-69.85279297 1.92912109 -68.89308594 1.92074219 -67.90429688 1.91210938 C-66.97294922 1.90888672 -66.04160156 1.90566406 -65.08203125 1.90234375 C-63.80162964 1.89448853 -63.80162964 1.89448853 -62.49536133 1.88647461 C-60 2 -60 2 -57.52514648 2.49780273 C-54.79645653 3.04048041 -52.29616308 3.1294439 -49.515625 3.1328125 C-47.99001953 3.13474609 -47.99001953 3.13474609 -46.43359375 3.13671875 C-44.85771484 3.13091797 -44.85771484 3.13091797 -43.25 3.125 C-41.65091797 3.13080078 -41.65091797 3.13080078 -40.01953125 3.13671875 C-39.00761719 3.13542969 -37.99570312 3.13414062 -36.953125 3.1328125 C-35.56335449 3.13112061 -35.56335449 3.13112061 -34.14550781 3.12939453 C-32.01803517 3.23912063 -32.01803517 3.23912063 -31 2 C-29.34287836 1.78436641 -27.6778304 1.62892616 -26.01171875 1.5 C-24.48708008 1.37625 -24.48708008 1.37625 -22.93164062 1.25 C-21.86107422 1.1675 -20.79050781 1.085 -19.6875 1 C-17.58700175 0.83635802 -15.48672777 0.6698049 -13.38671875 0.5 C-11.98232544 0.39171875 -11.98232544 0.39171875 -10.54956055 0.28125 C-8.03892603 0.06397577 -8.03892603 0.06397577 -5.80395508 -0.55859375 C-3.57975116 -1.10282987 -2.15321791 -0.69210576 0 0 Z " fill="#FBE9C9" transform="translate(313,201)"/>
<path d="M0 0 C1.89213469 2.83820204 3.56470017 5.72304241 5.25 8.6875 C8.18197924 13.74623986 11.34115189 18.44319283 15 23 C8.86070431 22.63164226 6.18329647 21.28289877 2 17 C1.67 15.68 1.34 14.36 1 13 C-3.455 13.495 -3.455 13.495 -8 14 C-7.67 13.34 -7.34 12.68 -7 12 C-5.02 12 -3.04 12 -1 12 C-1.020625 10.948125 -1.04125 9.89625 -1.0625 8.8125 C-1.01103198 5.67295096 -0.73482813 3.03116604 0 0 Z " fill="#E0DCD4" transform="translate(196,129)"/>
<path d="M0 0 C0.66 0 1.32 0 2 0 C2.33 7.92 2.66 15.84 3 24 C3.66 24 4.32 24 5 24 C5.0270043 25.45823212 5.04639787 26.91660675 5.0625 28.375 C5.07410156 29.18710938 5.08570313 29.99921875 5.09765625 30.8359375 C5 33 5 33 4 35 C3.91489795 36.9593604 3.89282344 38.92162794 3.90234375 40.8828125 C3.90556641 42.04941406 3.90878906 43.21601563 3.91210938 44.41796875 C3.92048828 45.64128906 3.92886719 46.86460937 3.9375 48.125 C3.94201172 49.35605469 3.94652344 50.58710938 3.95117188 51.85546875 C3.9629867 54.90369392 3.97945972 57.95182314 4 61 C3.67 61 3.34 61 3 61 C-0.58165209 20.37936593 -0.58165209 20.37936593 0 0 Z " fill="#8D5731" transform="translate(41,208)"/>
<path d="M0 0 C0.33 0 0.66 0 1 0 C1 5.28 1 10.56 1 16 C-16.71443712 16.32503554 -34.32922862 15.10829192 -52 14 C-52 13.67 -52 13.34 -52 13 C-17.43425076 12.80122324 -17.43425076 12.80122324 -2 14 C-1.34 9.38 -0.68 4.76 0 0 Z " fill="#D47C29" transform="translate(476,322)"/>
<path d="M0 0 C4.95 0.99 9.9 1.98 15 3 C15 3.33 15 3.66 15 4 C12.69 4.33 10.38 4.66 8 5 C8 4.34 8 3.68 8 3 C6.35 3.33 4.7 3.66 3 4 C1.96778854 8.07532378 2.07184199 11.51177584 2.4375 15.6875 C3.35121876 27.43572115 3.08760687 39.2256371 3 51 C2.67 51 2.34 51 2 51 C0.75243853 40.47303039 0.66625942 29.89799194 0.4375 19.3125 C0.39421918 17.43553903 0.35060216 15.55858578 0.30664062 13.68164062 C0.20054977 9.12117354 0.09901254 4.56062602 0 0 Z " fill="#D9812A" transform="translate(70,200)"/>
<path d="M0 0 C-1.450954 3.82524236 -3.38181932 5.19090966 -7 7 C-7.66 7 -8.32 7 -9 7 C-9.99 9.97 -10.98 12.94 -12 16 C-12.66 16 -13.32 16 -14 16 C-14.64924506 25.08943077 -11.08469352 30.73615211 -6 38 C-6.33 38.66 -6.66 39.32 -7 40 C-12 34.25 -12 34.25 -12 32 C-12.66 32 -13.32 32 -14 32 C-16.08891849 25.86380195 -17.44616942 19.90594865 -15.125 13.63671875 C-12.35818006 8.22139683 -6.8342585 0 0 0 Z " fill="#FCF0D6" transform="translate(186,144)"/>
<path d="M0 0 C0 0.33 0 0.66 0 1 C-0.74765625 1.02578125 -1.4953125 1.0515625 -2.265625 1.078125 C-8.40692205 1.28686884 -8.40692205 1.28686884 -13.6875 4.0625 C-14.3371875 5.0215625 -14.3371875 5.0215625 -15 6 C-15.66 5.67 -16.32 5.34 -17 5 C-17 4.34 -17 3.68 -17 3 C-17.928125 3.495 -18.85625 3.99 -19.8125 4.5 C-23 6 -23 6 -26 6 C-26.28875 6.7425 -26.5775 7.485 -26.875 8.25 C-28 11 -28 11 -29.0625 12.75 C-30.34354513 15.8245083 -30.19131251 18.43437451 -30.125 21.75 C-30.10695313 22.92046875 -30.08890625 24.0909375 -30.0703125 25.296875 C-30.04710938 26.18890625 -30.02390625 27.0809375 -30 28 C-33.14850704 23.27723945 -32.63749398 18.52027752 -32 13 C-30.66738667 8.44380248 -28.49042265 5.96148717 -24.5234375 3.40234375 C-16.33969841 -0.55717422 -8.88773777 -0.54637732 0 0 Z " fill="#8A5632" transform="translate(98,136)"/>
<path d="M0 0 C0.66 0 1.32 0 2 0 C4.34605607 3.75368972 4.55364353 7.70381902 5 12 C5.18091429 13.33424287 5.367922 14.66768118 5.5625 16 C5.706875 16.99 5.85125 17.98 6 19 C6.66 19 7.32 19 8 19 C8 20.65 8 22.3 8 24 C8.99 24.33 9.98 24.66 11 25 C11 27.31 11 29.62 11 32 C7.95132456 28.47809733 6.49715511 24.50746543 4.9375 20.1875 C4.55368164 19.15786133 4.55368164 19.15786133 4.16210938 18.10742188 C-0.35374724 5.83682948 -0.35374724 5.83682948 0 0 Z " fill="#8B5731" transform="translate(49,297)"/>
<path d="M0 0 C0.33 0.66 0.66 1.32 1 2 C4.89960764 3.98188469 8.48049093 4.362454 12.8125 4.625 C14.55466797 4.73714844 14.55466797 4.73714844 16.33203125 4.8515625 C17.21246094 4.90054687 18.09289062 4.94953125 19 5 C19 5.33 19 5.66 19 6 C0.17995444 6.18451025 0.17995444 6.18451025 -9 5 C-8.34 4.67 -7.68 4.34 -7 4 C-6.67 3.01 -6.34 2.02 -6 1 C-4.02 0.67 -2.04 0.34 0 0 Z " fill="#8E5631" transform="translate(137,337)"/>
<path d="M0 0 C5.75 1.875 5.75 1.875 8 3 C6.125 7.75 6.125 7.75 5 10 C4.781346 11.51818102 4.60981021 13.04333251 4.46484375 14.5703125 C4.37783203 15.46621094 4.29082031 16.36210938 4.20117188 17.28515625 C4.11416016 18.22230469 4.02714844 19.15945312 3.9375 20.125 C3.84662109 21.06988281 3.75574219 22.01476562 3.66210938 22.98828125 C3.43785901 25.32520611 3.21730943 27.66242116 3 30 C2.34 29.67 1.68 29.34 1 29 C1.39728885 20.47919963 1.78227509 12.27950633 4 4 C2.68 3.34 1.36 2.68 0 2 C0 1.34 0 0.68 0 0 Z " fill="#EAD071" transform="translate(192,111)"/>
<path d="M0 0 C5.89123586 0.8182272 9.0532951 3.71182969 13 8 C15.00810064 10.85386538 16.83017359 13.70147308 18 17 C17.67 17.99 17.34 18.98 17 20 C16.67386719 19.30132812 16.34773438 18.60265625 16.01171875 17.8828125 C15.57472656 16.97273438 15.13773438 16.06265625 14.6875 15.125 C14.25824219 14.22007813 13.82898438 13.31515625 13.38671875 12.3828125 C12.0800612 9.73550524 12.0800612 9.73550524 9 8 C8.01 8.33 7.02 8.66 6 9 C5.67 8.01 5.34 7.02 5 6 C5.66 6 6.32 6 7 6 C7 5.34 7 4.68 7 4 C6.21625 3.71125 5.4325 3.4225 4.625 3.125 C2 2 2 2 0 0 Z " fill="#8E5933" transform="translate(172,90)"/>
<path d="M0 0 C0 0.99 0 1.98 0 3 C-0.99 3.66 -1.98 4.32 -3 5 C-3.99 6.485 -3.99 6.485 -5 8 C-6.31018441 8.71108299 -7.64777819 9.37253017 -9 10 C-10.59699597 11.02059676 -12.18018683 12.06306756 -13.75 13.125 C-14.54921875 13.66382813 -15.3484375 14.20265625 -16.171875 14.7578125 C-16.77515625 15.16773438 -17.3784375 15.57765625 -18 16 C-18 15.01 -18 14.02 -18 13 C-16.34765625 11.46606445 -16.34765625 11.46606445 -14.0625 9.86328125 C-13.25039062 9.28642578 -12.43828125 8.70957031 -11.6015625 8.11523438 C-10.31378906 7.22288086 -10.31378906 7.22288086 -9 6.3125 C-7.71222656 5.40274414 -7.71222656 5.40274414 -6.3984375 4.47460938 C-4.27170688 2.97408277 -2.13888554 1.48312498 0 0 Z " fill="#F7C55E" transform="translate(166,126)"/>
<path d="M0 0 C2.44118791 1.26413298 4.87783192 2.53592013 7.3125 3.8125 C8.00279297 4.16892578 8.69308594 4.52535156 9.40429688 4.89257812 C10.07138672 5.24384766 10.73847656 5.59511719 11.42578125 5.95703125 C12.03848877 6.27647705 12.65119629 6.59592285 13.2824707 6.92504883 C15.13643272 8.08538924 16.51434256 9.40296797 18 11 C14.27566618 9.7874262 10.62197194 8.49140021 7 7 C7 6.34 7 5.68 7 5 C5.68 5 4.36 5 3 5 C3 4.34 3 3.68 3 3 C-0.86648272 4.04097612 -4.49461443 5.03698408 -8 7 C-5.42215154 4.35247996 -3.08351902 2.05567935 0 0 Z " fill="#E9B359" transform="translate(334,188)"/>
<path d="M0 0 C0.66 0.33 1.32 0.66 2 1 C1.21625 1.598125 0.4325 2.19625 -0.375 2.8125 C-3.14574323 4.91085249 -3.14574323 4.91085249 -5 8 C-4.67 8.99 -4.34 9.98 -4 11 C-4.86625 10.95875 -5.7325 10.9175 -6.625 10.875 C-10.12358468 11.00457721 -12.74551597 11.76019656 -16 13 C-11.3126338 7.82773385 -5.68271819 4.01074507 0 0 Z " fill="#F5C45C" transform="translate(138,146)"/>
<path d="M0 0 C2.0625 0.4375 2.0625 0.4375 4 1 C3.47599609 1.70576172 3.47599609 1.70576172 2.94140625 2.42578125 C2.48636719 3.04839844 2.03132812 3.67101562 1.5625 4.3125 C1.11003906 4.92738281 0.65757812 5.54226562 0.19140625 6.17578125 C-3.07503496 11.17718467 -2.42595573 17.39102115 -1.5 23.0625 C-1.335 23.701875 -1.17 24.34125 -1 25 C-3 24 -3 24 -4 21 C-4.60978686 13.84673112 -3.95263821 7.57841674 -1 1 C-0.67 0.67 -0.34 0.34 0 0 Z " fill="#EFD272" transform="translate(173,149)"/>
<path d="M0 0 C0.33 0 0.66 0 1 0 C1 5.28 1 10.56 1 16 C-0.5675 16.04125 -2.135 16.0825 -3.75 16.125 C-4.63171875 16.14820313 -5.5134375 16.17140625 -6.421875 16.1953125 C-9 16 -9 16 -13 14 C-9.37 14 -5.74 14 -2 14 C-1.34 9.38 -0.68 4.76 0 0 Z " fill="#D48838" transform="translate(476,322)"/>
<path d="M0 0 C5.28 0.33 10.56 0.66 16 1 C16 1.66 16 2.32 16 3 C17.98 3 19.96 3 22 3 C22 3.66 22 4.32 22 5 C14.47407567 4.3622098 7.32901118 2.80110167 0 1 C0 0.67 0 0.34 0 0 Z " fill="#FDEAC6" transform="translate(208,198)"/>
<path d="M0 0 C0 0.66 0 1.32 0 2 C-3.3 2.66 -6.6 3.32 -10 4 C-10 4.66 -10 5.32 -10 6 C-11.65002828 7.35386936 -13.3174387 8.68678142 -15 10 C-15.33 10.66 -15.66 11.32 -16 12 C-16.66 11.67 -17.32 11.34 -18 11 C-8.56210856 -0.75548017 -8.56210856 -0.75548017 0 0 Z " fill="#875933" transform="translate(119,109)"/>
<path d="M0 0 C4.04301175 1.48518799 7.61146256 3.42877998 11.3125 5.625 C12.38113281 6.25664062 13.44976562 6.88828125 14.55078125 7.5390625 C15.76314453 8.26222656 15.76314453 8.26222656 17 9 C15 10 15 10 13.0546875 9.44140625 C11.97574219 9.00634766 11.97574219 9.00634766 10.875 8.5625 C10.15054687 8.27503906 9.42609375 7.98757812 8.6796875 7.69140625 C8.12539063 7.46324219 7.57109375 7.23507813 7 7 C7 6.34 7 5.68 7 5 C6.01 5 5.02 5 4 5 C4 4.34 4 3.68 4 3 C2.68 2.67 1.36 2.34 0 2 C0 1.34 0 0.68 0 0 Z " fill="#ECB157" transform="translate(405,228)"/>
<path d="M0 0 C0.99 0.33 1.98 0.66 3 1 C0.54735411 2.84104236 -1.91300959 4.67147793 -4.375 6.5 C-5.42300781 7.28697266 -5.42300781 7.28697266 -6.4921875 8.08984375 C-7.1625 8.58613281 -7.8328125 9.08242187 -8.5234375 9.59375 C-9.450354 10.28500977 -9.450354 10.28500977 -10.39599609 10.99023438 C-12 12 -12 12 -14 12 C-14 11.34 -14 10.68 -14 10 C-13.01 10 -12.02 10 -11 10 C-11 9.34 -11 8.68 -11 8 C-5.58823529 4 -5.58823529 4 -3 4 C-3 3.34 -3 2.68 -3 2 C-2.01 1.34 -1.02 0.68 0 0 Z " fill="#9C6018" transform="translate(157,130)"/>
<path d="M0 0 C0.66 0 1.32 0 2 0 C2 0.66 2 1.32 2 2 C2.99 2 3.98 2 5 2 C5.33 2.66 5.66 3.32 6 4 C6.66 3.67 7.32 3.34 8 3 C8 3.66 8 4.32 8 5 C8.99 5.33 9.98 5.66 11 6 C11 6.99 11 7.98 11 9 C5.33644285 7.68289369 3.29411959 5.5536359 0 1 C0 0.67 0 0.34 0 0 Z " fill="#88542D" transform="translate(60,329)"/>
<path d="M0 0 C0 0.33 0 0.66 0 1 C-0.79664063 1.09796875 -1.59328125 1.1959375 -2.4140625 1.296875 C-8.62704273 2.17364593 -13.13766231 2.94805192 -18 7 C-18.66 6.67 -19.32 6.34 -20 6 C-13.33156525 0.28419878 -8.54727922 -0.29873986 0 0 Z " fill="#875936" transform="translate(171,89)"/>
<path d="M0 0 C2.31 0.33 4.62 0.66 7 1 C7 1.99 7 2.98 7 4 C8.65 4 10.3 4 12 4 C12.33 4.99 12.66 5.98 13 7 C7.83572624 5.7605743 4.24563172 4.21011179 0 1 C0 0.67 0 0.34 0 0 Z " fill="#FCEDD4" transform="translate(184,187)"/>
<path d="M0 0 C0.78375 0.268125 1.5675 0.53625 2.375 0.8125 C6.89239169 2.29233521 11.44270338 3.64902274 16 5 C16 5.33 16 5.66 16 6 C12.7 6 9.4 6 6 6 C6 5.34 6 4.68 6 4 C4.02 3.34 2.04 2.68 0 2 C0 1.34 0 0.68 0 0 Z " fill="#A35319" transform="translate(88,312)"/>
<path d="M0 0 C1.77155654 0.11429397 3.54226229 0.24183037 5.3125 0.375 C6.79169922 0.47941406 6.79169922 0.47941406 8.30078125 0.5859375 C11 1 11 1 14 3 C11.69 3.33 9.38 3.66 7 4 C7 3.34 7 2.68 7 2 C4.55519921 2.18828772 4.55519921 2.18828772 2 3 C0.63979849 4.96758273 0.63979849 4.96758273 0 7 C0 4.69 0 2.38 0 0 Z " fill="#DC8A21" transform="translate(71,201)"/>
<path d="M0 0 C3.55780196 0.60990891 6.6828589 1.5783681 10 3 C9.01 3.33 8.02 3.66 7 4 C7 4.99 7 5.98 7 7 C5.68 6.34 4.36 5.68 3 5 C3 4.01 3 3.02 3 2 C2.01 1.67 1.02 1.34 0 1 C0 0.67 0 0.34 0 0 Z " fill="#F2B352" transform="translate(192,193)"/>
<path d="M0 0 C1.60781893 0.7631861 3.21113138 1.53587058 4.8125 2.3125 C5.70582031 2.74175781 6.59914063 3.17101562 7.51953125 3.61328125 C9.78931933 4.88221789 11.29248171 6.06556898 13 8 C12.484375 7.855625 11.96875 7.71125 11.4375 7.5625 C8.31490429 6.84190099 5.17449308 6.42733561 2 6 C2 5.01 2 4.02 2 3 C1.34 2.67 0.68 2.34 0 2 C0 1.34 0 0.68 0 0 Z " fill="#EBB25B" transform="translate(441,248)"/>
<path d="M0 0 C4.05281712 1.22527029 7.44360764 2.69880494 11 5 C8.21176345 6.0326802 7.1322726 6.04509293 4.25 5.0625 C3.5075 4.711875 2.765 4.36125 2 4 C2 3.34 2 2.68 2 2 C1.34 2 0.68 2 0 2 C0 1.34 0 0.68 0 0 Z " fill="#EDB553" transform="translate(352,199)"/>
<path d="M0 0 C0 0.66 0 1.32 0 2 C-1.6796875 3.5078125 -1.6796875 3.5078125 -3.875 5.125 C-4.95394531 5.93324219 -4.95394531 5.93324219 -6.0546875 6.7578125 C-8 8 -8 8 -10 8 C-10 7.34 -10 6.68 -10 6 C-9.34 6 -8.68 6 -8 6 C-8 5.34 -8 4.68 -8 4 C-3.64705882 0 -3.64705882 0 0 0 Z " fill="#FBEBCD" transform="translate(334,187)"/>
<path d="M0 0 C0.66 1.32 1.32 2.64 2 4 C1.2884375 4.556875 1.2884375 4.556875 0.5625 5.125 C-1.52205802 7.62646962 -1.64621491 9.81593418 -2 13 C-2.33 13 -2.66 13 -3 13 C-3.27429625 7.60550707 -3.36055646 4.48074195 0 0 Z " fill="#FCF1DA" transform="translate(199,116)"/>
<path d="M0 0 C0.66 0.33 1.32 0.66 2 1 C2 1.66 2 2.32 2 3 C-1.2491277 5.3208055 -4.05879291 6.43697042 -8 7 C-5.42215154 4.35247996 -3.08351902 2.05567935 0 0 Z " fill="#F2C360" transform="translate(190,109)"/>
<path d="M0 0 C4 5 4 5 8 10 C6.35 9.67 4.7 9.34 3 9 C3 8.01 3 7.02 3 6 C2.34 6 1.68 6 1 6 C0.67 4.02 0.34 2.04 0 0 Z " fill="#F0D37D" transform="translate(173,176)"/>
<path d="M0 0 C1.72526042 1.07421875 3.45052083 2.1484375 5.17578125 3.22265625 C0.92516769 4.63952744 -1.542735 3.41585664 -5.82421875 2.22265625 C-4.43962232 -0.5465366 -2.90432457 -1.23760297 0 0 Z " fill="#DEDEDE" transform="translate(307.82421875,116.77734375)"/>
<path d="M0 0 C-0.8125 1.9375 -0.8125 1.9375 -2 4 C-2.99 4.33 -3.98 4.66 -5 5 C-6.66710346 6.49985609 -6.66710346 6.49985609 -8 8 C-7.65978036 4.82461668 -6.97533396 3.97723135 -4.5625 1.75 C-2 0 -2 0 0 0 Z " fill="#F8C65F" transform="translate(113,166)"/>
<path d="M0 0 C4.75 1.875 4.75 1.875 7 3 C7 3.66 7 4.32 7 5 C5.02 5 3.04 5 1 5 C1.33 4.01 1.66 3.02 2 2 C1.34 2 0.68 2 0 2 C0 1.34 0 0.68 0 0 Z " fill="#F0B248" transform="translate(466,263)"/>
<path d="M0 0 C0.66 0.33 1.32 0.66 2 1 C2 1.66 2 2.32 2 3 C-4.625 6 -4.625 6 -8 6 C-5.36 4.02 -2.72 2.04 0 0 Z " fill="#EBB963" transform="translate(334,188)"/>
<path d="M0 0 C3.3 0.33 6.6 0.66 10 1 C10 1.99 10 2.98 10 4 C6.7 3.01 3.4 2.02 0 1 C0 0.67 0 0.34 0 0 Z " fill="#FDECCB" transform="translate(197,194)"/>
<path d="M0 0 C-1.75 3.875 -1.75 3.875 -4 5 C-6.125 4.0625 -6.125 4.0625 -8 3 C-2.25 0 -2.25 0 0 0 Z " fill="#F2B55E" transform="translate(326,195)"/>
</svg>
